# Blender 5.1.2
# www.blender.org
mtllib cable_end.mtl
o cable_end
v -0.008865 -0.005957 0.007311
v -0.008865 0.005957 0.007311
v -0.008865 -0.005957 -0.007311
v -0.008865 0.005957 -0.007311
v -0.006170 -0.005957 -0.007311
v -0.006170 0.005957 -0.007311
v -0.006170 -0.005957 0.007311
v -0.006170 0.005957 0.007311
v -0.006170 0.008593 -0.007311
v -0.006170 0.008593 0.007311
v 0.000000 0.005957 -0.007311
v 0.000000 -0.005957 0.007311
v 0.000000 -0.005957 -0.007311
v 0.000000 0.005957 0.007311
v 0.000000 0.008593 -0.007311
v 0.000000 0.008593 0.007311
v 0.008865 -0.005957 0.007311
v 0.008865 0.005957 0.007311
v 0.008865 -0.005957 -0.007311
v 0.008865 0.005957 -0.007311
v 0.006170 -0.005957 -0.007311
v 0.006170 0.005957 -0.007311
v 0.006170 -0.005957 0.007311
v 0.006170 0.005957 0.007311
v 0.006170 0.008593 -0.007311
v 0.006170 0.008593 0.007311
vn -1.0000 -0.0000 -0.0000
vn -0.0000 -0.0000 1.0000
vn -0.0000 1.0000 -0.0000
vn -0.0000 -1.0000 -0.0000
vn -0.0000 -0.0000 -1.0000
vn 1.0000 -0.0000 -0.0000
vt 0.375000 0.000000
vt 0.625000 0.000000
vt 0.625000 0.250000
vt 0.375000 0.250000
vt 0.375000 0.961999
vt 0.625000 0.961999
vt 0.625000 1.000000
vt 0.375000 1.000000
vt 0.836999 0.500000
vt 0.875000 0.500000
vt 0.875000 0.750000
vt 0.836999 0.750000
vt 0.125000 0.500000
vt 0.163001 0.500000
vt 0.163001 0.750000
vt 0.125000 0.750000
vt 0.375000 0.875000
vt 0.625000 0.875000
vt 0.625000 0.288001
vt 0.375000 0.288001
vt 0.750000 0.500000
vt 0.750000 0.750000
vt 0.625000 0.375000
vt 0.250000 0.500000
vt 0.250000 0.750000
vt 0.375000 0.375000
s 0
usemtl port
f 1/1/1 2/2/1 4/3/1 3/4/1
f 7/5/2 8/6/2 2/7/2 1/8/2
f 6/9/3 4/10/3 2/11/3 8/12/3
f 3/13/4 5/14/4 7/15/4 1/16/4
f 12/17/2 14/18/2 8/6/2 7/5/2
f 3/4/5 4/3/5 6/19/5 5/20/5
f 15/21/3 9/9/3 10/12/3 16/22/3
f 11/23/5 6/19/5 9/19/5 15/23/5
f 6/9/1 8/12/1 10/12/1 9/9/1
f 8/6/2 14/18/2 16/18/2 10/6/2
f 5/14/4 13/24/4 12/25/4 7/15/4
f 5/20/5 6/19/5 11/23/5 13/26/5
f 17/1/6 19/4/6 20/3/6 18/2/6
f 23/5/2 17/8/2 18/7/2 24/6/2
f 22/9/3 24/12/3 18/11/3 20/10/3
f 19/13/4 17/16/4 23/15/4 21/14/4
f 12/17/2 23/5/2 24/6/2 14/18/2
f 19/4/5 21/20/5 22/19/5 20/3/5
f 15/21/3 16/22/3 26/12/3 25/9/3
f 11/23/5 15/23/5 25/19/5 22/19/5
f 22/9/6 25/9/6 26/12/6 24/12/6
f 24/6/2 26/6/2 16/18/2 14/18/2
f 21/14/4 23/15/4 12/25/4 13/24/4
f 21/20/5 13/26/5 11/23/5 22/19/5
