# Blender 5.1.2
# www.blender.org
mtllib floor.mtl
o floor
v -1.000000 -0.004500 0.989789
v -0.995500 -0.004500 0.994289
v -0.995500 0.000000 0.989789
v -0.999850 -0.004500 0.992416
v -0.999850 -0.001873 0.989789
v -0.999656 -0.001821 0.992467
v -0.995500 -0.001873 0.994139
v -0.998128 -0.004500 0.994139
v -0.998179 -0.001821 0.993944
v -0.998128 -0.000150 0.989789
v -0.995500 -0.000150 0.992416
v -0.998179 -0.000345 0.992467
v 0.995500 -0.004500 0.994289
v 1.000000 -0.004500 0.989789
v 0.995500 0.000000 0.989789
v 0.998128 -0.004500 0.994139
v 0.995500 -0.001873 0.994139
v 0.998179 -0.001821 0.993944
v 0.999850 -0.001873 0.989789
v 0.999850 -0.004500 0.992416
v 0.999656 -0.001821 0.992467
v 0.995500 -0.000150 0.992416
v 0.998128 -0.000150 0.989789
v 0.998179 -0.000345 0.992467
v -1.000000 -0.004500 -1.001211
v -0.995500 0.000000 -1.001211
v -0.995500 -0.004500 -1.005711
v -0.999850 -0.001873 -1.001211
v -0.999850 -0.004500 -1.003839
v -0.999656 -0.001821 -1.003890
v -0.995500 -0.000150 -1.003839
v -0.998128 -0.000150 -1.001211
v -0.998179 -0.000345 -1.003890
v -0.998128 -0.004500 -1.005561
v -0.995500 -0.001873 -1.005561
v -0.998179 -0.001821 -1.005367
v 1.000000 -0.004500 -1.001211
v 0.995500 -0.004500 -1.005711
v 0.995500 0.000000 -1.001211
v 0.999850 -0.004500 -1.003839
v 0.999850 -0.001873 -1.001211
v 0.999656 -0.001821 -1.003890
v 0.995500 -0.001873 -1.005561
v 0.998128 -0.004500 -1.005561
v 0.998179 -0.001821 -1.005367
v 0.998128 -0.000150 -1.001211
v 0.995500 -0.000150 -1.003839
v 0.998179 -0.000345 -1.003890
v -1.000000 -0.057741 -1.001211
v -0.995500 -0.057741 -1.005711
v -0.995500 -0.062241 -1.001211
v -0.999850 -0.057741 -1.003839
v -0.999850 -0.060368 -1.001211
v -0.999656 -0.060419 -1.003890
v -0.995500 -0.060368 -1.005561
v -0.998128 -0.057741 -1.005561
v -0.998179 -0.060419 -1.005367
v -0.998128 -0.062091 -1.001211
v -0.995500 -0.062091 -1.003839
v -0.998179 -0.061896 -1.003890
v -1.000000 -0.057741 0.989789
v -0.995500 -0.062241 0.989789
v -0.995500 -0.057741 0.994289
v -0.999850 -0.060368 0.989789
v -0.999850 -0.057741 0.992416
v -0.999656 -0.060419 0.992467
v -0.995500 -0.062091 0.992416
v -0.998128 -0.062091 0.989789
v -0.998179 -0.061896 0.992467
v -0.998128 -0.057741 0.994139
v -0.995500 -0.060368 0.994139
v -0.998179 -0.060419 0.993944
v 0.995500 -0.057741 0.994289
v 0.995500 -0.062241 0.989789
v 1.000000 -0.057741 0.989789
v 0.995500 -0.060368 0.994139
v 0.998128 -0.057741 0.994139
v 0.998179 -0.060419 0.993944
v 0.998128 -0.062091 0.989789
v 0.995500 -0.062091 0.992416
v 0.998179 -0.061896 0.992467
v 0.999850 -0.057741 0.992416
v 0.999850 -0.060368 0.989789
v 0.999656 -0.060419 0.992467
v 1.000000 -0.057741 -1.001211
v 0.995500 -0.062241 -1.001211
v 0.995500 -0.057741 -1.005711
v 0.999850 -0.060368 -1.001211
v 0.999850 -0.057741 -1.003839
v 0.999656 -0.060419 -1.003890
v 0.995500 -0.062091 -1.003839
v 0.998128 -0.062091 -1.001211
v 0.998179 -0.061896 -1.003890
v 0.998128 -0.057741 -1.005561
v 0.995500 -0.060368 -1.005561
v 0.998179 -0.060419 -1.005367
vn -0.9984 0.0404 0.0404
vn -0.9136 0.0273 0.4056
vn -0.8530 0.3691 0.3691
vn -0.9136 0.4056 0.0273
vn -0.4056 0.0273 0.9136
vn -0.3691 0.3691 0.8530
vn -0.0404 0.0404 0.9984
vn -0.0273 0.4056 0.9136
vn -0.0273 0.9136 0.4056
vn -0.3691 0.8530 0.3691
vn -0.0404 0.9984 0.0404
vn -0.4056 0.9136 0.0273
vn 0.0404 0.0404 0.9984
vn 0.4056 0.0273 0.9136
vn 0.3691 0.3691 0.8530
vn 0.0273 0.4056 0.9136
vn 0.9136 0.0273 0.4056
vn 0.8530 0.3691 0.3691
vn 0.9984 0.0404 0.0404
vn 0.9136 0.4056 0.0273
vn 0.4056 0.9136 0.0273
vn 0.3691 0.8530 0.3691
vn 0.0404 0.9984 0.0404
vn 0.0273 0.9136 0.4056
vn -0.9984 0.0404 -0.0404
vn -0.9136 0.4056 -0.0273
vn -0.8530 0.3691 -0.3691
vn -0.9136 0.0273 -0.4056
vn -0.4056 0.9136 -0.0273
vn -0.3691 0.8530 -0.3691
vn -0.0404 0.9984 -0.0404
vn -0.0273 0.9136 -0.4056
vn -0.0273 0.4056 -0.9136
vn -0.3691 0.3691 -0.8530
vn -0.0404 0.0404 -0.9984
vn -0.4056 0.0273 -0.9136
vn 0.9984 0.0404 -0.0404
vn 0.9136 0.0273 -0.4056
vn 0.8530 0.3691 -0.3691
vn 0.9136 0.4056 -0.0273
vn 0.4056 0.0273 -0.9136
vn 0.3691 0.3691 -0.8530
vn 0.0404 0.0404 -0.9984
vn 0.0273 0.4056 -0.9136
vn 0.0273 0.9136 -0.4056
vn 0.3691 0.8530 -0.3691
vn 0.0404 0.9984 -0.0404
vn 0.4056 0.9136 -0.0273
vn -0.9984 -0.0404 -0.0404
vn -0.9136 -0.0273 -0.4056
vn -0.8530 -0.3691 -0.3691
vn -0.9136 -0.4056 -0.0273
vn -0.4056 -0.0273 -0.9136
vn -0.3691 -0.3691 -0.8530
vn -0.0404 -0.0404 -0.9984
vn -0.0273 -0.4056 -0.9136
vn -0.0273 -0.9136 -0.4056
vn -0.3691 -0.8530 -0.3691
vn -0.0404 -0.9984 -0.0404
vn -0.4056 -0.9136 -0.0273
vn -0.9984 -0.0404 0.0404
vn -0.9136 -0.4056 0.0273
vn -0.8530 -0.3691 0.3691
vn -0.9136 -0.0273 0.4056
vn -0.4056 -0.9136 0.0273
vn -0.3691 -0.8530 0.3691
vn -0.0404 -0.9984 0.0404
vn -0.0273 -0.9136 0.4056
vn -0.0273 -0.4056 0.9136
vn -0.3691 -0.3691 0.8530
vn -0.0404 -0.0404 0.9984
vn -0.4056 -0.0273 0.9136
vn 0.0404 -0.0404 0.9984
vn 0.0273 -0.4056 0.9136
vn 0.3691 -0.3691 0.8530
vn 0.4056 -0.0273 0.9136
vn 0.0273 -0.9136 0.4056
vn 0.3691 -0.8530 0.3691
vn 0.0404 -0.9984 0.0404
vn 0.4056 -0.9136 0.0273
vn 0.9136 -0.4056 0.0273
vn 0.8530 -0.3691 0.3691
vn 0.9984 -0.0404 0.0404
vn 0.9136 -0.0273 0.4056
vn 0.9984 -0.0404 -0.0404
vn 0.9136 -0.4056 -0.0273
vn 0.8530 -0.3691 -0.3691
vn 0.9136 -0.0273 -0.4056
vn 0.4056 -0.9136 -0.0273
vn 0.3691 -0.8530 -0.3691
vn 0.0404 -0.9984 -0.0404
vn 0.0273 -0.9136 -0.4056
vn 0.0273 -0.4056 -0.9136
vn 0.3691 -0.3691 -0.8530
vn 0.0404 -0.0404 -0.9984
vn 0.4056 -0.0273 -0.9136
vn -1.0000 -0.0000 -0.0000
vn -0.0000 1.0000 -0.0000
vn -0.0000 -0.0000 1.0000
vn 1.0000 -0.0000 -0.0000
vn -0.0000 -0.0000 -1.0000
vn -0.0000 -1.0000 -0.0000
vt 0.108142 0.938123
vt 0.107045 0.938121
vt 0.108502 0.936752
vt 0.109580 0.936781
vt 0.106250 0.937312
vt 0.107735 0.935971
vt 0.106245 0.936192
vt 0.107699 0.934867
vt 0.109503 0.933937
vt 0.109489 0.935058
vt 0.110580 0.933940
vt 0.110587 0.935040
vt 0.100996 0.098089
vt 0.100990 0.096969
vt 0.102231 0.098272
vt 0.102214 0.099376
vt 0.101779 0.096163
vt 0.102991 0.097494
vt 0.102876 0.096166
vt 0.104074 0.097472
vt 0.104921 0.099187
vt 0.103823 0.099163
vt 0.104929 0.100287
vt 0.103851 0.100284
vt 0.928887 0.940226
vt 0.927689 0.938920
vt 0.928772 0.938897
vt 0.929984 0.940229
vt 0.926842 0.937205
vt 0.927940 0.937229
vt 0.926835 0.936105
vt 0.927912 0.936107
vt 0.929549 0.937015
vt 0.929532 0.938119
vt 0.930767 0.938303
vt 0.930773 0.939423
vt 0.923621 0.098268
vt 0.924718 0.098271
vt 0.923261 0.099640
vt 0.922183 0.099611
vt 0.925512 0.099080
vt 0.924028 0.100421
vt 0.925518 0.100200
vt 0.924064 0.101524
vt 0.922260 0.102455
vt 0.922274 0.101333
vt 0.921183 0.102452
vt 0.921176 0.101352
vt 0.953484 0.966690
vt 0.954625 0.966692
vt 0.955881 0.968023
vt 0.954682 0.967996
vt 0.955426 0.965874
vt 0.956630 0.967423
vt 0.955424 0.964711
vt 0.956642 0.965999
vt 0.957512 0.966905
vt 0.956975 0.968929
vt 0.990117 0.061338
vt 0.990229 0.061338
vt 0.990229 0.061404
vt 0.990117 0.061449
vt 0.955524 0.968927
vt 0.078689 0.965337
vt 0.077251 0.966680
vt 0.076048 0.966704
vt 0.077548 0.965335
vt 0.076238 0.967637
vt 0.074787 0.967635
vt 0.990117 0.011836
vt 0.990117 0.011724
vt 0.990229 0.011770
vt 0.990229 0.011836
vt 0.074251 0.965609
vt 0.075287 0.964676
vt 0.075296 0.966101
vt 0.076741 0.963351
vt 0.076743 0.964515
vt 0.076339 0.071680
vt 0.075120 0.070393
vt 0.075096 0.069170
vt 0.076337 0.070517
vt 0.074251 0.069487
vt 0.074251 0.068008
vt 0.940616 0.011836
vt 0.940504 0.011836
vt 0.940549 0.011724
vt 0.940616 0.011724
vt 0.076238 0.067464
vt 0.077081 0.068395
vt 0.075685 0.068405
vt 0.078279 0.069702
vt 0.077138 0.069700
vt 0.953074 0.071054
vt 0.954511 0.069711
vt 0.955715 0.069687
vt 0.954215 0.071056
vt 0.955524 0.068755
vt 0.956975 0.068757
vt 0.940616 0.061338
vt 0.940616 0.061449
vt 0.940504 0.061404
vt 0.940504 0.061338
vt 0.957512 0.070783
vt 0.956476 0.071715
vt 0.956466 0.070291
vt 0.955021 0.073040
vt 0.955020 0.071877
s 1
usemtl floor
f 1/1/1 4/2/2 6/3/3 5/4/4
f 4/2/2 8/5/5 9/6/6 6/3/3
f 2/7/7 7/8/8 9/6/6 8/5/5
f 7/8/8 11/9/9 12/10/10 9/6/6
f 3/11/11 10/12/12 12/10/10 11/9/9
f 10/12/12 5/4/4 6/3/3 12/10/10
f 6/3/3 9/6/6 12/10/10
f 13/13/13 16/14/14 18/15/15 17/16/16
f 16/14/14 20/17/17 21/18/18 18/15/15
f 14/19/19 19/20/20 21/18/18 20/17/17
f 19/20/20 23/21/21 24/22/22 21/18/18
f 15/23/23 22/24/24 24/22/22 23/21/21
f 22/24/24 17/16/16 18/15/15 24/22/22
f 18/15/15 21/18/18 24/22/22
f 25/25/25 28/26/26 30/27/27 29/28/28
f 28/26/26 32/29/29 33/30/30 30/27/27
f 26/31/31 31/32/32 33/30/30 32/29/29
f 31/32/32 35/33/33 36/34/34 33/30/30
f 27/35/35 34/36/36 36/34/34 35/33/33
f 34/36/36 29/28/28 30/27/27 36/34/34
f 30/27/27 33/30/30 36/34/34
f 37/37/37 40/38/38 42/39/39 41/40/40
f 40/38/38 44/41/41 45/42/42 42/39/39
f 38/43/43 43/44/44 45/42/42 44/41/41
f 43/44/44 47/45/45 48/46/46 45/42/42
f 39/47/47 46/48/48 48/46/46 47/45/45
f 46/48/48 41/40/40 42/39/39 48/46/46
f 42/39/39 45/42/42 48/46/46
f 49/49/49 52/50/50 54/51/51 53/52/52
f 52/50/50 56/53/53 57/54/54 54/51/51
f 50/55/55 55/56/56 57/54/54 56/53/53
f 55/56/56 59/57/57 60/58/58 57/54/54
f 51/59/59 58/60/60 60/61/58 59/62/57
f 58/63/60 53/52/52 54/51/51 60/58/58
f 54/51/51 57/54/54 60/58/58
f 61/64/61 64/65/62 66/66/63 65/67/64
f 64/65/62 68/68/65 69/69/66 66/66/63
f 62/70/67 67/71/68 69/72/66 68/73/65
f 67/74/68 71/75/69 72/76/70 69/69/66
f 63/77/71 70/78/72 72/76/70 71/75/69
f 70/78/72 65/67/64 66/66/63 72/76/70
f 66/66/63 69/69/66 72/76/70
f 73/79/73 76/80/74 78/81/75 77/82/76
f 76/80/74 80/83/77 81/84/78 78/81/75
f 74/85/79 79/86/80 81/87/78 80/88/77
f 79/89/80 83/90/81 84/91/82 81/84/78
f 75/92/83 82/93/84 84/91/82 83/90/81
f 82/93/84 77/82/76 78/81/75 84/91/82
f 78/81/75 81/84/78 84/91/82
f 85/94/85 88/95/86 90/96/87 89/97/88
f 88/95/86 92/98/89 93/99/90 90/96/87
f 86/100/91 91/101/92 93/102/90 92/103/89
f 91/104/92 95/105/93 96/106/94 93/99/90
f 87/107/95 94/108/96 96/106/94 95/105/93
f 94/108/96 89/97/88 90/96/87 96/106/94
f 90/96/87 93/99/90 96/106/94
f 25/25/25 1/1/1 5/4/4 28/26/26
f 28/26/26 5/4/4 10/12/12 32/29/29
f 32/29/29 10/12/12 3/11/11 26/31/31
f 2/7/7 13/13/13 17/16/16 7/8/8
f 7/8/8 17/16/16 22/24/24 11/9/9
f 11/9/9 22/24/24 15/23/23 3/11/11
f 14/19/19 37/37/37 41/40/40 19/20/20
f 19/20/20 41/40/40 46/48/48 23/21/21
f 23/21/21 46/48/48 39/47/47 15/23/23
f 38/43/43 27/35/35 35/33/33 43/44/44
f 43/44/44 35/33/33 31/32/32 47/45/45
f 47/45/45 31/32/32 26/31/31 39/47/47
f 51/59/59 62/70/67 68/73/65 58/60/60
f 58/63/60 68/68/65 64/65/62 53/52/52
f 53/52/52 64/65/62 61/64/61 49/49/49
f 62/70/67 74/85/79 80/88/77 67/71/68
f 67/74/68 80/83/77 76/80/74 71/75/69
f 71/75/69 76/80/74 73/79/73 63/77/71
f 74/85/79 86/100/91 92/103/89 79/86/80
f 79/89/80 92/98/89 88/95/86 83/90/81
f 83/90/81 88/95/86 85/94/85 75/92/83
f 86/100/91 51/59/59 59/62/57 91/101/92
f 91/104/92 59/57/57 55/56/56 95/105/93
f 95/105/93 55/56/56 50/55/55 87/107/95
f 37/37/37 85/94/85 89/97/88 40/38/38
f 40/38/38 89/97/88 94/108/96 44/41/41
f 44/41/41 94/108/96 87/107/95 38/43/43
f 75/92/83 14/19/19 20/17/17 82/93/84
f 82/93/84 20/17/17 16/14/14 77/82/76
f 77/82/76 16/14/14 13/13/13 73/79/73
f 1/1/1 61/64/61 65/67/64 4/2/2
f 4/2/2 65/67/64 70/78/72 8/5/5
f 8/5/5 70/78/72 63/77/71 2/7/7
f 49/49/49 25/25/25 29/28/28 52/50/50
f 52/50/50 29/28/28 34/36/36 56/53/53
f 56/53/53 34/36/36 27/35/35 50/55/55
f 25/25/97 49/49/97 61/64/97 1/1/97
f 3/11/98 15/23/98 39/47/98 26/31/98
f 2/7/99 63/77/99 73/79/99 13/13/99
f 14/19/100 75/92/100 85/94/100 37/37/100
f 38/43/101 87/107/101 50/55/101 27/35/101
f 62/70/102 51/59/102 86/100/102 74/85/102
