# Blender 5.1.2
# www.blender.org
mtllib rack_outer.mtl
o rack_outer
v -0.249062 0.004779 0.185997
v -0.249062 0.621447 0.185997
v -0.249062 0.004779 0.160498
v -0.249062 0.621447 0.160498
v 0.249062 0.004779 0.185997
v 0.249062 0.621447 0.185997
v 0.249062 0.004779 0.160498
v 0.249062 0.621447 0.160498
v -0.241461 0.004779 0.178396
v -0.241461 0.621447 0.178396
v -0.241461 0.004779 0.160498
v -0.241461 0.621447 0.160498
v 0.241461 0.004779 0.178396
v 0.241461 0.621447 0.178396
v 0.241461 0.004779 0.160498
v 0.241461 0.621447 0.160498
v 0.232160 0.017163 0.178396
v 0.232160 0.017163 0.185997
v 0.232160 0.600125 0.178396
v 0.232160 0.600125 0.185997
v -0.232592 0.600125 0.178396
v -0.232592 0.600125 0.185997
v -0.232592 0.017163 0.178396
v -0.232592 0.017163 0.185997
v -0.232592 0.021261 0.185997
vn -1.0000 -0.0000 -0.0000
vn 1.0000 -0.0000 -0.0000
vn -0.0000 -0.0000 1.0000
vn -0.0000 -0.0000 -1.0000
vn -0.0000 -1.0000 -0.0000
vn -0.0000 1.0000 -0.0000
vt 0.375000 0.000000
vt 0.625000 0.000000
vt 0.625000 0.250000
vt 0.375000 0.250000
vt 0.375000 0.500000
vt 0.625000 0.500000
vt 0.625000 0.750000
vt 0.375000 0.750000
vt 0.614306 0.758483
vt 0.381211 0.758483
vt 0.381211 0.991734
vt 0.383266 0.991734
vt 0.375000 1.000000
vt 0.625000 1.000000
vt 0.614306 0.995409
vt 0.381211 0.995409
vt 0.381211 0.754815
vt 0.375000 0.647539
vt 0.375000 0.651628
vt 0.625000 0.651628
vt 0.625000 0.647539
vt 0.614306 0.754815
vt 0.375000 0.098372
vt 0.375000 0.102461
vt 0.625000 0.102461
vt 0.625000 0.098372
vt 0.377204 0.098372
vt 0.614306 0.991734
vt 0.125000 0.647539
vt 0.125000 0.651628
vt 0.875000 0.651628
vt 0.875000 0.647539
s 0
usemtl brushedmetal
f 1/1/1 2/2/1 4/3/1 3/4/1
f 7/5/2 8/6/2 6/7/2 5/8/2
f 5/8/3 6/7/3 20/9/3 18/10/3 24/11/3 25/12/3 1/13/3
f 9/1/2 11/4/2 12/3/2 10/2/2
f 15/5/1 13/8/1 14/7/1 16/6/1
f 13/8/4 9/13/4 10/14/4 21/15/4 23/16/4 17/17/4
f 1/1/5 3/4/5 11/4/5 9/1/5
f 4/3/6 2/2/6 10/2/6 12/3/6
f 3/4/4 4/3/4 12/3/4 11/4/4
f 8/6/4 7/5/4 15/5/4 16/6/4
f 7/5/5 5/8/5 13/8/5 15/5/5
f 6/7/6 8/6/6 16/6/6 14/7/6
f 5/8/5 1/13/5 9/13/5 13/8/5
f 2/14/6 6/7/6 14/7/6 10/14/6
f 17/18/1 18/19/1 20/20/1 19/21/1
f 17/17/4 19/22/4 21/15/4 10/14/4 14/7/4 13/8/4
f 24/23/2 23/24/2 21/25/2 22/26/2 25/27/2
f 1/13/3 25/12/3 22/28/3 20/9/3 6/7/3 2/14/3
f 23/29/6 24/30/6 18/19/6 17/18/6
f 19/21/5 20/20/5 22/31/5 21/32/5
