# Blender 5.1.2
# www.blender.org
mtllib server_inner.mtl
o server_inner
v -0.241461 0.004779 0.178870
v -0.241461 0.621447 0.178870
v -0.241461 0.004779 -0.190293
v -0.241461 0.621447 -0.190293
v 0.241461 0.004779 0.178870
v 0.241461 0.621447 0.178870
v 0.241461 0.004779 -0.190293
v 0.241461 0.621447 -0.190293
v -0.228870 0.020858 0.178870
v -0.228870 0.605368 0.178870
v 0.228869 0.605368 0.178870
v 0.228869 0.020858 0.178870
v -0.228870 0.020858 -0.159906
v -0.228870 0.605368 -0.159906
v 0.228869 0.605368 -0.159906
v 0.228869 0.020858 -0.159906
vn -1.0000 -0.0000 -0.0000
vn -0.0000 -0.0000 -1.0000
vn 1.0000 -0.0000 -0.0000
vn -0.0000 -0.0000 1.0000
vn -0.0000 -1.0000 -0.0000
vn -0.0000 1.0000 -0.0000
vt 0.469918 0.536820
vt 0.461566 0.099233
vt 0.547329 0.007535
vt 0.547329 0.619855
vt 0.813145 0.000239
vt 0.813145 0.339063
vt 0.547806 0.339063
vt 0.547806 0.000239
vt 0.000239 0.612558
vt 0.000239 0.000239
vt 0.093151 0.083274
vt 0.101504 0.520860
vt 0.547806 0.678366
vt 0.547806 0.339541
vt 0.554724 0.348375
vt 0.554724 0.669531
vt 0.813623 0.321395
vt 0.813623 0.000239
vt 0.999761 0.000239
vt 0.999761 0.321395
vt 0.813145 0.339541
vt 0.806227 0.348375
vt 0.813145 0.678366
vt 0.806227 0.669531
vt 0.251741 0.620332
vt 0.251741 0.941488
vt 0.000239 0.941489
vt 0.000239 0.620332
vt 0.733945 0.678843
vt 0.733945 0.930345
vt 0.547806 0.930346
vt 0.547806 0.678843
vt 0.252219 0.941488
vt 0.252219 0.620332
vt 0.438357 0.620332
vt 0.438357 0.941488
vt 0.734422 0.930346
vt 0.734422 0.678843
vt 0.920561 0.678843
vt 0.920561 0.930346
s 0
usemtl brushedmetal
f 1/1/1 2/2/1 4/3/1 3/4/1
f 3/5/2 4/6/2 8/7/2 7/8/2
f 7/9/3 8/10/3 6/11/3 5/12/3
f 2/13/4 1/14/4 9/15/4 10/16/4
f 3/4/5 7/9/5 5/12/5 1/1/5
f 8/10/6 4/3/6 2/2/6 6/11/6
f 10/17/3 9/18/3 13/19/3 14/20/3
f 1/14/4 5/21/4 12/22/4 9/15/4
f 6/23/4 2/13/4 10/16/4 11/24/4
f 5/21/4 6/23/4 11/24/4 12/22/4
f 16/25/4 15/26/4 14/27/4 13/28/4
f 11/29/5 10/30/5 14/31/5 15/32/5
f 12/33/1 11/34/1 15/35/1 16/36/1
f 9/37/6 12/38/6 16/39/6 13/40/6
