# Blender 5.1.2
# www.blender.org
mtllib server_shelf.mtl
o server_shelf
v -0.228870 0.065649 -0.012477
v -0.228870 0.107614 -0.012477
v 0.228869 0.065649 -0.012477
v 0.228869 0.107614 -0.012477
v -0.228870 0.065649 0.174795
v -0.228870 0.069249 0.178396
v -0.228870 0.065756 0.176840
v -0.228870 0.067204 0.178288
v -0.228870 0.104014 0.178396
v -0.228870 0.107614 0.174795
v -0.228870 0.106058 0.178288
v -0.228870 0.107506 0.176840
v 0.228869 0.069249 0.178396
v 0.228869 0.065649 0.174795
v 0.228869 0.067204 0.178288
v 0.228869 0.065756 0.176840
v 0.228869 0.107614 0.174795
v 0.228869 0.104014 0.178396
v 0.228869 0.107506 0.176840
v 0.228869 0.106058 0.178288
vn -0.0000 -0.0000 -1.0000
vn -0.0000 -0.9986 0.0524
vn -0.0000 -0.9135 0.4068
vn -0.0000 -0.4067 0.9135
vn -0.0000 -0.0524 0.9986
vn -0.0000 0.9986 0.0524
vn -0.0000 0.9135 0.4068
vn -0.0000 0.4067 0.9135
vn -0.0000 0.0524 0.9986
vn -0.0000 -1.0000 -0.0000
vn -1.0000 -0.0000 -0.0000
vn -0.0000 -0.0000 1.0000
vn -0.0000 1.0000 -0.0000
vn 1.0000 -0.0000 -0.0000
vt 0.837147 0.452472
vt 0.795665 0.452472
vt 0.795665 0.000000
vt 0.837147 0.000000
vt 0.003492 0.000000
vt 0.003492 0.452472
vt 0.001468 0.452472
vt 0.001468 0.000000
vt -0.000000 0.452472
vt 0.000000 0.000000
vt 0.872480 0.452472
vt 0.872480 0.904944
vt 0.870458 0.904944
vt 0.870458 0.452472
vt 0.373600 0.452472
vt 0.373600 0.000000
vt 0.375623 0.000000
vt 0.375623 0.452472
vt 0.377092 0.000000
vt 0.377091 0.452472
vt 0.834072 0.904944
vt 0.834072 0.452472
vt 0.836094 0.452472
vt 0.836094 0.904944
vt 0.188546 0.000000
vt 0.188546 0.452472
vt 0.958518 0.185118
vt 0.958412 0.187139
vt 0.956981 0.188570
vt 0.954960 0.188676
vt 0.920595 0.188676
vt 0.918573 0.188570
vt 0.917142 0.187139
vt 0.917036 0.185118
vt 0.917036 0.000000
vt 0.958518 0.000000
vt 0.188546 -0.000000
vt 0.958518 0.377353
vt 0.917036 0.377353
vt 0.917036 0.192235
vt 0.917142 0.190214
vt 0.918573 0.188782
vt 0.956981 0.188782
vt 0.958412 0.190214
vt 0.958518 0.192235
s 1
usemtl brushedmetal
f 1/1/1 2/2/1 4/3/1 3/4/1
f 5/5/2 14/6/2 16/7/3 7/8/3
f 7/8/3 16/7/3 15/9/4 8/10/4
f 8/11/4 15/12/4 13/13/5 6/14/5
f 17/15/6 10/16/6 12/17/7 19/18/7
f 19/18/7 12/17/7 11/19/8 20/20/8
f 20/21/8 11/22/8 9/23/9 18/24/9
f 1/25/10 3/26/10 14/6/10 5/5/10
f 5/27/11 7/28/11 8/29/11 6/30/11 9/31/11 11/32/11 12/33/11 10/34/11 2/35/11 1/36/11
f 13/13/12 18/24/12 9/23/12 6/14/12
f 4/26/13 2/37/13 10/16/13 17/15/13
f 3/38/14 4/39/14 17/40/14 19/41/14 20/42/14 18/31/14 13/30/14 15/43/14 16/44/14 14/45/14
