# Blender 5.1.2
# www.blender.org
mtllib server_switch.mtl
o switch
v -0.114717 0.111508 0.161385
v -0.114717 0.123422 0.161385
v -0.112022 0.111508 0.161385
v -0.112022 0.123422 0.161385
v -0.112022 0.126058 0.161385
v -0.105852 0.123422 0.161385
v -0.105852 0.111508 0.161385
v -0.105852 0.126058 0.161385
v -0.096987 0.111508 0.161385
v -0.096987 0.123422 0.161385
v -0.099682 0.111508 0.161385
v -0.099682 0.123422 0.161385
v -0.099682 0.126058 0.161385
v -0.086790 0.111508 0.161385
v -0.086790 0.123422 0.161385
v -0.084095 0.111508 0.161385
v -0.084095 0.123422 0.161385
v -0.084095 0.126058 0.161385
v -0.077925 0.123422 0.161385
v -0.077925 0.111508 0.161385
v -0.077925 0.126058 0.161385
v -0.069060 0.111508 0.161385
v -0.069060 0.123422 0.161385
v -0.071755 0.111508 0.161385
v -0.071755 0.123422 0.161385
v -0.071755 0.126058 0.161385
v -0.058864 0.111508 0.161385
v -0.058864 0.123422 0.161385
v -0.056169 0.111508 0.161385
v -0.056169 0.123422 0.161385
v -0.056169 0.126058 0.161385
v -0.049999 0.123422 0.161385
v -0.049999 0.111508 0.161385
v -0.049999 0.126058 0.161385
v -0.041133 0.111508 0.161385
v -0.041133 0.123422 0.161385
v -0.043828 0.111508 0.161385
v -0.043828 0.123422 0.161385
v -0.043828 0.126058 0.161385
v -0.030937 0.111508 0.161385
v -0.030937 0.123422 0.161385
v -0.028242 0.111508 0.161385
v -0.028242 0.123422 0.161385
v -0.028242 0.126058 0.161385
v -0.022072 0.123422 0.161385
v -0.022072 0.111508 0.161385
v -0.022072 0.126058 0.161385
v -0.013207 0.111508 0.161385
v -0.013207 0.123422 0.161385
v -0.015902 0.111508 0.161385
v -0.015902 0.123422 0.161385
v -0.015902 0.126058 0.161385
v -0.003011 0.111508 0.161385
v -0.003011 0.123422 0.161385
v -0.000315 0.111508 0.161385
v -0.000315 0.123422 0.161385
v -0.000315 0.126058 0.161385
v 0.005855 0.123422 0.161385
v 0.005855 0.111508 0.161385
v 0.005855 0.126058 0.161385
v 0.014720 0.111508 0.161385
v 0.014720 0.123422 0.161385
v 0.012025 0.111508 0.161385
v 0.012025 0.123422 0.161385
v 0.012025 0.126058 0.161385
v 0.024916 0.111508 0.161385
v 0.024916 0.123422 0.161385
v 0.027611 0.111508 0.161385
v 0.027611 0.123422 0.161385
v 0.027611 0.126058 0.161385
v 0.033781 0.123422 0.161385
v 0.033781 0.111508 0.161385
v 0.033781 0.126058 0.161385
v 0.042647 0.111508 0.161385
v 0.042647 0.123422 0.161385
v 0.039952 0.111508 0.161385
v 0.039952 0.123422 0.161385
v 0.039952 0.126058 0.161385
v 0.052843 0.111508 0.161385
v 0.052843 0.123422 0.161385
v 0.055538 0.111508 0.161385
v 0.055538 0.123422 0.161385
v 0.055538 0.126058 0.161385
v 0.061708 0.123422 0.161385
v 0.061708 0.111508 0.161385
v 0.061708 0.126058 0.161385
v 0.070573 0.111508 0.161385
v 0.070573 0.123422 0.161385
v 0.067878 0.111508 0.161385
v 0.067878 0.123422 0.161385
v 0.067878 0.126058 0.161385
v 0.080769 0.111508 0.161385
v 0.080769 0.123422 0.161385
v 0.083465 0.111508 0.161385
v 0.083465 0.123422 0.161385
v 0.083465 0.126058 0.161385
v 0.089635 0.123422 0.161385
v 0.089635 0.111508 0.161385
v 0.089635 0.126058 0.161385
v 0.098500 0.111508 0.161385
v 0.098500 0.123422 0.161385
v 0.095805 0.111508 0.161385
v 0.095805 0.123422 0.161385
v 0.095805 0.126058 0.161385
v -0.114717 0.130424 0.161385
v -0.114717 0.142338 0.161385
v -0.112022 0.130424 0.161385
v -0.112022 0.142338 0.161385
v -0.112022 0.144974 0.161385
v -0.105852 0.142338 0.161385
v -0.105852 0.130424 0.161385
v -0.105852 0.144974 0.161385
v -0.096987 0.130424 0.161385
v -0.096987 0.142338 0.161385
v -0.099682 0.130424 0.161385
v -0.099682 0.142338 0.161385
v -0.099682 0.144974 0.161385
v -0.086790 0.130424 0.161385
v -0.086790 0.142338 0.161385
v -0.084095 0.130424 0.161385
v -0.084095 0.142338 0.161385
v -0.084095 0.144974 0.161385
v -0.077925 0.142338 0.161385
v -0.077925 0.130424 0.161385
v -0.077925 0.144974 0.161385
v -0.069060 0.130424 0.161385
v -0.069060 0.142338 0.161385
v -0.071755 0.130424 0.161385
v -0.071755 0.142338 0.161385
v -0.071755 0.144974 0.161385
v -0.058864 0.130424 0.161385
v -0.058864 0.142338 0.161385
v -0.056169 0.130424 0.161385
v -0.056169 0.142338 0.161385
v -0.056169 0.144974 0.161385
v -0.049999 0.142338 0.161385
v -0.049999 0.130424 0.161385
v -0.049999 0.144974 0.161385
v -0.041133 0.130424 0.161385
v -0.041133 0.142338 0.161385
v -0.043828 0.130424 0.161385
v -0.043828 0.142338 0.161385
v -0.043828 0.144974 0.161385
v -0.030937 0.130424 0.161385
v -0.030937 0.142338 0.161385
v -0.028242 0.130424 0.161385
v -0.028242 0.142338 0.161385
v -0.028242 0.144974 0.161385
v -0.022072 0.142338 0.161385
v -0.022072 0.130424 0.161385
v -0.022072 0.144974 0.161385
v -0.013207 0.130424 0.161385
v -0.013207 0.142338 0.161385
v -0.015902 0.130424 0.161385
v -0.015902 0.142338 0.161385
v -0.015902 0.144974 0.161385
v -0.003011 0.130424 0.161385
v -0.003011 0.142338 0.161385
v -0.000315 0.130424 0.161385
v -0.000315 0.142338 0.161385
v -0.000315 0.144974 0.161385
v 0.005855 0.142338 0.161385
v 0.005855 0.130424 0.161385
v 0.005855 0.144974 0.161385
v 0.014720 0.130424 0.161385
v 0.014720 0.142338 0.161385
v 0.012025 0.130424 0.161385
v 0.012025 0.142338 0.161385
v 0.012025 0.144974 0.161385
v 0.024916 0.130424 0.161385
v 0.024916 0.142338 0.161385
v 0.027611 0.130424 0.161385
v 0.027611 0.142338 0.161385
v 0.027611 0.144974 0.161385
v 0.033781 0.142338 0.161385
v 0.033781 0.130424 0.161385
v 0.033781 0.144974 0.161385
v 0.042647 0.130424 0.161385
v 0.042647 0.142338 0.161385
v 0.039952 0.130424 0.161385
v 0.039952 0.142338 0.161385
v 0.039952 0.144974 0.161385
v 0.052843 0.130424 0.161385
v 0.052843 0.142338 0.161385
v 0.055538 0.130424 0.161385
v 0.055538 0.142338 0.161385
v 0.055538 0.144974 0.161385
v 0.061708 0.142338 0.161385
v 0.061708 0.130424 0.161385
v 0.061708 0.144974 0.161385
v 0.070573 0.130424 0.161385
v 0.070573 0.142338 0.161385
v 0.067878 0.130424 0.161385
v 0.067878 0.142338 0.161385
v 0.067878 0.144974 0.161385
v 0.080769 0.130424 0.161385
v 0.080769 0.142338 0.161385
v 0.083465 0.130424 0.161385
v 0.083465 0.142338 0.161385
v 0.083465 0.144974 0.161385
v 0.089635 0.142338 0.161385
v 0.089635 0.130424 0.161385
v 0.089635 0.144974 0.161385
v 0.098500 0.130424 0.161385
v 0.098500 0.142338 0.161385
v 0.095805 0.130424 0.161385
v 0.095805 0.142338 0.161385
v 0.095805 0.144974 0.161385
v 0.095805 0.142338 0.171129
v 0.095805 0.144974 0.171129
v 0.089635 0.144974 0.171129
v 0.098500 0.142338 0.171129
v 0.098500 0.130424 0.171129
v 0.095805 0.130424 0.171129
v 0.089635 0.130424 0.171129
v 0.089635 0.126058 0.171129
v 0.083465 0.126058 0.171129
v 0.095805 0.126058 0.171129
v 0.098500 0.111508 0.171129
v 0.098500 0.123422 0.171129
v 0.095805 0.123422 0.171129
v 0.095805 0.111508 0.171129
v 0.089635 0.111508 0.171129
v 0.083465 0.111508 0.171129
v 0.083465 0.144974 0.171129
v 0.083465 0.142338 0.171129
v 0.070573 0.130424 0.171129
v 0.070573 0.142338 0.171129
v 0.067878 0.142338 0.171129
v 0.080769 0.142338 0.171129
v 0.080769 0.130424 0.171129
v 0.083465 0.130424 0.171129
v 0.067878 0.130424 0.171129
v 0.083465 0.123422 0.171129
v 0.070573 0.123422 0.171129
v 0.067878 0.123422 0.171129
v 0.067878 0.126058 0.171129
v 0.061708 0.126058 0.171129
v 0.080769 0.123422 0.171129
v 0.080769 0.111508 0.171129
v 0.070573 0.111508 0.171129
v 0.067878 0.111508 0.171129
v 0.061708 0.111508 0.171129
v 0.055538 0.144974 0.171129
v 0.061708 0.144974 0.171129
v 0.067878 0.144974 0.171129
v 0.055538 0.142338 0.171129
v 0.052843 0.130424 0.171129
v 0.052843 0.142338 0.171129
v 0.061708 0.130424 0.171129
v 0.055538 0.130424 0.171129
v 0.055538 0.126058 0.171129
v 0.055538 0.123422 0.171129
v 0.052843 0.123422 0.171129
v 0.052843 0.111508 0.171129
v 0.055538 0.111508 0.171129
v 0.039952 0.144974 0.171129
v 0.033781 0.144974 0.171129
v 0.042647 0.130424 0.171129
v 0.042647 0.142338 0.171129
v 0.039952 0.142338 0.171129
v 0.039952 0.130424 0.171129
v 0.033781 0.130424 0.171129
v 0.039952 0.126058 0.171129
v 0.033781 0.126058 0.171129
v 0.039952 0.123422 0.171129
v 0.027611 0.126058 0.171129
v 0.042647 0.111508 0.171129
v 0.042647 0.123422 0.171129
v 0.039952 0.111508 0.171129
v 0.033781 0.111508 0.171129
v 0.027611 0.111508 0.171129
v 0.027611 0.144974 0.171129
v 0.027611 0.142338 0.171129
v 0.012025 0.144974 0.171129
v 0.012025 0.142338 0.171129
v 0.024916 0.130424 0.171129
v 0.024916 0.142338 0.171129
v 0.014720 0.142338 0.171129
v 0.014720 0.130424 0.171129
v 0.027611 0.130424 0.171129
v 0.012025 0.130424 0.171129
v 0.027611 0.123422 0.171129
v 0.012025 0.123422 0.171129
v 0.012025 0.126058 0.171129
v 0.024916 0.123422 0.171129
v 0.005855 0.126058 0.171129
v 0.024916 0.111508 0.171129
v 0.014720 0.123422 0.171129
v 0.014720 0.111508 0.171129
v 0.012025 0.111508 0.171129
v -0.000315 0.144974 0.171129
v -0.000315 0.142338 0.171129
v 0.005855 0.144974 0.171129
v -0.003011 0.142338 0.171129
v -0.000315 0.130424 0.171129
v -0.003011 0.130424 0.171129
v 0.005855 0.130424 0.171129
v -0.000315 0.123422 0.171129
v -0.000315 0.126058 0.171129
v -0.003011 0.123422 0.171129
v -0.003011 0.111508 0.171129
v 0.005855 0.111508 0.171129
v -0.000315 0.111508 0.171129
v -0.028242 0.144974 0.171129
v -0.015902 0.144974 0.171129
v -0.022072 0.144974 0.171129
v -0.015902 0.142338 0.171129
v -0.013207 0.142338 0.171129
v -0.015902 0.130424 0.171129
v -0.013207 0.130424 0.171129
v -0.015902 0.126058 0.171129
v -0.015902 0.123422 0.171129
v -0.022072 0.130424 0.171129
v -0.028242 0.130424 0.171129
v -0.013207 0.123422 0.171129
v -0.022072 0.126058 0.171129
v -0.013207 0.111508 0.171129
v -0.015902 0.111508 0.171129
v -0.022072 0.111508 0.171129
v -0.028242 0.111508 0.171129
v -0.028242 0.126058 0.171129
v -0.028242 0.142338 0.171129
v -0.030937 0.142338 0.171129
v -0.030937 0.130424 0.171129
v -0.030937 0.111508 0.171129
v -0.028242 0.123422 0.171129
v -0.049999 0.144974 0.171129
v -0.043828 0.144974 0.171129
v -0.041133 0.130424 0.171129
v -0.043828 0.142338 0.171129
v -0.041133 0.142338 0.171129
v -0.043828 0.130424 0.171129
v -0.030937 0.123422 0.171129
v -0.041133 0.123422 0.171129
v -0.041133 0.111508 0.171129
v -0.049999 0.130424 0.171129
v -0.043828 0.123422 0.171129
v -0.043828 0.111508 0.171129
v -0.056169 0.142338 0.171129
v -0.056169 0.144974 0.171129
v -0.058864 0.142338 0.171129
v -0.056169 0.130424 0.171129
v -0.058864 0.130424 0.171129
v -0.043828 0.126058 0.171129
v -0.056169 0.126058 0.171129
v -0.056169 0.123422 0.171129
v -0.049999 0.126058 0.171129
v -0.058864 0.123422 0.171129
v -0.058864 0.111508 0.171129
v -0.049999 0.111508 0.171129
v -0.056169 0.111508 0.171129
v -0.071755 0.142338 0.171129
v -0.077925 0.144974 0.171129
v -0.071755 0.144974 0.171129
v -0.084095 0.144974 0.171129
v -0.069060 0.130424 0.171129
v -0.069060 0.142338 0.171129
v -0.071755 0.130424 0.171129
v -0.084095 0.126058 0.171129
v -0.077925 0.126058 0.171129
v -0.077925 0.130424 0.171129
v -0.071755 0.123422 0.171129
v -0.071755 0.126058 0.171129
v -0.069060 0.123422 0.171129
v -0.069060 0.111508 0.171129
v -0.071755 0.111508 0.171129
v -0.077925 0.111508 0.171129
v -0.084095 0.142338 0.171129
v -0.105852 0.144974 0.171129
v -0.099682 0.144974 0.171129
v -0.096987 0.130424 0.171129
v -0.096987 0.142338 0.171129
v -0.099682 0.142338 0.171129
v -0.086790 0.142338 0.171129
v -0.086790 0.130424 0.171129
v -0.084095 0.130424 0.171129
v -0.084095 0.123422 0.171129
v -0.099682 0.130424 0.171129
v -0.086790 0.123422 0.171129
v -0.096987 0.123422 0.171129
v -0.099682 0.123422 0.171129
v -0.084095 0.111508 0.171129
v -0.086790 0.111508 0.171129
v -0.099682 0.111508 0.171129
v -0.096987 0.111508 0.171129
v -0.112022 0.142338 0.171129
v -0.112022 0.144974 0.171129
v -0.114717 0.130424 0.171129
v -0.114717 0.142338 0.171129
v -0.105852 0.130424 0.171129
v -0.112022 0.130424 0.171129
v -0.112022 0.126058 0.171129
v -0.105852 0.126058 0.171129
v -0.112022 0.123422 0.171129
v -0.099682 0.126058 0.171129
v -0.114717 0.123422 0.171129
v -0.114717 0.111508 0.171129
v -0.105852 0.111508 0.171129
v -0.112022 0.111508 0.171129
v -0.140708 0.108700 0.171129
v -0.142426 0.110916 0.168912
v -0.141923 0.109349 0.170479
v -0.140800 0.149477 0.171129
v -0.140210 0.150665 0.168912
v -0.142426 0.148448 0.168912
v -0.140577 0.150305 0.170494
v -0.141628 0.149959 0.170192
v -0.141777 0.150016 0.168912
v -0.141942 0.149031 0.170487
v -0.142426 0.110916 0.001989
v -0.140655 0.108700 -0.000228
v -0.141907 0.109349 0.000422
v -0.140210 0.150665 0.001989
v -0.140638 0.148448 -0.000228
v -0.142426 0.148448 0.001989
v -0.140424 0.150016 0.000422
v -0.141580 0.149728 0.000709
v -0.141896 0.148448 0.000416
v -0.141777 0.150016 0.001989
v 0.121128 0.110916 0.168912
v 0.118518 0.108700 0.171129
v 0.120364 0.109349 0.170479
v 0.118912 0.150665 0.168912
v 0.118445 0.149678 0.171129
v 0.121128 0.148448 0.168912
v 0.118610 0.150364 0.170496
v 0.120079 0.149978 0.170192
v 0.120348 0.149012 0.170472
v 0.120479 0.150016 0.168912
v 0.121128 0.110916 0.001989
v 0.118560 0.108700 -0.000228
v 0.120376 0.109349 0.000422
v 0.118912 0.150665 0.001989
v 0.121128 0.148448 0.001989
v 0.118574 0.148448 -0.000228
v 0.120549 0.150016 0.001989
v 0.120120 0.149728 0.000709
v 0.120310 0.148448 0.000422
v 0.118743 0.150016 0.000422
vn -0.0000 -1.0000 -0.0000
vn -0.0000 1.0000 -0.0000
vn -0.0000 -0.0000 1.0000
vn 1.0000 -0.0000 -0.0000
vn -1.0000 -0.0000 -0.0000
vn -0.4894 0.5202 0.6999
vn -0.3642 0.9252 0.1067
vn -0.9189 0.3705 0.1355
vn -0.3385 0.8944 -0.2922
vn -0.3730 0.3533 -0.8579
vn -0.9048 0.3339 -0.2644
vn 0.3340 0.9231 0.1908
vn 0.3739 0.4664 0.8017
vn 0.8851 0.3541 0.3021
vn 0.3081 0.8826 -0.3551
vn 0.8697 0.2762 -0.4090
vn 0.3001 0.3002 -0.9054
vn -0.4657 -0.8850 -0.0001
vn -0.9507 -0.3100 -0.0000
vn -0.4806 -0.0008 0.8770
vn -0.9540 -0.0003 0.2998
vn -0.3827 0.9239 -0.0000
vn -0.9239 0.3827 -0.0000
vn -0.4579 0.0001 -0.8890
vn -0.9484 0.0001 -0.3170
vn -0.0000 0.9239 -0.3826
vn -0.0000 0.3828 -0.9238
vn 0.8939 0.0008 -0.4482
vn 0.3433 0.0002 -0.9392
vn 0.3342 -0.9425 0.0001
vn 0.9002 -0.4355 -0.0000
vn 0.3755 0.9268 0.0001
vn 0.9311 0.3649 0.0002
vn 0.3289 0.0004 0.9444
vn 0.8966 0.0002 0.4428
vn -0.0001 0.9790 0.2040
vn -0.0003 0.6418 0.7668
vn -0.0000 -0.0000 -1.0000
vt 0.363301 0.670251
vt 0.363301 0.692788
vt 0.357067 0.692788
vt 0.357067 0.670251
vt 0.139130 0.688725
vt 0.116593 0.688725
vt 0.116593 0.682491
vt 0.139130 0.682491
vt 0.463663 0.647778
vt 0.463663 0.641544
vt 0.491222 0.641543
vt 0.491222 0.647776
vt 0.654781 0.662049
vt 0.632243 0.662049
vt 0.632243 0.647778
vt 0.654781 0.647778
vt 0.491222 0.627272
vt 0.497319 0.627271
vt 0.497319 0.641542
vt 0.413268 0.716352
vt 0.419365 0.716351
vt 0.419365 0.738884
vt 0.413268 0.738885
vt 0.116593 0.668219
vt 0.139130 0.668219
vt 0.463663 0.627273
vt 0.535859 0.670315
vt 0.542093 0.670316
vt 0.542093 0.692853
vt 0.535859 0.692853
vt 0.139130 0.647714
vt 0.139130 0.653948
vt 0.116593 0.653948
vt 0.116593 0.647714
vt 0.463663 0.606768
vt 0.491222 0.606767
vt 0.491222 0.613001
vt 0.463663 0.613002
vt 0.654781 0.676321
vt 0.632243 0.676321
vt 0.497319 0.613000
vt 0.722390 0.726418
vt 0.722390 0.703883
vt 0.728486 0.703882
vt 0.728486 0.726417
vt 0.407171 0.670315
vt 0.407171 0.692852
vt 0.400937 0.692852
vt 0.400937 0.670315
vt 0.352182 0.688725
vt 0.329646 0.688725
vt 0.329646 0.682491
vt 0.352182 0.682491
vt 0.497319 0.647778
vt 0.497319 0.641544
vt 0.524877 0.641543
vt 0.524877 0.647776
vt 0.587168 0.690593
vt 0.564631 0.690593
vt 0.564631 0.676321
vt 0.587168 0.676321
vt 0.524877 0.627272
vt 0.530975 0.627271
vt 0.530975 0.641542
vt 0.296770 0.716289
vt 0.302867 0.716287
vt 0.302867 0.738820
vt 0.296770 0.738821
vt 0.329646 0.668220
vt 0.352183 0.668220
vt 0.497319 0.627273
vt 0.385839 0.674316
vt 0.392073 0.674316
vt 0.392073 0.696854
vt 0.385839 0.696854
vt 0.352183 0.647714
vt 0.352183 0.653948
vt 0.329646 0.653948
vt 0.329646 0.647714
vt 0.497319 0.606768
vt 0.524877 0.606767
vt 0.524877 0.613001
vt 0.497319 0.613002
vt 0.587168 0.704865
vt 0.564631 0.704865
vt 0.530975 0.613000
vt 0.722390 0.703882
vt 0.722390 0.681348
vt 0.728486 0.681347
vt 0.728486 0.703881
vt 0.392073 0.606703
vt 0.392073 0.629240
vt 0.385839 0.629241
vt 0.385839 0.606703
vt 0.497319 0.688789
vt 0.474782 0.688789
vt 0.474782 0.682555
vt 0.497319 0.682555
vt 0.430007 0.647778
vt 0.430007 0.641544
vt 0.457566 0.641543
vt 0.457566 0.647776
vt 0.710673 0.633507
vt 0.688135 0.633507
vt 0.688135 0.619235
vt 0.710673 0.619235
vt 0.457566 0.627272
vt 0.463663 0.627271
vt 0.463663 0.641542
vt 0.369399 0.716288
vt 0.375495 0.716287
vt 0.375495 0.738820
vt 0.369399 0.738821
vt 0.474782 0.668283
vt 0.497319 0.668283
vt 0.430007 0.627273
vt 0.155133 0.647714
vt 0.161367 0.647714
vt 0.161367 0.670252
vt 0.155133 0.670251
vt 0.497319 0.647778
vt 0.497319 0.654012
vt 0.474782 0.654012
vt 0.474782 0.647778
vt 0.430007 0.606768
vt 0.457566 0.606767
vt 0.457566 0.613001
vt 0.430007 0.613002
vt 0.710673 0.647778
vt 0.688135 0.647778
vt 0.463663 0.613000
vt 0.400937 0.715388
vt 0.400937 0.692853
vt 0.407034 0.692852
vt 0.407034 0.715387
vt 0.233562 0.647714
vt 0.233562 0.670251
vt 0.227329 0.670251
vt 0.227329 0.647714
vt 0.284871 0.688725
vt 0.262334 0.688725
vt 0.262334 0.682491
vt 0.284871 0.682491
vt 0.262334 0.647714
vt 0.262334 0.641480
vt 0.289892 0.641479
vt 0.289892 0.647712
vt 0.262334 0.702997
vt 0.239797 0.702997
vt 0.239797 0.688725
vt 0.262334 0.688725
vt 0.289892 0.627208
vt 0.295990 0.627207
vt 0.295990 0.641478
vt 0.379739 0.716288
vt 0.385836 0.716287
vt 0.385836 0.738819
vt 0.379739 0.738821
vt 0.262334 0.668220
vt 0.284871 0.668220
vt 0.262334 0.627209
vt 0.357067 0.647714
vt 0.363301 0.647714
vt 0.363301 0.670252
vt 0.357067 0.670252
vt 0.284871 0.647714
vt 0.284871 0.653948
vt 0.262334 0.653948
vt 0.262334 0.647714
vt 0.262334 0.606704
vt 0.289892 0.606703
vt 0.289892 0.612937
vt 0.262334 0.612938
vt 0.262334 0.717268
vt 0.239797 0.717268
vt 0.295990 0.612936
vt 0.394841 0.715388
vt 0.394841 0.692854
vt 0.400937 0.692853
vt 0.400937 0.715387
vt 0.323411 0.647714
vt 0.323411 0.670251
vt 0.317178 0.670251
vt 0.317178 0.647714
vt 0.183903 0.688725
vt 0.161367 0.688725
vt 0.161367 0.682491
vt 0.183903 0.682491
vt 0.161367 0.647714
vt 0.161367 0.641480
vt 0.188925 0.641479
vt 0.188925 0.647712
vt 0.587168 0.662049
vt 0.564631 0.662050
vt 0.564630 0.647778
vt 0.587168 0.647778
vt 0.188925 0.627208
vt 0.195022 0.627208
vt 0.195022 0.641479
vt 0.363302 0.716288
vt 0.369399 0.716287
vt 0.369399 0.738819
vt 0.363302 0.738821
vt 0.161367 0.668220
vt 0.183903 0.668220
vt 0.161367 0.627209
vt 0.098352 0.688724
vt 0.104586 0.688724
vt 0.104586 0.711261
vt 0.098352 0.711262
vt 0.183903 0.647714
vt 0.183903 0.653948
vt 0.161367 0.653948
vt 0.161367 0.647714
vt 0.161367 0.606704
vt 0.188925 0.606703
vt 0.188925 0.612937
vt 0.161367 0.612938
vt 0.587168 0.676321
vt 0.564630 0.676321
vt 0.195022 0.612936
vt 0.535859 0.715388
vt 0.535859 0.692854
vt 0.541956 0.692852
vt 0.541956 0.715387
vt 0.407171 0.647777
vt 0.407171 0.670315
vt 0.400937 0.670315
vt 0.400937 0.647777
vt 0.262333 0.688725
vt 0.239796 0.688725
vt 0.239796 0.682491
vt 0.262333 0.682491
vt 0.127711 0.647714
vt 0.127711 0.641480
vt 0.155269 0.641479
vt 0.155269 0.647713
vt 0.699856 0.690593
vt 0.677318 0.690593
vt 0.677318 0.676321
vt 0.699856 0.676321
vt 0.155269 0.627208
vt 0.161367 0.627208
vt 0.161367 0.641479
vt 0.519993 0.715391
vt 0.526090 0.715390
vt 0.526090 0.737922
vt 0.519993 0.737924
vt 0.239797 0.668219
vt 0.262334 0.668219
vt 0.127711 0.627209
vt 0.529625 0.670316
vt 0.535859 0.670315
vt 0.535859 0.692853
vt 0.529625 0.692853
vt 0.262334 0.647714
vt 0.262334 0.653948
vt 0.239797 0.653948
vt 0.239797 0.647714
vt 0.127711 0.606705
vt 0.155269 0.606703
vt 0.155269 0.612937
vt 0.127711 0.612938
vt 0.699856 0.704864
vt 0.677318 0.704864
vt 0.161367 0.612936
vt 0.529762 0.715388
vt 0.529762 0.692854
vt 0.535859 0.692853
vt 0.535859 0.715387
vt 0.400937 0.670315
vt 0.394704 0.670314
vt 0.394704 0.647777
vt 0.688135 0.647778
vt 0.665598 0.647778
vt 0.665598 0.641544
vt 0.688135 0.641544
vt 0.195022 0.647714
vt 0.195022 0.641480
vt 0.222581 0.641479
vt 0.222581 0.647713
vt 0.609706 0.662049
vt 0.609706 0.647778
vt 0.222581 0.627208
vt 0.228678 0.627208
vt 0.228678 0.641479
vt 0.284576 0.716288
vt 0.290673 0.716286
vt 0.290673 0.738819
vt 0.284576 0.738820
vt 0.665598 0.627273
vt 0.688135 0.627273
vt 0.195022 0.627209
vt 0.535859 0.647778
vt 0.542093 0.647778
vt 0.542093 0.670315
vt 0.535859 0.670315
vt 0.688135 0.606767
vt 0.688135 0.613001
vt 0.665598 0.613001
vt 0.665598 0.606767
vt 0.195022 0.606705
vt 0.222581 0.606703
vt 0.222581 0.612937
vt 0.195022 0.612938
vt 0.632243 0.676321
vt 0.609706 0.676321
vt 0.228678 0.612936
vt 0.385976 0.719389
vt 0.385976 0.696855
vt 0.392073 0.696853
vt 0.392073 0.719388
vt 0.155133 0.647714
vt 0.155133 0.670252
vt 0.148899 0.670252
vt 0.148899 0.647714
vt 0.385840 0.647714
vt 0.363303 0.647715
vt 0.363303 0.641481
vt 0.385840 0.641481
vt 0.295990 0.647714
vt 0.295990 0.641480
vt 0.323548 0.641479
vt 0.323548 0.647712
vt 0.654781 0.690593
vt 0.632244 0.690593
vt 0.323548 0.627208
vt 0.329645 0.627207
vt 0.329645 0.641478
vt 0.290673 0.716288
vt 0.296770 0.716286
vt 0.296770 0.738819
vt 0.290673 0.738820
vt 0.363303 0.627209
vt 0.385840 0.627209
vt 0.295990 0.627209
vt 0.278342 0.688724
vt 0.284576 0.688724
vt 0.284576 0.711262
vt 0.278342 0.711262
vt 0.385840 0.606703
vt 0.385840 0.612937
vt 0.363303 0.612937
vt 0.363303 0.606703
vt 0.295990 0.606704
vt 0.323548 0.606703
vt 0.323548 0.612937
vt 0.295990 0.612938
vt 0.654781 0.704864
vt 0.632244 0.704864
vt 0.329645 0.612936
vt 0.357204 0.737862
vt 0.357204 0.715327
vt 0.363301 0.715326
vt 0.363301 0.737861
vt 0.148899 0.647714
vt 0.148899 0.670252
vt 0.142665 0.670251
vt 0.142665 0.647714
vt 0.452245 0.688789
vt 0.429708 0.688789
vt 0.429708 0.682555
vt 0.452245 0.682555
vt 0.631942 0.647778
vt 0.631942 0.641544
vt 0.659500 0.641543
vt 0.659500 0.647776
vt 0.632244 0.690593
vt 0.609706 0.690593
vt 0.609706 0.676321
vt 0.632243 0.676321
vt 0.659500 0.627272
vt 0.665597 0.627271
vt 0.665597 0.641542
vt 0.400937 0.715390
vt 0.407034 0.715389
vt 0.407034 0.737921
vt 0.400937 0.737922
vt 0.429708 0.668283
vt 0.452245 0.668283
vt 0.631942 0.627273
vt 0.272108 0.688724
vt 0.278342 0.688725
vt 0.278342 0.711262
vt 0.272108 0.711262
vt 0.452245 0.647778
vt 0.452245 0.654011
vt 0.429708 0.654011
vt 0.429708 0.647777
vt 0.631942 0.606768
vt 0.659500 0.606767
vt 0.659500 0.613001
vt 0.631942 0.613002
vt 0.632244 0.704865
vt 0.609706 0.704865
vt 0.665597 0.613000
vt 0.722390 0.676321
vt 0.722390 0.653786
vt 0.728486 0.653785
vt 0.728486 0.676320
vt 0.400937 0.670314
vt 0.400937 0.692852
vt 0.394703 0.692852
vt 0.394703 0.670315
vt 0.385838 0.688725
vt 0.363301 0.688725
vt 0.363301 0.682491
vt 0.385838 0.682491
vt 0.564630 0.647778
vt 0.564630 0.641544
vt 0.592189 0.641543
vt 0.592189 0.647776
vt 0.542093 0.690593
vt 0.542093 0.676321
vt 0.592189 0.627272
vt 0.598286 0.627271
vt 0.598286 0.641542
vt 0.419365 0.716352
vt 0.425462 0.716350
vt 0.425462 0.738883
vt 0.419365 0.738884
vt 0.363302 0.668220
vt 0.385839 0.668220
vt 0.564630 0.627273
vt 0.265874 0.688724
vt 0.265874 0.711262
vt 0.385839 0.647714
vt 0.385839 0.653948
vt 0.363302 0.653948
vt 0.363302 0.647714
vt 0.564630 0.606768
vt 0.592189 0.606767
vt 0.592189 0.613001
vt 0.564630 0.613002
vt 0.564631 0.704865
vt 0.542093 0.704865
vt 0.598286 0.613000
vt 0.098489 0.733798
vt 0.098489 0.711263
vt 0.104586 0.711262
vt 0.104586 0.733797
vt 0.392073 0.629241
vt 0.392073 0.651778
vt 0.385839 0.651778
vt 0.385839 0.629241
vt 0.474782 0.688789
vt 0.452246 0.688789
vt 0.452246 0.682555
vt 0.474782 0.682555
vt 0.598286 0.647778
vt 0.598286 0.641544
vt 0.625845 0.641543
vt 0.625845 0.647776
vt 0.239797 0.702997
vt 0.217259 0.702997
vt 0.217259 0.688725
vt 0.625845 0.627272
vt 0.631942 0.627271
vt 0.631942 0.641542
vt 0.425462 0.716352
vt 0.431559 0.716351
vt 0.431559 0.738883
vt 0.425462 0.738884
vt 0.452245 0.668283
vt 0.474782 0.668283
vt 0.598286 0.627273
vt 0.233562 0.647714
vt 0.239796 0.647714
vt 0.239796 0.670251
vt 0.233562 0.670251
vt 0.474783 0.647778
vt 0.474783 0.654012
vt 0.452246 0.654012
vt 0.452246 0.647778
vt 0.598286 0.606768
vt 0.625845 0.606767
vt 0.625845 0.613001
vt 0.598286 0.613002
vt 0.239797 0.717268
vt 0.217259 0.717268
vt 0.631942 0.613000
vt 0.278479 0.733797
vt 0.278479 0.711263
vt 0.284576 0.711262
vt 0.284576 0.733796
vt 0.223794 0.647714
vt 0.223794 0.670251
vt 0.217560 0.670252
vt 0.217560 0.647714
vt 0.307409 0.688725
vt 0.284872 0.688725
vt 0.284872 0.682491
vt 0.307409 0.682491
vt 0.530975 0.647778
vt 0.530975 0.641544
vt 0.558533 0.641543
vt 0.558533 0.647776
vt 0.352183 0.702997
vt 0.329646 0.702997
vt 0.329646 0.688725
vt 0.352183 0.688725
vt 0.558533 0.627272
vt 0.564630 0.627271
vt 0.564630 0.641542
vt 0.394841 0.715390
vt 0.400937 0.715389
vt 0.400937 0.737921
vt 0.394841 0.737923
vt 0.284872 0.668219
vt 0.307409 0.668219
vt 0.530975 0.627273
vt 0.183904 0.647714
vt 0.190138 0.647714
vt 0.190138 0.670252
vt 0.183904 0.670251
vt 0.307409 0.647714
vt 0.307409 0.653948
vt 0.284872 0.653948
vt 0.284872 0.647714
vt 0.530975 0.606768
vt 0.558533 0.606767
vt 0.558533 0.613001
vt 0.530975 0.613002
vt 0.352183 0.717268
vt 0.329646 0.717268
vt 0.564630 0.613000
vt 0.272245 0.733799
vt 0.272245 0.711264
vt 0.278342 0.711263
vt 0.278342 0.733797
vt 0.317178 0.647714
vt 0.310944 0.670252
vt 0.310944 0.647714
vt 0.217560 0.688725
vt 0.195023 0.688725
vt 0.195023 0.682491
vt 0.217560 0.682491
vt 0.329645 0.647714
vt 0.329645 0.641480
vt 0.357204 0.641479
vt 0.357204 0.647712
vt 0.609706 0.662049
vt 0.587168 0.662050
vt 0.587168 0.647778
vt 0.609705 0.647778
vt 0.357204 0.627208
vt 0.363301 0.627208
vt 0.363301 0.641479
vt 0.535859 0.715391
vt 0.541956 0.715389
vt 0.541956 0.737922
vt 0.535859 0.737923
vt 0.195023 0.668219
vt 0.217560 0.668219
vt 0.329645 0.627209
vt 0.357067 0.692789
vt 0.363301 0.692789
vt 0.363301 0.715326
vt 0.357067 0.715326
vt 0.217560 0.647714
vt 0.217560 0.653948
vt 0.195023 0.653948
vt 0.195023 0.647714
vt 0.329645 0.606705
vt 0.357204 0.606703
vt 0.357204 0.612937
vt 0.329645 0.612938
vt 0.609705 0.676321
vt 0.587168 0.676321
vt 0.363301 0.612936
vt 0.266011 0.733798
vt 0.266011 0.711263
vt 0.272108 0.711262
vt 0.272108 0.733797
vt 0.526090 0.647778
vt 0.526090 0.670315
vt 0.519856 0.670315
vt 0.519856 0.647777
vt 0.519855 0.688789
vt 0.497318 0.688789
vt 0.497318 0.682555
vt 0.519855 0.682555
vt 0.228678 0.647714
vt 0.228678 0.641480
vt 0.256237 0.641479
vt 0.256237 0.647713
vt 0.609706 0.690593
vt 0.587169 0.690593
vt 0.587169 0.676321
vt 0.609706 0.676321
vt 0.256237 0.627208
vt 0.262334 0.627208
vt 0.262334 0.641479
vt 0.407171 0.716352
vt 0.413268 0.716351
vt 0.413268 0.738883
vt 0.407171 0.738885
vt 0.497319 0.668284
vt 0.519855 0.668283
vt 0.228678 0.627209
vt 0.323411 0.647714
vt 0.329645 0.647714
vt 0.329645 0.670251
vt 0.323411 0.670252
vt 0.519855 0.647778
vt 0.519855 0.654011
vt 0.497318 0.654012
vt 0.497318 0.647778
vt 0.228678 0.606705
vt 0.256237 0.606703
vt 0.256237 0.612937
vt 0.228678 0.612938
vt 0.609706 0.704865
vt 0.587169 0.704865
vt 0.262334 0.612936
vt 0.728486 0.698856
vt 0.728486 0.676322
vt 0.734583 0.676320
vt 0.734583 0.698855
vt 0.392073 0.651779
vt 0.392073 0.674316
vt 0.385839 0.674316
vt 0.385839 0.651778
vt 0.429708 0.688789
vt 0.407171 0.688789
vt 0.407171 0.682555
vt 0.429708 0.682555
vt 0.094055 0.647714
vt 0.094055 0.641480
vt 0.121614 0.641479
vt 0.121614 0.647713
vt 0.564631 0.662049
vt 0.542093 0.662049
vt 0.542093 0.647778
vt 0.564631 0.647778
vt 0.121614 0.627208
vt 0.127711 0.627208
vt 0.127711 0.641479
vt 0.431559 0.716352
vt 0.437656 0.716351
vt 0.437656 0.738884
vt 0.431559 0.738885
vt 0.407171 0.668283
vt 0.429708 0.668283
vt 0.094055 0.627209
vt 0.529625 0.647778
vt 0.535859 0.647777
vt 0.535859 0.670315
vt 0.529625 0.670315
vt 0.429708 0.647778
vt 0.429708 0.654012
vt 0.407171 0.654012
vt 0.407171 0.647778
vt 0.094055 0.606704
vt 0.121614 0.606703
vt 0.121614 0.612937
vt 0.094055 0.612938
vt 0.564631 0.676321
vt 0.542093 0.676321
vt 0.127711 0.612936
vt 0.728486 0.721392
vt 0.728486 0.698857
vt 0.734583 0.698856
vt 0.734583 0.721391
vt 0.526090 0.670315
vt 0.526090 0.692852
vt 0.519856 0.692852
vt 0.519856 0.670314
vt 0.116592 0.688725
vt 0.094055 0.688725
vt 0.094055 0.682491
vt 0.116592 0.682491
vt 0.396352 0.647778
vt 0.396352 0.641544
vt 0.423910 0.641543
vt 0.423910 0.647776
vt 0.677318 0.690593
vt 0.677318 0.676321
vt 0.423910 0.627272
vt 0.430007 0.627271
vt 0.430007 0.641542
vt 0.529762 0.715391
vt 0.535859 0.715389
vt 0.535859 0.737922
vt 0.529762 0.737923
vt 0.094055 0.668219
vt 0.116592 0.668219
vt 0.396352 0.627273
vt 0.519856 0.692852
vt 0.526090 0.715390
vt 0.519856 0.715390
vt 0.116592 0.647714
vt 0.116592 0.653948
vt 0.094055 0.653948
vt 0.094055 0.647714
vt 0.396352 0.606768
vt 0.423910 0.606767
vt 0.423910 0.613001
vt 0.396352 0.613002
vt 0.677318 0.704864
vt 0.430007 0.613000
vt 0.728486 0.676321
vt 0.728486 0.653786
vt 0.734583 0.653785
vt 0.734583 0.676320
vt 0.217257 0.743849
vt 0.194725 0.743844
vt 0.194725 0.716286
vt 0.217257 0.716291
vt 0.149655 0.688725
vt 0.172190 0.688729
vt 0.172190 0.716286
vt 0.149655 0.716282
vt 0.329643 0.743849
vt 0.307111 0.743844
vt 0.307111 0.716286
vt 0.329643 0.716291
vt 0.284576 0.688725
vt 0.307111 0.688729
vt 0.307111 0.716286
vt 0.284576 0.716282
vt 0.722388 0.676321
vt 0.699855 0.676316
vt 0.699855 0.648758
vt 0.722388 0.648763
vt 0.722387 0.731445
vt 0.699855 0.731440
vt 0.699855 0.703882
vt 0.722387 0.703887
vt 0.654780 0.648760
vt 0.677315 0.648764
vt 0.677315 0.676321
vt 0.654780 0.676317
vt 0.104586 0.688725
vt 0.127121 0.688729
vt 0.127121 0.716286
vt 0.104586 0.716282
vt 0.677318 0.648760
vt 0.699852 0.648764
vt 0.699852 0.676321
vt 0.677318 0.676317
vt 0.677312 0.732427
vt 0.654780 0.732422
vt 0.654780 0.704864
vt 0.677312 0.704869
vt 0.654780 0.732427
vt 0.632247 0.732422
vt 0.632247 0.704864
vt 0.654780 0.704869
vt 0.363302 0.688726
vt 0.385837 0.688730
vt 0.385837 0.716287
vt 0.363302 0.716283
vt 0.172187 0.743849
vt 0.149655 0.743844
vt 0.149655 0.716286
vt 0.172187 0.716291
vt 0.194725 0.688725
vt 0.217259 0.688729
vt 0.217259 0.716286
vt 0.194725 0.716282
vt 0.632243 0.732427
vt 0.609710 0.732422
vt 0.609710 0.704864
vt 0.632243 0.704869
vt 0.699850 0.732427
vt 0.677318 0.732422
vt 0.677318 0.704864
vt 0.699850 0.704869
vt 0.407171 0.688789
vt 0.429706 0.688793
vt 0.429706 0.716350
vt 0.407171 0.716346
vt 0.194725 0.743849
vt 0.172192 0.743844
vt 0.172192 0.716286
vt 0.194725 0.716291
vt 0.587162 0.732427
vt 0.564630 0.732422
vt 0.564630 0.704865
vt 0.587162 0.704870
vt 0.429708 0.688789
vt 0.452243 0.688793
vt 0.452243 0.716350
vt 0.429708 0.716346
vt 0.564625 0.732427
vt 0.542093 0.732422
vt 0.542093 0.704865
vt 0.564625 0.704870
vt 0.609695 0.732427
vt 0.587162 0.732422
vt 0.587162 0.704865
vt 0.609695 0.704870
vt 0.474782 0.688789
vt 0.497317 0.688793
vt 0.497317 0.716350
vt 0.474782 0.716346
vt 0.733205 0.646797
vt 0.710672 0.646792
vt 0.710672 0.619235
vt 0.733205 0.619240
vt 0.127121 0.688725
vt 0.149655 0.688729
vt 0.149655 0.716286
vt 0.127121 0.716282
vt 0.127118 0.743849
vt 0.104586 0.743844
vt 0.104586 0.716286
vt 0.127118 0.716291
vt 0.452245 0.688789
vt 0.474780 0.688793
vt 0.474780 0.716350
vt 0.452245 0.716346
vt 0.497319 0.688789
vt 0.519854 0.688793
vt 0.519854 0.716350
vt 0.497319 0.716346
vt 0.172190 0.688725
vt 0.194725 0.688729
vt 0.194725 0.716286
vt 0.172190 0.716282
vt 0.307111 0.688725
vt 0.329645 0.688729
vt 0.329645 0.716286
vt 0.307111 0.716282
vt 0.699855 0.676321
vt 0.722390 0.676325
vt 0.722390 0.703882
vt 0.699855 0.703878
vt 0.149653 0.743849
vt 0.127121 0.743844
vt 0.149653 0.716291
vt 0.884187 0.604012
vt 0.886110 0.603509
vt 0.885312 0.605947
vt 0.883163 0.606666
vt 0.400004 0.603139
vt 0.400015 0.606766
vt 0.397056 0.606422
vt 0.396352 0.603990
vt 0.880152 0.610290
vt 0.881512 0.606665
vt 0.883666 0.607359
vt 0.883793 0.610313
vt 0.786091 0.603140
vt 0.789728 0.603637
vt 0.789068 0.606312
vt 0.786103 0.606767
vt 0.889950 0.603194
vt 0.889675 0.606150
vt 0.886641 0.605424
vt 0.886110 0.602726
vt 0.880152 0.996339
vt 0.883793 0.996362
vt 0.883133 0.999330
vt 0.880165 0.999997
vt 0.400010 0.003785
vt 0.396352 0.004483
vt 0.397062 0.001085
vt 0.400021 0.000161
vt 0.884514 0.004397
vt 0.882981 0.000011
vt 0.885219 0.000638
vt 0.886110 0.004030
vt 0.090415 0.996296
vt 0.094055 0.996327
vt 0.093977 0.999307
vt 0.091736 0.999942
vt 0.786097 0.003786
vt 0.786108 0.000000
vt 0.789074 0.000993
vt 0.789733 0.004178
vt 0.090415 0.610287
vt 0.090434 0.606703
vt 0.093399 0.607377
vt 0.094054 0.610315
vt 0.889950 0.003965
vt 0.886110 0.003601
vt 0.886641 0.000443
vt 0.889673 0.000000
vt 0.396352 0.002935
vt 0.000001 0.002813
vt 0.001503 -0.000000
vt 0.394851 0.000036
vt 0.789733 0.999999
vt 0.789733 0.606700
vt 0.793345 0.610305
vt 0.793345 0.996354
vt 0.789869 0.603824
vt 0.791379 0.606648
vt 0.980307 0.603800
vt 0.978554 0.606735
vt 0.003607 0.610306
vt -0.000000 0.606720
vt 0.978554 0.000405
vt 0.980307 0.004563
vt 0.000001 0.602409
vt 0.396352 0.602506
vt 0.394851 0.606703
vt 0.001503 0.606675
vt -0.000000 0.999978
vt 0.003607 0.996315
vt 0.789733 0.004254
vt 0.791241 -0.000000
vt 0.823796 0.050546
vt 0.796238 0.050553
vt 0.796239 0.056787
vt 0.796242 0.071058
vt 0.796246 0.085329
vt 0.796247 0.091563
vt 0.796253 0.115146
vt 0.796254 0.121379
vt 0.796257 0.135650
vt 0.796260 0.149921
vt 0.796262 0.156155
vt 0.796267 0.179738
vt 0.796269 0.185971
vt 0.796272 0.200242
vt 0.796275 0.214513
vt 0.796277 0.220747
vt 0.796282 0.244330
vt 0.796283 0.250563
vt 0.796287 0.264834
vt 0.796290 0.279105
vt 0.796291 0.285339
vt 0.796297 0.308922
vt 0.796298 0.315155
vt 0.796301 0.329426
vt 0.796305 0.343698
vt 0.796306 0.349931
vt 0.796311 0.373514
vt 0.796313 0.379748
vt 0.796316 0.394019
vt 0.796319 0.408290
vt 0.796321 0.414523
vt 0.796326 0.438106
vt 0.796327 0.444340
vt 0.796331 0.458611
vt 0.796334 0.472882
vt 0.796335 0.479115
vt 0.796341 0.502698
vt 0.796342 0.508932
vt 0.796345 0.523203
vt 0.796349 0.537474
vt 0.796350 0.543707
vt 0.823909 0.543700
vt 0.823907 0.537466
vt 0.830004 0.537464
vt 0.830001 0.523193
vt 0.829998 0.508922
vt 0.823901 0.508924
vt 0.823899 0.502690
vt 0.823894 0.479108
vt 0.823892 0.472874
vt 0.829990 0.472872
vt 0.829986 0.458601
vt 0.829983 0.444330
vt 0.823886 0.444332
vt 0.823885 0.438098
vt 0.823879 0.414516
vt 0.823878 0.408282
vt 0.829975 0.408280
vt 0.829972 0.394009
vt 0.829968 0.379738
vt 0.823871 0.379740
vt 0.823870 0.373506
vt 0.823865 0.349924
vt 0.823863 0.343690
vt 0.829960 0.343688
vt 0.829957 0.329417
vt 0.829954 0.315146
vt 0.823857 0.315148
vt 0.823855 0.308914
vt 0.823850 0.285331
vt 0.823848 0.279098
vt 0.829946 0.279096
vt 0.829942 0.264825
vt 0.829939 0.250554
vt 0.823842 0.250556
vt 0.823840 0.244322
vt 0.823835 0.220739
vt 0.823834 0.214506
vt 0.829931 0.214504
vt 0.829928 0.200233
vt 0.829924 0.185962
vt 0.823827 0.185964
vt 0.823826 0.179730
vt 0.823820 0.156147
vt 0.823819 0.149914
vt 0.829916 0.149912
vt 0.829913 0.135641
vt 0.829910 0.121370
vt 0.823813 0.121372
vt 0.823811 0.115138
vt 0.823806 0.091555
vt 0.823804 0.085322
vt 0.829902 0.085320
vt 0.829898 0.071049
vt 0.829895 0.056778
vt 0.823798 0.056779
vt 0.867549 0.050534
vt 0.839990 0.050541
vt 0.839992 0.056775
vt 0.839995 0.071046
vt 0.839998 0.085317
vt 0.840000 0.091551
vt 0.840005 0.115133
vt 0.840006 0.121367
vt 0.840010 0.135638
vt 0.840013 0.149909
vt 0.840014 0.156143
vt 0.840020 0.179726
vt 0.840021 0.185959
vt 0.840024 0.200230
vt 0.840028 0.214501
vt 0.840029 0.220735
vt 0.840034 0.244318
vt 0.840036 0.250551
vt 0.840039 0.264822
vt 0.840042 0.279093
vt 0.840044 0.285327
vt 0.840049 0.308910
vt 0.840050 0.315143
vt 0.840054 0.329414
vt 0.840057 0.343685
vt 0.840058 0.349919
vt 0.840064 0.373502
vt 0.840065 0.379735
vt 0.840068 0.394006
vt 0.840072 0.408278
vt 0.840073 0.414511
vt 0.840078 0.438094
vt 0.840080 0.444328
vt 0.840083 0.458599
vt 0.840086 0.472870
vt 0.840088 0.479103
vt 0.840093 0.502686
vt 0.840095 0.508920
vt 0.840098 0.523191
vt 0.840101 0.537462
vt 0.840102 0.543695
vt 0.867661 0.543688
vt 0.867660 0.537454
vt 0.873757 0.537452
vt 0.873754 0.523181
vt 0.873750 0.508910
vt 0.867653 0.508912
vt 0.867652 0.502678
vt 0.867646 0.479096
vt 0.867645 0.472862
vt 0.873742 0.472860
vt 0.873739 0.458589
vt 0.873736 0.444318
vt 0.867639 0.444320
vt 0.867637 0.438086
vt 0.867632 0.414504
vt 0.867630 0.408270
vt 0.873727 0.408268
vt 0.873724 0.393997
vt 0.873721 0.379726
vt 0.867624 0.379728
vt 0.867622 0.373494
vt 0.867617 0.349911
vt 0.867616 0.343678
vt 0.873713 0.343676
vt 0.873709 0.329405
vt 0.873706 0.315134
vt 0.867609 0.315136
vt 0.867608 0.308902
vt 0.867602 0.285319
vt 0.867601 0.279086
vt 0.873698 0.279084
vt 0.873695 0.264813
vt 0.873691 0.250542
vt 0.867594 0.250544
vt 0.867593 0.244310
vt 0.867588 0.220727
vt 0.867586 0.214494
vt 0.873683 0.214492
vt 0.873680 0.200221
vt 0.873677 0.185950
vt 0.867580 0.185952
vt 0.867578 0.179718
vt 0.867573 0.156135
vt 0.867572 0.149902
vt 0.873669 0.149900
vt 0.873665 0.135629
vt 0.873662 0.121358
vt 0.867565 0.121359
vt 0.867564 0.115126
vt 0.867558 0.091543
vt 0.867557 0.085309
vt 0.873654 0.085308
vt 0.873651 0.071037
vt 0.873647 0.056766
vt 0.867550 0.056767
s 0
usemtl server
f 112/368/1 370/369/1 388/370/1 109/371/1
f 112/368/1 117/394/1 371/395/1 370/369/1
f 125/59/1 354/413/1 356/414/1 122/60/1
f 125/59/1 130/435/1 355/436/1 354/413/1
f 138/454/1 328/455/1 341/456/1 135/150/1
f 138/454/1 143/479/1 329/480/1 328/455/1
f 151/498/1 307/499/1 305/500/1 148/501/1
f 151/498/1 156/524/1 306/525/1 307/499/1
f 164/542/1 294/543/1 292/544/1 161/545/1
f 164/542/1 169/568/1 275/569/1 294/543/1
f 177/587/1 258/588/1 273/589/1 174/590/1
f 177/587/1 182/613/1 257/614/1 258/588/1
f 190/632/1 245/633/1 244/634/1 187/635/1
f 190/632/1 195/658/1 246/659/1 245/633/1
f 203/677/1 211/325/1 225/39/1 200/678/1
f 203/677/1 208/700/1 210/349/1 211/325/1
f 404/833/6 407/834/6 408/835/6 410/836/6
f 405/837/7 409/838/7 408/839/7 407/840/7
f 406/841/8 410/842/8 408/843/8 409/844/8
f 414/845/9 417/846/9 418/847/9 420/848/9
f 415/849/10 419/850/10 418/851/10 417/852/10
f 416/853/11 420/854/11 418/855/11 419/856/11
f 424/857/12 427/858/12 428/859/12 430/860/12
f 425/861/13 429/862/13 428/863/13 427/864/13
f 426/865/14 430/866/14 428/867/14 429/868/14
f 434/869/15 437/870/15 438/871/15 440/872/15
f 435/873/16 439/874/16 438/875/16 437/876/16
f 436/877/17 440/878/17 438/879/17 439/880/17
f 412/881/18 401/882/18 403/883/18 413/884/18
f 413/885/19 403/886/19 402/887/19 411/888/19
f 401/889/20 404/833/20 410/836/20 403/890/20
f 403/886/21 410/842/21 406/841/21 402/887/21
f 405/837/22 414/845/22 420/848/22 409/838/22
f 409/844/23 420/854/23 416/853/23 406/841/23
f 415/849/24 412/891/24 413/892/24 419/850/24
f 419/856/25 413/885/25 411/888/25 416/853/25
f 414/845/26 434/869/26 440/872/26 417/846/26
f 417/852/27 440/878/27 436/877/27 415/849/27
f 435/873/28 431/893/28 433/894/28 439/874/28
f 439/880/29 433/895/29 432/896/29 436/877/29
f 422/897/30 432/898/30 433/899/30 423/900/30
f 423/901/31 433/894/31 431/893/31 421/902/31
f 434/869/32 424/857/32 430/860/32 437/870/32
f 437/876/33 430/866/33 426/865/33 435/873/33
f 425/861/34 422/903/34 423/904/34 429/862/34
f 429/868/35 423/901/35 421/902/35 426/865/35
f 424/857/36 405/837/36 407/840/36 427/858/36
f 427/864/37 407/834/37 404/833/37 425/861/37
f 412/881/1 432/898/1 422/897/1 401/882/1
f 402/887/5 406/841/5 416/853/5 411/888/5
f 422/903/3 220/905/3 219/906/3 222/907/3 223/908/3 224/909/3 240/910/3 241/911/3 242/912/3 243/913/3 256/914/3 255/915/3 268/916/3 270/917/3 271/918/3 272/919/3 288/920/3 290/921/3 291/922/3 303/923/3 304/924/3 302/925/3 318/926/3 319/927/3 320/928/3 321/929/3 326/930/3 336/931/3 339/932/3 351/933/3 352/934/3 350/935/3 366/936/3 367/937/3 368/938/3 383/939/3 384/940/3 386/941/3 385/942/3 399/943/3 400/944/3 398/945/3 401/889/3
f 401/889/3 398/945/3 397/946/3 395/947/3 393/948/3 394/949/3 396/950/3 382/951/3 381/952/3 386/941/3 384/940/3 380/953/3 378/954/3 360/955/3 361/956/3 364/957/3 363/958/3 365/959/3 366/936/3 350/935/3 349/960/3 347/961/3 346/962/3 348/963/3 345/964/3 338/965/3 335/966/3 336/931/3 326/930/3 334/967/3 327/968/3 322/969/3 317/970/3 312/971/3 313/972/3 316/973/3 318/926/3 302/925/3 301/974/3 299/975/3 300/976/3 287/977/3 285/978/3 284/979/3 289/980/3 290/921/3 288/920/3 286/981/3 283/982/3 267/983/3 265/984/3 264/985/3 266/986/3 269/987/3 268/916/3 255/915/3 254/988/3 253/989/3 252/990/3 238/991/3 237/992/3 236/993/3 235/994/3 241/911/3 240/910/3 239/995/3 234/996/3 217/997/3 216/998/3 218/999/3 221/1000/3 220/905/3 422/903/3 425/861/3 212/1001/3 213/1002/3 214/1003/3 215/1004/3 232/1005/3 231/1006/3 227/1007/3 233/1008/3 250/1009/3 251/1010/3 248/1011/3 259/1012/3 262/1013/3 263/1014/3 281/1015/3 277/1016/3 280/1017/3 282/1018/3 298/1019/3 296/1020/3 297/1021/3 311/1022/3 310/1023/3 314/1024/3 315/1025/3 325/1026/3 330/1027/3 333/1028/3 337/1029/3 343/1030/3 344/1031/3 357/1032/3 359/1033/3 362/1034/3 377/1035/3 376/1036/3 372/1037/3 379/1038/3 391/1039/3 392/1040/3 389/1041/3 404/833/3
f 434/869/2 414/845/2 405/837/2 424/857/2
f 404/833/3 389/1041/3 390/1042/3 387/1043/3 388/1044/3 370/1045/3 371/1046/3 374/1047/3 373/1048/3 372/1037/3 376/1036/3 375/1049/3 369/1050/3 356/1051/3 354/1052/3 355/1053/3 353/1054/3 358/1055/3 357/1032/3 344/1031/3 342/1056/3 340/1057/3 341/1058/3 328/1059/3 329/1060/3 331/1061/3 332/1062/3 330/1027/3 325/1026/3 324/1063/3 323/1064/3 305/1065/3 307/1066/3 306/1067/3 308/1068/3 309/1069/3 311/1022/3 297/1021/3 295/1070/3 293/1071/3 292/1072/3 294/1073/3 275/1074/3 276/1075/3 279/1076/3 280/1017/3 277/1016/3 278/1077/3 274/1078/3 273/1079/3 258/1080/3 257/1081/3 261/1082/3 260/1083/3 259/1012/3 248/1011/3 249/1084/3 247/1085/3 244/1086/3 245/1087/3 246/1088/3 229/1089/3 228/1090/3 227/1007/3 231/1006/3 230/1091/3 226/1092/3 225/1093/3 211/1094/3 210/1095/3 209/1096/3 212/1001/3 425/861/3
f 412/891/38 415/849/38 436/877/38 432/896/38
f 431/893/4 435/873/4 426/865/4 421/902/4
usemtl ports
f 4/1/1 395/2/1 397/3/1 2/4/1
f 1/5/2 398/6/2 400/7/2 3/8/2
f 1/9/3 3/10/3 4/11/3 2/12/3
f 8/13/1 394/14/1 393/15/1 5/16/1
f 6/17/3 8/18/3 5/19/3 4/11/3
f 4/20/4 5/21/4 393/22/4 395/23/4
f 3/8/2 400/7/2 399/24/2 7/25/2
f 3/10/3 7/26/3 6/17/3 4/11/3
f 12/27/1 10/28/1 381/29/1 382/30/1
f 9/31/2 11/32/2 385/33/2 386/34/2
f 9/35/3 10/36/3 12/37/3 11/38/3
f 8/13/1 13/39/1 396/40/1 394/14/1
f 6/17/3 12/37/3 13/41/3 8/18/3
f 12/42/5 382/43/5 396/44/5 13/45/5
f 11/32/2 7/25/2 399/24/2 385/33/2
f 11/38/3 12/37/3 6/17/3 7/26/3
f 17/46/1 378/47/1 380/48/1 15/49/1
f 14/50/2 384/51/2 383/52/2 16/53/2
f 14/54/3 16/55/3 17/56/3 15/57/3
f 21/58/1 361/59/1 360/60/1 18/61/1
f 19/62/3 21/63/3 18/64/3 17/56/3
f 17/65/4 18/66/4 360/67/4 378/68/4
f 16/53/2 383/52/2 368/69/2 20/70/2
f 16/55/3 20/71/3 19/62/3 17/56/3
f 25/72/1 23/73/1 365/74/1 363/75/1
f 22/76/2 24/77/2 367/78/2 366/79/2
f 22/80/3 23/81/3 25/82/3 24/83/3
f 21/58/1 26/84/1 364/85/1 361/59/1
f 19/62/3 25/82/3 26/86/3 21/63/3
f 25/87/5 363/88/5 364/89/5 26/90/5
f 24/77/2 20/70/2 368/69/2 367/78/2
f 24/83/3 25/82/3 19/62/3 20/71/3
f 30/91/1 347/92/1 349/93/1 28/94/1
f 27/95/2 350/96/2 352/97/2 29/98/2
f 27/99/3 29/100/3 30/101/3 28/102/3
f 34/103/1 348/104/1 346/105/1 31/106/1
f 32/107/3 34/108/3 31/109/3 30/101/3
f 30/110/4 31/111/4 346/112/4 347/113/4
f 29/98/2 352/97/2 351/114/2 33/115/2
f 29/100/3 33/116/3 32/107/3 30/101/3
f 38/117/1 36/118/1 335/119/1 338/120/1
f 35/121/2 37/122/2 339/123/2 336/124/2
f 35/125/3 36/126/3 38/127/3 37/128/3
f 34/103/1 39/129/1 345/130/1 348/104/1
f 32/107/3 38/127/3 39/131/3 34/108/3
f 38/132/5 338/133/5 345/134/5 39/135/5
f 37/122/2 33/115/2 351/114/2 339/123/2
f 37/128/3 38/127/3 32/107/3 33/116/3
f 43/136/1 327/137/1 334/138/1 41/139/1
f 40/140/2 326/141/2 321/142/2 42/143/2
f 40/144/3 42/145/3 43/146/3 41/147/3
f 47/148/1 317/149/1 322/150/1 44/151/1
f 45/152/3 47/153/3 44/154/3 43/146/3
f 43/155/4 44/156/4 322/157/4 327/158/4
f 42/143/2 321/142/2 320/159/2 46/160/2
f 42/145/3 46/161/3 45/152/3 43/146/3
f 51/162/1 49/163/1 316/164/1 313/165/1
f 48/166/2 50/167/2 319/168/2 318/169/2
f 48/170/3 49/171/3 51/172/3 50/173/3
f 47/148/1 52/174/1 312/175/1 317/149/1
f 45/152/3 51/172/3 52/176/3 47/153/3
f 51/177/5 313/178/5 312/179/5 52/180/5
f 50/167/2 46/160/2 320/159/2 319/168/2
f 50/173/3 51/172/3 45/152/3 46/161/3
f 56/181/1 299/182/1 301/183/1 54/184/1
f 53/185/2 302/186/2 304/187/2 55/188/2
f 53/189/3 55/190/3 56/191/3 54/192/3
f 60/193/1 287/194/1 300/195/1 57/196/1
f 58/197/3 60/198/3 57/199/3 56/191/3
f 56/200/4 57/201/4 300/202/4 299/203/4
f 55/188/2 304/187/2 303/204/2 59/205/2
f 55/190/3 59/206/3 58/197/3 56/191/3
f 64/207/1 62/208/1 289/209/1 284/210/1
f 61/211/2 63/212/2 291/213/2 290/214/2
f 61/215/3 62/216/3 64/217/3 63/218/3
f 60/193/1 65/219/1 285/220/1 287/194/1
f 58/197/3 64/217/3 65/221/3 60/198/3
f 64/222/5 284/223/5 285/224/5 65/225/5
f 63/212/2 59/205/2 303/204/2 291/213/2
f 63/218/3 64/217/3 58/197/3 59/206/3
f 69/226/1 283/227/1 286/228/1 67/229/1
f 66/230/2 288/231/2 272/232/2 68/233/2
f 66/234/3 68/235/3 69/236/3 67/237/3
f 73/238/1 265/239/1 267/240/1 70/241/1
f 71/242/3 73/243/3 70/244/3 69/236/3
f 69/245/4 70/246/4 267/247/4 283/248/4
f 68/233/2 272/232/2 271/249/2 72/250/2
f 68/235/3 72/251/3 71/242/3 69/236/3
f 77/252/1 75/253/1 269/254/1 266/255/1
f 74/256/2 76/257/2 270/258/2 268/259/2
f 74/260/3 75/261/3 77/262/3 76/263/3
f 73/238/1 78/264/1 264/265/1 265/239/1
f 71/242/3 77/262/3 78/266/3 73/243/3
f 77/267/5 266/268/5 264/269/5 78/270/5
f 76/257/2 72/250/2 271/249/2 270/258/2
f 76/263/3 77/262/3 71/242/3 72/251/3
f 82/229/1 253/271/1 254/272/1 80/273/1
f 79/274/2 255/275/2 256/276/2 81/277/2
f 79/278/3 81/279/3 82/280/3 80/281/3
f 86/14/1 238/282/1 252/283/1 83/15/1
f 84/284/3 86/285/3 83/286/3 82/280/3
f 82/287/4 83/288/4 252/289/4 253/290/4
f 81/277/2 256/276/2 243/291/2 85/292/2
f 81/279/3 85/293/3 84/284/3 82/280/3
f 90/294/1 88/295/1 235/296/1 236/297/1
f 87/298/2 89/299/2 242/300/2 241/301/2
f 87/302/3 88/303/3 90/304/3 89/305/3
f 86/14/1 91/306/1 237/307/1 238/282/1
f 84/284/3 90/304/3 91/308/3 86/285/3
f 90/309/5 236/310/5 237/311/5 91/312/5
f 89/299/2 85/292/2 243/291/2 242/300/2
f 89/305/3 90/304/3 84/284/3 85/293/3
f 95/313/1 234/314/1 239/315/1 93/316/1
f 92/317/2 240/318/2 224/319/2 94/320/2
f 92/321/3 94/322/3 95/323/3 93/324/3
f 99/325/1 216/326/1 217/40/1 96/39/1
f 97/327/3 99/328/3 96/329/3 95/323/3
f 95/330/4 96/331/4 217/332/4 234/333/4
f 94/320/2 224/319/2 223/334/2 98/335/2
f 94/322/3 98/336/3 97/327/3 95/323/3
f 103/337/1 101/338/1 220/339/1 221/340/1
f 100/341/2 102/342/2 222/343/2 219/344/2
f 100/345/3 101/346/3 103/347/3 102/348/3
f 99/325/1 104/349/1 218/350/1 216/326/1
f 97/327/3 103/347/3 104/351/3 99/328/3
f 103/352/5 221/353/5 218/354/5 104/355/5
f 102/342/2 98/335/2 223/334/2 222/343/2
f 102/348/3 103/347/3 97/327/3 98/336/3
f 108/356/1 387/357/1 390/358/1 106/359/1
f 105/360/2 389/361/2 392/362/2 107/363/2
f 105/364/3 107/365/3 108/366/3 106/367/3
f 110/372/3 112/373/3 109/374/3 108/366/3
f 108/375/4 109/376/4 388/377/4 387/378/4
f 107/363/2 392/362/2 391/379/2 111/380/2
f 107/365/3 111/381/3 110/372/3 108/366/3
f 116/382/1 114/383/1 373/384/1 374/385/1
f 113/386/2 115/387/2 379/388/2 372/389/2
f 113/390/3 114/391/3 116/392/3 115/393/3
f 110/372/3 116/392/3 117/396/3 112/373/3
f 116/397/5 374/398/5 371/399/5 117/400/5
f 115/387/2 111/380/2 391/379/2 379/388/2
f 115/393/3 116/392/3 110/372/3 111/381/3
f 121/401/1 369/402/1 375/403/1 119/404/1
f 118/405/2 376/406/2 377/407/2 120/408/2
f 118/409/3 120/410/3 121/411/3 119/412/3
f 123/415/3 125/416/3 122/417/3 121/411/3
f 121/418/4 122/419/4 356/420/4 369/421/4
f 120/408/2 377/407/2 362/422/2 124/423/2
f 120/410/3 124/424/3 123/415/3 121/411/3
f 129/425/1 127/382/1 358/385/1 353/426/1
f 126/427/2 128/428/2 359/429/2 357/430/2
f 126/431/3 127/432/3 129/433/3 128/434/3
f 123/415/3 129/433/3 130/437/3 125/416/3
f 129/438/5 353/439/5 355/440/5 130/441/5
f 128/428/2 124/423/2 362/422/2 359/429/2
f 128/434/3 129/433/3 123/415/3 124/424/3
f 134/442/1 340/443/1 342/444/1 132/445/1
f 131/446/2 344/447/2 343/448/2 133/449/2
f 131/450/3 133/451/3 134/452/3 132/453/3
f 136/457/3 138/458/3 135/459/3 134/452/3
f 134/460/4 135/461/4 341/462/4 340/463/4
f 133/449/2 343/448/2 337/464/2 137/465/2
f 133/451/3 137/466/3 136/457/3 134/452/3
f 142/467/1 140/468/1 332/469/1 331/470/1
f 139/471/2 141/472/2 333/473/2 330/474/2
f 139/475/3 140/476/3 142/477/3 141/478/3
f 136/457/3 142/477/3 143/481/3 138/458/3
f 142/482/5 331/483/5 329/484/5 143/485/5
f 141/472/2 137/465/2 337/464/2 333/473/2
f 141/478/3 142/477/3 136/457/3 137/466/3
f 147/486/1 323/487/1 324/488/1 145/489/1
f 144/490/2 325/491/2 315/492/2 146/493/2
f 144/494/3 146/495/3 147/496/3 145/497/3
f 149/502/3 151/503/3 148/504/3 147/496/3
f 147/505/4 148/506/4 305/507/4 323/508/4
f 146/493/2 315/492/2 314/509/2 150/510/2
f 146/495/3 150/511/3 149/502/3 147/496/3
f 155/512/1 153/513/1 309/514/1 308/515/1
f 152/516/2 154/517/2 310/518/2 311/519/2
f 152/520/3 153/521/3 155/522/3 154/523/3
f 149/502/3 155/522/3 156/526/3 151/503/3
f 155/527/5 308/528/5 306/529/5 156/530/5
f 154/517/2 150/510/2 314/509/2 310/518/2
f 154/523/3 155/522/3 149/502/3 150/511/3
f 160/531/1 293/183/1 295/532/1 158/533/1
f 157/534/2 297/535/2 296/536/2 159/537/2
f 157/538/3 159/539/3 160/540/3 158/541/3
f 162/546/3 164/547/3 161/548/3 160/540/3
f 160/549/4 161/550/4 292/551/4 293/552/4
f 159/537/2 296/536/2 298/553/2 163/554/2
f 159/539/3 163/555/3 162/546/3 160/540/3
f 168/556/1 166/557/1 279/558/1 276/559/1
f 165/560/2 167/561/2 282/562/2 280/563/2
f 165/564/3 166/565/3 168/566/3 167/567/3
f 162/546/3 168/566/3 169/570/3 164/547/3
f 168/571/5 276/572/5 275/573/5 169/574/5
f 167/561/2 163/554/2 298/553/2 282/562/2
f 167/567/3 168/566/3 162/546/3 163/555/3
f 173/575/1 274/576/1 278/577/1 171/578/1
f 170/579/2 277/580/2 281/581/2 172/582/2
f 170/583/3 172/584/3 173/585/3 171/586/3
f 175/591/3 177/592/3 174/593/3 173/585/3
f 173/594/4 174/595/4 273/596/4 274/597/4
f 172/582/2 281/581/2 263/598/2 176/599/2
f 172/584/3 176/600/3 175/591/3 173/585/3
f 181/601/1 179/602/1 260/603/1 261/604/1
f 178/605/2 180/606/2 262/607/2 259/608/2
f 178/609/3 179/610/3 181/611/3 180/612/3
f 175/591/3 181/611/3 182/615/3 177/592/3
f 181/616/5 261/617/5 257/618/5 182/619/5
f 180/606/2 176/599/2 263/598/2 262/607/2
f 180/612/3 181/611/3 175/591/3 176/600/3
f 186/620/1 247/621/1 249/622/1 184/623/1
f 183/624/2 248/625/2 251/626/2 185/627/2
f 183/628/3 185/629/3 186/630/3 184/631/3
f 188/636/3 190/637/3 187/638/3 186/630/3
f 186/639/4 187/640/4 244/641/4 247/642/4
f 185/627/2 251/626/2 250/643/2 189/644/2
f 185/629/3 189/645/3 188/636/3 186/630/3
f 194/646/1 192/647/1 228/648/1 229/649/1
f 191/650/2 193/651/2 233/652/2 227/653/2
f 191/654/3 192/655/3 194/656/3 193/657/3
f 188/636/3 194/656/3 195/660/3 190/637/3
f 194/661/5 229/662/5 246/663/5 195/664/5
f 193/651/2 189/644/2 250/643/2 233/652/2
f 193/657/3 194/656/3 188/636/3 189/645/3
f 199/665/1 226/666/1 230/667/1 197/668/1
f 196/669/2 231/670/2 232/671/2 198/672/2
f 196/673/3 198/674/3 199/675/3 197/676/3
f 201/679/3 203/680/3 200/681/3 199/675/3
f 199/682/4 200/683/4 225/684/4 226/685/4
f 198/672/2 232/671/2 215/686/2 202/687/2
f 198/674/3 202/688/3 201/679/3 199/675/3
f 207/689/1 205/666/1 212/690/1 209/691/1
f 204/692/2 206/693/2 214/694/2 213/695/2
f 204/696/3 205/697/3 207/698/3 206/699/3
f 201/679/3 207/698/3 208/701/3 203/680/3
f 207/702/5 209/703/5 210/704/5 208/705/5
f 206/693/2 202/687/2 215/686/2 214/694/2
f 206/699/3 207/698/3 201/679/3 202/688/3
f 350/706/4 27/707/4 28/708/4 349/709/4
f 235/710/5 88/711/5 87/712/5 241/713/5
f 326/714/4 40/715/4 41/716/4 334/717/4
f 381/718/5 10/719/5 9/720/5 386/721/5
f 325/722/4 144/723/4 145/724/4 324/725/4
f 231/726/4 196/727/4 197/728/4 230/729/4
f 260/730/5 179/731/5 178/732/5 259/733/5
f 332/734/5 140/735/5 139/736/5 330/737/5
f 373/738/5 114/739/5 113/740/5 372/741/5
f 248/742/4 183/743/4 184/744/4 249/745/4
f 277/746/4 170/747/4 171/748/4 278/749/4
f 309/750/5 153/751/5 152/752/5 311/753/5
f 302/754/4 53/755/4 54/756/4 301/757/4
f 358/758/5 127/759/5 126/760/5 357/761/5
f 344/762/4 131/763/4 132/764/4 342/765/4
f 398/766/4 1/767/4 2/768/4 397/769/4
f 365/770/5 23/771/5 22/772/5 366/773/5
f 384/774/4 14/775/4 15/776/4 380/777/4
f 240/778/4 92/779/4 93/780/4 239/781/4
f 279/782/5 166/783/5 165/784/5 280/785/5
f 255/786/4 79/787/4 80/788/4 254/789/4
f 288/790/4 66/791/4 67/792/4 286/793/4
f 289/794/5 62/795/5 61/796/5 290/797/5
f 297/798/4 157/799/4 158/800/4 295/801/4
f 316/802/5 49/803/5 48/804/5 318/805/5
f 376/806/4 118/807/4 119/808/4 375/809/4
f 269/810/5 75/811/5 74/812/5 268/813/5
f 220/814/5 101/815/5 100/816/5 219/817/5
f 212/818/5 205/819/5 204/820/5 213/821/5
f 228/822/5 192/823/5 191/824/5 227/825/5
f 335/826/5 36/827/5 35/828/5 336/829/5
f 389/830/4 105/831/4 106/736/4 390/832/4
