# Blender 5.1.2
# www.blender.org
mtllib shelf.mtl
o shelf
v -0.740022 -0.003655 0.178502
v -0.740022 -0.003655 -0.299340
v -0.254735 -0.003655 0.178502
v -0.254735 -0.003655 -0.299340
v -0.723924 0.032570 0.162593
v -0.723924 0.032570 -0.284770
v -0.270832 0.032570 -0.284770
v -0.270832 0.032570 0.162593
v -0.740022 0.094652 0.178502
v -0.737346 0.097142 0.175858
v -0.739238 0.096464 0.177728
v -0.737342 0.097142 -0.296914
v -0.740022 0.094652 -0.299340
v -0.739237 0.096464 -0.298629
v -0.257411 0.097142 0.175858
v -0.254735 0.094652 0.178502
v -0.255519 0.096464 0.177728
v -0.257415 0.097142 -0.296914
v -0.254735 0.094652 -0.299340
v -0.255520 0.096464 -0.298629
v -0.726600 0.096644 0.165237
v -0.723924 0.093907 0.162593
v -0.724708 0.095791 0.163367
v -0.723924 0.093907 -0.284770
v -0.726604 0.096644 -0.287195
v -0.724709 0.095791 -0.285480
v -0.270832 0.093907 -0.284770
v -0.268153 0.096644 -0.287195
v -0.270048 0.095791 -0.285480
v -0.270832 0.093907 0.162593
v -0.268157 0.096644 0.165237
v -0.270049 0.095791 0.163367
vn -0.0000 -1.0000 -0.0000
vn -0.0000 1.0000 -0.0000
vn -0.3370 0.9415 -0.0000
vn -0.9177 0.3973 -0.0000
vn -0.0000 0.9300 -0.3675
vn -0.0000 0.3651 -0.9310
vn 0.3370 0.9415 -0.0000
vn 0.9177 0.3973 -0.0000
vn -0.0000 0.9401 0.3408
vn -0.0000 0.3931 0.9195
vn 0.9232 0.3843 -0.0000
vn 0.4108 0.9117 -0.0000
vn -0.0000 0.3527 0.9357
vn -0.0000 0.8953 0.4454
vn -0.9232 0.3842 -0.0000
vn -0.4108 0.9117 -0.0000
vn -0.0000 0.3802 -0.9249
vn -0.0000 0.9098 -0.4151
vn -0.0000 -0.0000 1.0000
vn -1.0000 -0.0000 -0.0000
vn -0.0000 0.9989 -0.0468
vn 0.0463 0.9989 -0.0000
vn -0.0000 -0.0000 -1.0000
vn -0.0000 0.9987 0.0511
vn -0.0463 0.9989 -0.0000
vn 1.0000 -0.0000 -0.0000
vt 0.455297 0.000000
vt 0.455297 0.462390
vt -0.000000 0.462390
vt 0.000000 0.000000
vt 0.455297 0.892612
vt 0.455297 0.460897
vt 0.881552 0.460897
vt 0.881552 0.892612
vt 0.907396 0.001803
vt 0.456930 0.001806
vt 0.455297 0.000001
vt 0.909178 -0.000000
vt 0.281219 0.463128
vt 0.281219 0.917010
vt 0.279379 0.917687
vt 0.279379 0.462390
vt 0.456930 0.459090
vt 0.455297 0.460896
vt 0.093799 0.924032
vt 0.093799 0.463138
vt 0.095622 0.462390
vt 0.095622 0.924780
vt 0.907396 0.459094
vt 0.909178 0.460897
vt 0.374848 0.463067
vt 0.374848 0.916949
vt 0.373008 0.917687
vt 0.373008 0.462390
vt -0.000000 0.924033
vt 0.000000 0.463137
vt 0.001835 0.462390
vt 0.001835 0.924780
vt 0.998092 0.887829
vt 0.998092 0.461573
vt 1.000000 0.460897
vt 1.000000 0.888567
vt 0.895496 0.013844
vt 0.467826 0.013843
vt 0.466192 0.012038
vt 0.897277 0.012042
vt 0.883443 0.461644
vt 0.883443 0.893359
vt 0.881552 0.894107
vt 0.881552 0.460897
vt 0.467826 0.447053
vt 0.466192 0.448859
vt 0.966448 0.426994
vt 0.966448 0.000738
vt 0.968356 0.000000
vt 0.968356 0.427670
vt 0.895496 0.447052
vt 0.897277 0.448855
vt 0.376751 0.463137
vt 0.376751 0.894851
vt 0.374848 0.895598
vt 0.374848 0.462390
vt 0.093799 0.924780
vt 0.093799 0.462390
vt 0.187590 0.462390
vt 0.187590 0.917687
vt 0.187590 0.924780
vt 0.187590 0.462390
vt 0.281219 0.462390
vt 0.281219 0.917687
vt 0.940823 0.887829
vt 0.940822 0.461573
vt 0.434132 0.463137
vt 0.434132 0.894851
vt 0.940822 0.461644
vt 0.940822 0.893359
vt 0.909178 0.426994
vt 0.909178 0.000738
s 0
usemtl shelof
f 2/1/1 4/2/1 3/3/1 1/4/1
f 7/5/2 6/6/2 5/7/2 8/8/2
f 10/9/3 12/10/3 14/11/3 11/12/3
f 11/13/4 14/14/4 13/15/4 9/16/4
f 12/10/5 18/17/5 20/18/5 14/11/5
f 14/19/6 20/20/6 19/21/6 13/22/6
f 18/17/7 15/23/7 17/24/7 20/18/7
f 20/25/8 17/26/8 16/27/8 19/28/8
f 15/23/9 10/9/9 11/12/9 17/24/9
f 17/29/10 11/30/10 9/31/10 16/32/10
f 22/33/11 24/34/11 26/35/11 23/36/11
f 23/37/12 26/38/12 25/39/12 21/40/12
f 24/41/13 27/42/13 29/43/13 26/44/13
f 26/38/14 29/45/14 28/46/14 25/39/14
f 27/47/15 30/48/15 32/49/15 29/50/15
f 29/45/16 32/51/16 31/52/16 28/46/16
f 30/53/17 22/54/17 23/55/17 32/56/17
f 32/51/18 23/37/18 21/40/18 31/52/18
f 3/57/19 16/32/19 9/31/19 1/58/19
f 1/59/20 9/16/20 13/15/20 2/60/20
f 10/9/21 15/23/21 31/52/21 21/40/21
f 12/10/22 10/9/22 21/40/22 25/39/22
f 2/61/23 13/22/23 19/21/23 4/62/23
f 18/17/24 12/10/24 25/39/24 28/46/24
f 15/23/25 18/17/25 28/46/25 31/52/25
f 4/63/26 19/28/26 16/27/26 3/64/26
f 24/34/26 22/33/26 5/65/26 6/66/26
f 22/54/23 30/53/23 8/67/23 5/68/23
f 27/42/19 24/41/19 6/69/19 7/70/19
f 30/48/20 27/47/20 7/71/20 8/72/20
