# Blender 5.1.2
# www.blender.org
mtllib spool.mtl
o spool
v -0.514190 0.191051 -0.153510
v -0.491163 0.191051 -0.151242
v -0.469020 0.191051 -0.144525
v -0.448614 0.191051 -0.133618
v -0.430728 0.191051 -0.118939
v -0.416049 0.191051 -0.101053
v -0.405142 0.191051 -0.080646
v -0.398425 0.191051 -0.058504
v -0.396157 0.191051 -0.035477
v -0.398425 0.191051 -0.012450
v -0.405142 0.191051 0.009692
v -0.416049 0.191051 0.030098
v -0.430728 0.191051 0.047985
v -0.448614 0.191051 0.062664
v -0.469020 0.191051 0.073571
v -0.491163 0.191051 0.080288
v -0.514190 0.191051 0.082556
v -0.537217 0.191051 0.080288
v -0.559359 0.191051 0.073571
v -0.579765 0.191051 0.062664
v -0.597652 0.191051 0.047985
v -0.612331 0.191051 0.030098
v -0.623238 0.191051 0.009692
v -0.629955 0.191051 -0.012450
v -0.632223 0.191051 -0.035477
v -0.629955 0.191051 -0.058504
v -0.623238 0.191051 -0.080646
v -0.612331 0.191051 -0.101053
v -0.597652 0.191051 -0.118939
v -0.579765 0.191051 -0.133618
v -0.559359 0.191051 -0.144525
v -0.537217 0.191051 -0.151242
v -0.514190 0.126210 -0.153510
v -0.491163 0.126210 -0.151242
v -0.469020 0.126210 -0.144525
v -0.448614 0.126210 -0.133618
v -0.430728 0.126210 -0.118939
v -0.416049 0.126210 -0.101053
v -0.405142 0.126210 -0.080646
v -0.398425 0.126210 -0.058504
v -0.396157 0.126210 -0.035477
v -0.398425 0.126210 -0.012450
v -0.405142 0.126210 0.009692
v -0.416049 0.126210 0.030098
v -0.430728 0.126210 0.047985
v -0.448614 0.126210 0.062664
v -0.469020 0.126210 0.073571
v -0.491163 0.126210 0.080288
v -0.514190 0.126210 0.082556
v -0.537217 0.126210 0.080288
v -0.559359 0.126210 0.073571
v -0.579765 0.126210 0.062664
v -0.597652 0.126210 0.047985
v -0.612331 0.126210 0.030098
v -0.623238 0.126210 0.009692
v -0.629955 0.126210 -0.012450
v -0.632223 0.126210 -0.035477
v -0.629955 0.126210 -0.058504
v -0.623238 0.126210 -0.080646
v -0.612331 0.126210 -0.101053
v -0.597652 0.126210 -0.118939
v -0.579765 0.126210 -0.133618
v -0.559359 0.126210 -0.144525
v -0.537217 0.126210 -0.151242
v -0.479787 0.193716 -0.208433
v -0.480309 0.191051 -0.205807
v -0.479940 0.191832 -0.207664
v -0.514190 0.191051 -0.209144
v -0.514190 0.193716 -0.211822
v -0.514190 0.191832 -0.211038
v -0.446706 0.193716 -0.198398
v -0.447730 0.191051 -0.195925
v -0.447006 0.191832 -0.197674
v -0.416218 0.193716 -0.182102
v -0.417706 0.191051 -0.179876
v -0.416654 0.191832 -0.181450
v -0.389495 0.193716 -0.160172
v -0.391389 0.191051 -0.158278
v -0.390050 0.191832 -0.159617
v -0.367564 0.193716 -0.133449
v -0.369791 0.191051 -0.131961
v -0.368217 0.191832 -0.133013
v -0.351269 0.193716 -0.102961
v -0.353742 0.191051 -0.101937
v -0.351993 0.191832 -0.102661
v -0.341233 0.193716 -0.069880
v -0.343860 0.191051 -0.069358
v -0.342003 0.191832 -0.069727
v -0.337845 0.193716 -0.035477
v -0.340523 0.191051 -0.035477
v -0.338629 0.191832 -0.035477
v -0.341233 0.193716 -0.001074
v -0.343860 0.191051 -0.001596
v -0.342003 0.191832 -0.001227
v -0.351269 0.193716 0.032007
v -0.353742 0.191051 0.030982
v -0.351993 0.191832 0.031707
v -0.367564 0.193716 0.062495
v -0.369791 0.191051 0.061007
v -0.368217 0.191832 0.062059
v -0.389495 0.193716 0.089217
v -0.391389 0.191051 0.087324
v -0.390050 0.191832 0.088663
v -0.416218 0.193716 0.111148
v -0.417706 0.191051 0.108922
v -0.416654 0.191832 0.110496
v -0.446706 0.193716 0.127444
v -0.447730 0.191051 0.124970
v -0.447006 0.191832 0.126719
v -0.479787 0.193716 0.137479
v -0.480309 0.191051 0.134853
v -0.479940 0.191832 0.136710
v -0.514190 0.193716 0.140867
v -0.514190 0.191051 0.138190
v -0.514190 0.191832 0.140083
v -0.548593 0.193716 0.137479
v -0.548070 0.191051 0.134853
v -0.548440 0.191832 0.136710
v -0.581674 0.193716 0.127444
v -0.580649 0.191051 0.124970
v -0.581374 0.191832 0.126719
v -0.612162 0.193716 0.111148
v -0.610674 0.191051 0.108922
v -0.611726 0.191832 0.110496
v -0.638884 0.193716 0.089217
v -0.636991 0.191051 0.087324
v -0.638330 0.191832 0.088663
v -0.660815 0.193716 0.062495
v -0.658589 0.191051 0.061007
v -0.660163 0.191832 0.062059
v -0.677111 0.193716 0.032007
v -0.674637 0.191051 0.030982
v -0.676386 0.191832 0.031707
v -0.687146 0.193716 -0.001074
v -0.684520 0.191051 -0.001596
v -0.686377 0.191832 -0.001227
v -0.690534 0.193716 -0.035477
v -0.687857 0.191051 -0.035477
v -0.689750 0.191832 -0.035477
v -0.687146 0.193716 -0.069880
v -0.684520 0.191051 -0.069358
v -0.686377 0.191832 -0.069727
v -0.677111 0.193716 -0.102961
v -0.674637 0.191051 -0.101937
v -0.676386 0.191832 -0.102661
v -0.660815 0.193716 -0.133449
v -0.658589 0.191051 -0.131961
v -0.660163 0.191832 -0.133013
v -0.638884 0.193716 -0.160172
v -0.636991 0.191051 -0.158278
v -0.638330 0.191832 -0.159617
v -0.612162 0.193716 -0.182102
v -0.610674 0.191051 -0.179876
v -0.611726 0.191832 -0.181450
v -0.581674 0.193716 -0.198398
v -0.580649 0.191051 -0.195925
v -0.581374 0.191832 -0.197674
v -0.548593 0.193716 -0.208433
v -0.548070 0.191051 -0.205807
v -0.548440 0.191832 -0.207664
v -0.480309 0.206935 -0.205807
v -0.479787 0.204270 -0.208433
v -0.479940 0.206155 -0.207664
v -0.514190 0.204270 -0.211822
v -0.514190 0.206935 -0.209144
v -0.514190 0.206155 -0.211038
v -0.447730 0.206935 -0.195925
v -0.446706 0.204270 -0.198398
v -0.447006 0.206155 -0.197674
v -0.417706 0.206935 -0.179876
v -0.416218 0.204270 -0.182102
v -0.416654 0.206155 -0.181450
v -0.391389 0.206935 -0.158278
v -0.389495 0.204270 -0.160172
v -0.390050 0.206155 -0.159617
v -0.369791 0.206935 -0.131961
v -0.367564 0.204270 -0.133449
v -0.368217 0.206155 -0.133013
v -0.353742 0.206935 -0.101937
v -0.351269 0.204270 -0.102961
v -0.351993 0.206155 -0.102661
v -0.343860 0.206935 -0.069358
v -0.341233 0.204270 -0.069880
v -0.342003 0.206155 -0.069727
v -0.340523 0.206935 -0.035477
v -0.337845 0.204270 -0.035477
v -0.338629 0.206155 -0.035477
v -0.343860 0.206935 -0.001596
v -0.341233 0.204270 -0.001074
v -0.342003 0.206155 -0.001227
v -0.353742 0.206935 0.030982
v -0.351269 0.204270 0.032007
v -0.351993 0.206155 0.031707
v -0.369791 0.206935 0.061007
v -0.367564 0.204270 0.062495
v -0.368217 0.206155 0.062059
v -0.391389 0.206935 0.087324
v -0.389495 0.204270 0.089217
v -0.390050 0.206155 0.088663
v -0.417706 0.206935 0.108922
v -0.416218 0.204270 0.111148
v -0.416654 0.206155 0.110496
v -0.447730 0.206935 0.124970
v -0.446706 0.204270 0.127444
v -0.447006 0.206155 0.126719
v -0.480309 0.206935 0.134853
v -0.479787 0.204270 0.137479
v -0.479940 0.206155 0.136710
v -0.514190 0.206935 0.138190
v -0.514190 0.204270 0.140867
v -0.514190 0.206155 0.140083
v -0.548070 0.206935 0.134853
v -0.548593 0.204270 0.137479
v -0.548440 0.206155 0.136710
v -0.580649 0.206935 0.124970
v -0.581674 0.204270 0.127444
v -0.581374 0.206155 0.126719
v -0.610674 0.206935 0.108922
v -0.612162 0.204270 0.111148
v -0.611726 0.206155 0.110496
v -0.636991 0.206935 0.087324
v -0.638884 0.204270 0.089217
v -0.638330 0.206155 0.088663
v -0.658589 0.206935 0.061007
v -0.660815 0.204270 0.062495
v -0.660163 0.206155 0.062059
v -0.674637 0.206935 0.030982
v -0.677111 0.204270 0.032007
v -0.676386 0.206155 0.031707
v -0.684520 0.206935 -0.001596
v -0.687146 0.204270 -0.001074
v -0.686377 0.206155 -0.001227
v -0.687857 0.206935 -0.035477
v -0.690534 0.204270 -0.035477
v -0.689750 0.206155 -0.035477
v -0.684520 0.206935 -0.069358
v -0.687146 0.204270 -0.069880
v -0.686377 0.206155 -0.069727
v -0.674637 0.206935 -0.101937
v -0.677111 0.204270 -0.102961
v -0.676386 0.206155 -0.102661
v -0.658589 0.206935 -0.131961
v -0.660815 0.204270 -0.133449
v -0.660163 0.206155 -0.133013
v -0.636991 0.206935 -0.158278
v -0.638884 0.204270 -0.160172
v -0.638330 0.206155 -0.159617
v -0.610674 0.206935 -0.179876
v -0.612162 0.204270 -0.182102
v -0.611726 0.206155 -0.181450
v -0.580649 0.206935 -0.195925
v -0.581674 0.204270 -0.198398
v -0.581374 0.206155 -0.197674
v -0.548070 0.206935 -0.205807
v -0.548593 0.204270 -0.208433
v -0.548440 0.206155 -0.207664
v -0.514190 0.061368 -0.153510
v -0.491163 0.061368 -0.151242
v -0.469020 0.061368 -0.144525
v -0.448614 0.061368 -0.133618
v -0.430728 0.061368 -0.118939
v -0.416049 0.061368 -0.101053
v -0.405142 0.061368 -0.080646
v -0.398425 0.061368 -0.058504
v -0.396157 0.061368 -0.035477
v -0.398425 0.061368 -0.012450
v -0.405142 0.061368 0.009692
v -0.416049 0.061368 0.030098
v -0.430728 0.061368 0.047985
v -0.448614 0.061368 0.062664
v -0.469020 0.061368 0.073571
v -0.491163 0.061368 0.080288
v -0.514190 0.061368 0.082556
v -0.537217 0.061368 0.080288
v -0.559359 0.061368 0.073571
v -0.579765 0.061368 0.062664
v -0.597652 0.061368 0.047985
v -0.612331 0.061368 0.030098
v -0.623238 0.061368 0.009692
v -0.629955 0.061368 -0.012450
v -0.632223 0.061368 -0.035477
v -0.629955 0.061368 -0.058504
v -0.623238 0.061368 -0.080646
v -0.612331 0.061368 -0.101053
v -0.597652 0.061368 -0.118939
v -0.579765 0.061368 -0.133618
v -0.559359 0.061368 -0.144525
v -0.537217 0.061368 -0.151242
v -0.479787 0.058704 -0.208433
v -0.480309 0.061369 -0.205807
v -0.479940 0.060588 -0.207664
v -0.514190 0.061369 -0.209144
v -0.514190 0.058704 -0.211822
v -0.514190 0.060588 -0.211038
v -0.446706 0.058704 -0.198398
v -0.447730 0.061369 -0.195925
v -0.447006 0.060588 -0.197674
v -0.416218 0.058704 -0.182102
v -0.417706 0.061369 -0.179876
v -0.416654 0.060588 -0.181450
v -0.389495 0.058704 -0.160172
v -0.391389 0.061369 -0.158278
v -0.390050 0.060588 -0.159617
v -0.367564 0.058704 -0.133449
v -0.369791 0.061369 -0.131961
v -0.368217 0.060588 -0.133013
v -0.351269 0.058704 -0.102961
v -0.353742 0.061369 -0.101937
v -0.351993 0.060588 -0.102661
v -0.341233 0.058704 -0.069880
v -0.343860 0.061369 -0.069358
v -0.342003 0.060588 -0.069727
v -0.337845 0.058704 -0.035477
v -0.340523 0.061369 -0.035477
v -0.338629 0.060588 -0.035477
v -0.341233 0.058704 -0.001074
v -0.343860 0.061369 -0.001596
v -0.342003 0.060588 -0.001227
v -0.351269 0.058704 0.032007
v -0.353742 0.061369 0.030982
v -0.351993 0.060588 0.031707
v -0.367564 0.058704 0.062495
v -0.369791 0.061369 0.061007
v -0.368217 0.060588 0.062059
v -0.389495 0.058704 0.089217
v -0.391389 0.061369 0.087324
v -0.390050 0.060588 0.088663
v -0.416218 0.058704 0.111148
v -0.417706 0.061369 0.108922
v -0.416654 0.060588 0.110496
v -0.446706 0.058704 0.127444
v -0.447730 0.061369 0.124970
v -0.447006 0.060588 0.126719
v -0.479787 0.058704 0.137479
v -0.480309 0.061369 0.134853
v -0.479940 0.060588 0.136710
v -0.514190 0.058704 0.140867
v -0.514190 0.061369 0.138190
v -0.514190 0.060588 0.140083
v -0.548593 0.058704 0.137479
v -0.548070 0.061369 0.134853
v -0.548440 0.060588 0.136710
v -0.581674 0.058704 0.127444
v -0.580649 0.061369 0.124970
v -0.581374 0.060588 0.126719
v -0.612162 0.058704 0.111148
v -0.610674 0.061369 0.108922
v -0.611726 0.060588 0.110496
v -0.638884 0.058704 0.089217
v -0.636991 0.061369 0.087324
v -0.638330 0.060588 0.088663
v -0.660815 0.058704 0.062495
v -0.658589 0.061369 0.061007
v -0.660163 0.060588 0.062059
v -0.677111 0.058704 0.032007
v -0.674637 0.061369 0.030982
v -0.676386 0.060588 0.031707
v -0.687146 0.058704 -0.001074
v -0.684520 0.061369 -0.001596
v -0.686377 0.060588 -0.001227
v -0.690534 0.058704 -0.035477
v -0.687857 0.061369 -0.035477
v -0.689750 0.060588 -0.035477
v -0.687146 0.058704 -0.069880
v -0.684520 0.061369 -0.069358
v -0.686377 0.060588 -0.069727
v -0.677111 0.058704 -0.102961
v -0.674637 0.061369 -0.101937
v -0.676386 0.060588 -0.102661
v -0.660815 0.058704 -0.133449
v -0.658589 0.061369 -0.131961
v -0.660163 0.060588 -0.133013
v -0.638884 0.058704 -0.160172
v -0.636991 0.061369 -0.158278
v -0.638330 0.060588 -0.159617
v -0.612162 0.058704 -0.182102
v -0.610674 0.061369 -0.179876
v -0.611726 0.060588 -0.181450
v -0.581674 0.058704 -0.198398
v -0.580649 0.061369 -0.195925
v -0.581374 0.060588 -0.197674
v -0.548593 0.058704 -0.208433
v -0.548070 0.061369 -0.205807
v -0.548440 0.060588 -0.207664
v -0.480309 0.045485 -0.205807
v -0.479787 0.048149 -0.208433
v -0.479940 0.046265 -0.207664
v -0.514190 0.048149 -0.211822
v -0.514190 0.045485 -0.209144
v -0.514190 0.046265 -0.211038
v -0.447730 0.045485 -0.195925
v -0.446706 0.048149 -0.198398
v -0.447006 0.046265 -0.197674
v -0.417706 0.045485 -0.179876
v -0.416218 0.048149 -0.182102
v -0.416654 0.046265 -0.181450
v -0.391389 0.045485 -0.158278
v -0.389495 0.048149 -0.160172
v -0.390050 0.046265 -0.159617
v -0.369791 0.045485 -0.131961
v -0.367564 0.048149 -0.133449
v -0.368217 0.046265 -0.133013
v -0.353742 0.045485 -0.101937
v -0.351269 0.048149 -0.102961
v -0.351993 0.046265 -0.102661
v -0.343860 0.045485 -0.069358
v -0.341233 0.048149 -0.069880
v -0.342003 0.046265 -0.069727
v -0.340523 0.045485 -0.035477
v -0.337845 0.048149 -0.035477
v -0.338629 0.046265 -0.035477
v -0.343860 0.045485 -0.001596
v -0.341233 0.048149 -0.001074
v -0.342003 0.046265 -0.001227
v -0.353742 0.045485 0.030982
v -0.351269 0.048149 0.032007
v -0.351993 0.046265 0.031707
v -0.369791 0.045485 0.061007
v -0.367564 0.048149 0.062495
v -0.368217 0.046265 0.062059
v -0.391389 0.045485 0.087324
v -0.389495 0.048149 0.089217
v -0.390050 0.046265 0.088663
v -0.417706 0.045485 0.108922
v -0.416218 0.048149 0.111148
v -0.416654 0.046265 0.110496
v -0.447730 0.045485 0.124970
v -0.446706 0.048149 0.127444
v -0.447006 0.046265 0.126719
v -0.480309 0.045485 0.134853
v -0.479787 0.048149 0.137479
v -0.479940 0.046265 0.136710
v -0.514190 0.045485 0.138190
v -0.514190 0.048149 0.140867
v -0.514190 0.046265 0.140083
v -0.548070 0.045485 0.134853
v -0.548593 0.048149 0.137479
v -0.548440 0.046265 0.136710
v -0.580649 0.045485 0.124970
v -0.581674 0.048149 0.127444
v -0.581374 0.046265 0.126719
v -0.610674 0.045485 0.108922
v -0.612162 0.048149 0.111148
v -0.611726 0.046265 0.110496
v -0.636991 0.045485 0.087324
v -0.638884 0.048149 0.089217
v -0.638330 0.046265 0.088663
v -0.658589 0.045485 0.061007
v -0.660815 0.048149 0.062495
v -0.660163 0.046265 0.062059
v -0.674637 0.045485 0.030982
v -0.677111 0.048149 0.032007
v -0.676386 0.046265 0.031707
v -0.684520 0.045485 -0.001596
v -0.687146 0.048149 -0.001074
v -0.686377 0.046265 -0.001227
v -0.687857 0.045485 -0.035477
v -0.690534 0.048149 -0.035477
v -0.689750 0.046265 -0.035477
v -0.684520 0.045485 -0.069358
v -0.687146 0.048149 -0.069880
v -0.686377 0.046265 -0.069727
v -0.674637 0.045485 -0.101937
v -0.677111 0.048149 -0.102961
v -0.676386 0.046265 -0.102661
v -0.658589 0.045485 -0.131961
v -0.660815 0.048149 -0.133449
v -0.660163 0.046265 -0.133013
v -0.636991 0.045485 -0.158278
v -0.638884 0.048149 -0.160172
v -0.638330 0.046265 -0.159617
v -0.610674 0.045485 -0.179876
v -0.612162 0.048149 -0.182102
v -0.611726 0.046265 -0.181450
v -0.580649 0.045485 -0.195925
v -0.581674 0.048149 -0.198398
v -0.581374 0.046265 -0.197674
v -0.548070 0.045485 -0.205807
v -0.548593 0.048149 -0.208433
v -0.548440 0.046265 -0.207664
v -0.584195 0.050562 -0.064474
v -0.588909 0.045485 -0.066427
v -0.585575 0.046972 -0.065046
v -0.588909 0.206935 -0.066427
v -0.584195 0.201857 -0.064474
v -0.585575 0.205448 -0.065046
v -0.581435 0.045485 -0.080409
v -0.577193 0.050562 -0.077574
v -0.578435 0.046972 -0.078405
v -0.577193 0.201858 -0.077574
v -0.581435 0.206935 -0.080409
v -0.578435 0.205448 -0.078405
v -0.483240 0.045485 -0.110196
v -0.485193 0.050562 -0.105482
v -0.484621 0.046972 -0.106863
v -0.485193 0.201857 -0.105482
v -0.483240 0.206935 -0.110196
v -0.484621 0.205448 -0.106863
v -0.499407 0.050562 -0.109794
v -0.498412 0.045485 -0.114798
v -0.499116 0.046972 -0.111260
v -0.498412 0.206935 -0.114798
v -0.499407 0.201858 -0.109794
v -0.499116 0.205448 -0.111260
v -0.588507 0.050562 -0.050260
v -0.593511 0.045485 -0.051255
v -0.589972 0.046972 -0.050551
v -0.593511 0.206935 -0.051255
v -0.588507 0.201857 -0.050260
v -0.589972 0.205448 -0.050551
v -0.460610 0.050562 -0.089057
v -0.457002 0.045485 -0.092665
v -0.459553 0.046972 -0.090113
v -0.460610 0.201858 -0.089057
v -0.457002 0.206935 -0.092665
v -0.459553 0.205448 -0.090113
v -0.472093 0.050562 0.027526
v -0.469258 0.045485 0.031768
v -0.471262 0.046972 0.028768
v -0.469258 0.206935 0.031768
v -0.472093 0.201858 0.027526
v -0.471262 0.205448 0.028768
v -0.483240 0.045485 0.039242
v -0.485193 0.050562 0.034528
v -0.484621 0.046972 0.035909
v -0.485193 0.201858 0.034528
v -0.483240 0.206935 0.039242
v -0.484621 0.205448 0.035909
v -0.446944 0.045485 -0.080409
v -0.451187 0.050562 -0.077574
v -0.449944 0.046972 -0.078405
v -0.451187 0.201858 -0.077574
v -0.446944 0.206935 -0.080409
v -0.449944 0.205448 -0.078405
v -0.498412 0.045485 0.043844
v -0.499407 0.050562 0.038840
v -0.499116 0.046972 0.040306
v -0.499407 0.201858 0.038840
v -0.498412 0.206935 0.043844
v -0.499116 0.205448 0.040306
v -0.543187 0.050562 0.034528
v -0.545139 0.045485 0.039242
v -0.543759 0.046972 0.035909
v -0.545139 0.206935 0.039242
v -0.543187 0.201857 0.034528
v -0.543759 0.205448 0.035909
v -0.595065 0.206935 -0.035477
v -0.589963 0.201857 -0.035477
v -0.591457 0.205448 -0.035477
v -0.595065 0.045485 -0.035477
v -0.589963 0.050562 -0.035477
v -0.591457 0.046972 -0.035477
v -0.545139 0.045485 -0.110196
v -0.543187 0.050562 -0.105482
v -0.543759 0.046972 -0.106863
v -0.543187 0.201858 -0.105482
v -0.545139 0.206935 -0.110196
v -0.543759 0.205448 -0.106863
v -0.559122 0.045485 0.031768
v -0.556287 0.050562 0.027526
v -0.557117 0.046972 0.028768
v -0.556287 0.201858 0.027526
v -0.559122 0.206935 0.031768
v -0.557117 0.205448 0.028768
v -0.439873 0.050562 -0.020695
v -0.434868 0.045485 -0.019699
v -0.438407 0.046972 -0.020403
v -0.439873 0.201857 -0.020695
v -0.434868 0.206935 -0.019699
v -0.438407 0.205448 -0.020403
v -0.460610 0.050562 0.018102
v -0.457002 0.045485 0.021710
v -0.459553 0.046972 0.019159
v -0.457002 0.206935 0.021710
v -0.460610 0.201858 0.018102
v -0.459553 0.205448 0.019159
v -0.439471 0.045485 -0.004528
v -0.444185 0.050562 -0.006480
v -0.442804 0.046972 -0.005908
v -0.444185 0.201857 -0.006480
v -0.439471 0.206935 -0.004528
v -0.442804 0.205448 -0.005908
v -0.438417 0.050562 -0.035477
v -0.433314 0.045485 -0.035477
v -0.436922 0.046972 -0.035477
v -0.433314 0.206935 -0.035477
v -0.438417 0.201857 -0.035477
v -0.436922 0.205448 -0.035477
v -0.567769 0.050562 -0.089057
v -0.571377 0.045485 -0.092665
v -0.568826 0.046972 -0.090113
v -0.571377 0.206935 -0.092665
v -0.567769 0.201858 -0.089057
v -0.568826 0.205448 -0.090113
v -0.556287 0.050562 -0.098480
v -0.559122 0.045485 -0.102722
v -0.557117 0.046972 -0.099723
v -0.559122 0.206935 -0.102722
v -0.556287 0.201858 -0.098480
v -0.557117 0.205448 -0.099723
v -0.514190 0.045485 0.045398
v -0.514190 0.050562 0.040296
v -0.514190 0.046972 0.041790
v -0.514190 0.201858 0.040296
v -0.514190 0.206935 0.045398
v -0.514190 0.205448 0.041790
v -0.514190 0.050562 -0.111250
v -0.514190 0.045485 -0.116352
v -0.514190 0.046972 -0.112745
v -0.514190 0.206935 -0.116352
v -0.514190 0.201858 -0.111250
v -0.514190 0.205448 -0.112745
v -0.439873 0.050562 -0.050260
v -0.434868 0.045485 -0.051255
v -0.438407 0.046972 -0.050551
v -0.439873 0.201857 -0.050260
v -0.434868 0.206935 -0.051255
v -0.438407 0.205448 -0.050551
v -0.472093 0.050562 -0.098480
v -0.469258 0.045485 -0.102722
v -0.471262 0.046972 -0.099723
v -0.469258 0.206935 -0.102722
v -0.472093 0.201858 -0.098480
v -0.471262 0.205448 -0.099723
v -0.439471 0.045485 -0.066427
v -0.444185 0.050562 -0.064474
v -0.442804 0.046972 -0.065046
v -0.439471 0.206935 -0.066427
v -0.444185 0.201857 -0.064474
v -0.442804 0.205448 -0.065046
v -0.584195 0.201857 -0.006480
v -0.588909 0.206935 -0.004528
v -0.585575 0.205448 -0.005908
v -0.588909 0.045485 -0.004528
v -0.584195 0.050562 -0.006480
v -0.585575 0.046972 -0.005908
v -0.581435 0.206935 0.009455
v -0.577193 0.201858 0.006620
v -0.578435 0.205448 0.007450
v -0.577193 0.050562 0.006620
v -0.581435 0.045485 0.009455
v -0.578435 0.046972 0.007450
v -0.588507 0.201857 -0.020695
v -0.593511 0.206935 -0.019699
v -0.589972 0.205448 -0.020403
v -0.588507 0.050562 -0.020695
v -0.593511 0.045485 -0.019699
v -0.589972 0.046972 -0.020403
v -0.571377 0.206935 0.021710
v -0.567769 0.201858 0.018102
v -0.568826 0.205448 0.019159
v -0.567769 0.050562 0.018102
v -0.571377 0.045485 0.021710
v -0.568826 0.046972 0.019159
v -0.529968 0.045485 0.043844
v -0.528972 0.050562 0.038840
v -0.529264 0.046972 0.040306
v -0.528972 0.201858 0.038840
v -0.529968 0.206935 0.043844
v -0.529264 0.205448 0.040306
v -0.446944 0.045485 0.009455
v -0.451187 0.050562 0.006620
v -0.449944 0.046972 0.007450
v -0.446944 0.206935 0.009455
v -0.451187 0.201858 0.006620
v -0.449944 0.205448 0.007450
v -0.528972 0.050562 -0.109794
v -0.529968 0.045485 -0.114798
v -0.529264 0.046972 -0.111260
v -0.529968 0.206935 -0.114798
v -0.528972 0.201858 -0.109794
v -0.529264 0.205448 -0.111260
vn -0.0000 -0.0000 -1.0000
vn 0.1951 -0.0000 -0.9808
vn 0.3827 -0.0000 -0.9239
vn 0.5556 -0.0000 -0.8315
vn 0.7071 -0.0000 -0.7071
vn 0.8315 -0.0000 -0.5556
vn 0.9239 -0.0000 -0.3827
vn 0.9808 -0.0000 -0.1951
vn 1.0000 -0.0000 -0.0000
vn 0.9808 -0.0000 0.1951
vn 0.9239 -0.0000 0.3827
vn 0.8315 -0.0000 0.5556
vn 0.7071 -0.0000 0.7071
vn 0.5556 -0.0000 0.8315
vn 0.3827 -0.0000 0.9239
vn 0.1951 -0.0000 0.9808
vn -0.0000 -0.0000 1.0000
vn -0.1951 -0.0000 0.9808
vn -0.3827 -0.0000 0.9239
vn -0.5556 -0.0000 0.8315
vn -0.7071 -0.0000 0.7071
vn -0.8315 -0.0000 0.5556
vn -0.9239 -0.0000 0.3827
vn -0.9808 -0.0000 0.1951
vn -1.0000 -0.0000 -0.0000
vn -0.9808 -0.0000 -0.1951
vn -0.9239 -0.0000 -0.3827
vn -0.8315 -0.0000 -0.5556
vn -0.7071 -0.0000 -0.7071
vn -0.5556 -0.0000 -0.8315
vn -0.3827 -0.0000 -0.9239
vn -0.1951 -0.0000 -0.9808
vn 0.0402 -0.9786 -0.2019
vn -0.0000 -0.9786 -0.2059
vn -0.0000 -0.9245 -0.3811
vn 0.0744 -0.9245 -0.3738
vn 0.1801 -0.3843 -0.9055
vn -0.0000 -0.3843 -0.9232
vn -0.0000 -0.1936 -0.9811
vn 0.1914 -0.1936 -0.9622
vn 0.0788 -0.9786 -0.1902
vn 0.1458 -0.9245 -0.3521
vn 0.3533 -0.3843 -0.8529
vn 0.3754 -0.1936 -0.9064
vn 0.1144 -0.9786 -0.1712
vn 0.2117 -0.9245 -0.3169
vn 0.5129 -0.3843 -0.7676
vn 0.5451 -0.1936 -0.8157
vn 0.1456 -0.9786 -0.1456
vn 0.2695 -0.9245 -0.2695
vn 0.6528 -0.3843 -0.6528
vn 0.6937 -0.1936 -0.6937
vn 0.1712 -0.9786 -0.1144
vn 0.3169 -0.9245 -0.2117
vn 0.7676 -0.3843 -0.5129
vn 0.8157 -0.1936 -0.5451
vn 0.1902 -0.9786 -0.0788
vn 0.3521 -0.9245 -0.1458
vn 0.8529 -0.3843 -0.3533
vn 0.9064 -0.1936 -0.3754
vn 0.2019 -0.9786 -0.0402
vn 0.3738 -0.9245 -0.0744
vn 0.9055 -0.3843 -0.1801
vn 0.9622 -0.1936 -0.1914
vn 0.2059 -0.9786 -0.0000
vn 0.3811 -0.9245 -0.0000
vn 0.9232 -0.3843 -0.0000
vn 0.9811 -0.1936 -0.0000
vn 0.2019 -0.9786 0.0402
vn 0.3738 -0.9245 0.0744
vn 0.9055 -0.3843 0.1801
vn 0.9622 -0.1936 0.1914
vn 0.1902 -0.9786 0.0788
vn 0.3521 -0.9245 0.1458
vn 0.8529 -0.3843 0.3533
vn 0.9064 -0.1936 0.3754
vn 0.1712 -0.9786 0.1144
vn 0.3169 -0.9245 0.2117
vn 0.7676 -0.3843 0.5129
vn 0.8157 -0.1936 0.5451
vn 0.1456 -0.9786 0.1456
vn 0.2695 -0.9245 0.2695
vn 0.6528 -0.3843 0.6528
vn 0.6937 -0.1936 0.6937
vn 0.1144 -0.9786 0.1712
vn 0.2117 -0.9245 0.3169
vn 0.5129 -0.3843 0.7676
vn 0.5451 -0.1936 0.8157
vn 0.0788 -0.9786 0.1902
vn 0.1458 -0.9245 0.3521
vn 0.3533 -0.3843 0.8529
vn 0.3754 -0.1936 0.9064
vn 0.0402 -0.9786 0.2019
vn 0.0744 -0.9245 0.3738
vn 0.1801 -0.3843 0.9055
vn 0.1914 -0.1936 0.9622
vn -0.0000 -0.9786 0.2059
vn -0.0000 -0.9245 0.3811
vn -0.0000 -0.3843 0.9232
vn -0.0000 -0.1936 0.9811
vn -0.0402 -0.9786 0.2019
vn -0.0744 -0.9245 0.3738
vn -0.1801 -0.3843 0.9055
vn -0.1914 -0.1936 0.9622
vn -0.0788 -0.9786 0.1902
vn -0.1458 -0.9245 0.3521
vn -0.3533 -0.3843 0.8529
vn -0.3754 -0.1936 0.9064
vn -0.1144 -0.9786 0.1712
vn -0.2117 -0.9245 0.3169
vn -0.5129 -0.3843 0.7676
vn -0.5451 -0.1936 0.8157
vn -0.1456 -0.9786 0.1456
vn -0.2695 -0.9245 0.2695
vn -0.6528 -0.3843 0.6528
vn -0.6937 -0.1936 0.6937
vn -0.1712 -0.9786 0.1144
vn -0.3169 -0.9245 0.2117
vn -0.7676 -0.3843 0.5129
vn -0.8157 -0.1936 0.5451
vn -0.1902 -0.9786 0.0788
vn -0.3521 -0.9245 0.1458
vn -0.8529 -0.3843 0.3533
vn -0.9064 -0.1936 0.3754
vn -0.2019 -0.9786 0.0402
vn -0.3738 -0.9245 0.0744
vn -0.9055 -0.3843 0.1801
vn -0.9622 -0.1936 0.1914
vn -0.2059 -0.9786 -0.0000
vn -0.3811 -0.9245 -0.0000
vn -0.9232 -0.3843 -0.0000
vn -0.9811 -0.1936 -0.0000
vn -0.2019 -0.9786 -0.0402
vn -0.3738 -0.9245 -0.0744
vn -0.9055 -0.3843 -0.1801
vn -0.9622 -0.1936 -0.1914
vn -0.1902 -0.9786 -0.0788
vn -0.3521 -0.9245 -0.1458
vn -0.8529 -0.3843 -0.3533
vn -0.9064 -0.1936 -0.3754
vn -0.1712 -0.9786 -0.1144
vn -0.3169 -0.9245 -0.2117
vn -0.7676 -0.3843 -0.5129
vn -0.8157 -0.1936 -0.5451
vn -0.1456 -0.9786 -0.1456
vn -0.2695 -0.9245 -0.2695
vn -0.6528 -0.3843 -0.6528
vn -0.6937 -0.1936 -0.6937
vn -0.1144 -0.9786 -0.1712
vn -0.2117 -0.9245 -0.3169
vn -0.5129 -0.3843 -0.7676
vn -0.5451 -0.1936 -0.8157
vn -0.0788 -0.9786 -0.1902
vn -0.1458 -0.9245 -0.3521
vn -0.3533 -0.3843 -0.8529
vn -0.3754 -0.1936 -0.9064
vn -0.0402 -0.9786 -0.2019
vn -0.0744 -0.9245 -0.3738
vn -0.1801 -0.3843 -0.9055
vn -0.1914 -0.1936 -0.9622
vn 0.1914 0.1936 -0.9622
vn -0.0000 0.1936 -0.9811
vn -0.0000 0.3843 -0.9232
vn 0.1801 0.3843 -0.9055
vn 0.0744 0.9245 -0.3738
vn -0.0000 0.9245 -0.3811
vn 0.3754 0.1936 -0.9064
vn 0.3533 0.3843 -0.8529
vn 0.1458 0.9245 -0.3521
vn 0.5451 0.1936 -0.8157
vn 0.5129 0.3843 -0.7676
vn 0.2117 0.9245 -0.3169
vn 0.6937 0.1936 -0.6937
vn 0.6528 0.3843 -0.6528
vn 0.2695 0.9245 -0.2695
vn 0.8157 0.1936 -0.5451
vn 0.7676 0.3843 -0.5129
vn 0.3169 0.9245 -0.2117
vn 0.9064 0.1936 -0.3754
vn 0.8529 0.3843 -0.3533
vn 0.3521 0.9245 -0.1458
vn 0.9622 0.1936 -0.1914
vn 0.9055 0.3843 -0.1801
vn 0.3738 0.9245 -0.0744
vn 0.9811 0.1936 -0.0000
vn 0.9232 0.3843 -0.0000
vn 0.3811 0.9245 -0.0000
vn 0.2059 0.9786 -0.0000
vn 0.9622 0.1936 0.1914
vn 0.9055 0.3843 0.1801
vn 0.3738 0.9245 0.0744
vn 0.2019 0.9786 0.0402
vn 0.9064 0.1936 0.3754
vn 0.8529 0.3843 0.3533
vn 0.3521 0.9245 0.1458
vn 0.1902 0.9786 0.0788
vn 0.8157 0.1936 0.5451
vn 0.7676 0.3843 0.5129
vn 0.3169 0.9245 0.2117
vn 0.1712 0.9786 0.1144
vn 0.6937 0.1936 0.6937
vn 0.6528 0.3843 0.6528
vn 0.2695 0.9245 0.2695
vn 0.1456 0.9786 0.1456
vn 0.5451 0.1936 0.8157
vn 0.5129 0.3843 0.7676
vn 0.2117 0.9245 0.3169
vn 0.1144 0.9786 0.1712
vn 0.3754 0.1936 0.9064
vn 0.3533 0.3843 0.8529
vn 0.1458 0.9245 0.3521
vn 0.0788 0.9786 0.1902
vn 0.1914 0.1936 0.9622
vn 0.1801 0.3843 0.9055
vn 0.0744 0.9245 0.3738
vn 0.0402 0.9786 0.2019
vn -0.0000 0.1936 0.9811
vn -0.0000 0.3843 0.9232
vn -0.0000 0.9245 0.3811
vn -0.0000 0.9786 0.2059
vn -0.1914 0.1936 0.9622
vn -0.1801 0.3843 0.9055
vn -0.0744 0.9245 0.3738
vn -0.0402 0.9786 0.2019
vn -0.3754 0.1936 0.9064
vn -0.3533 0.3843 0.8529
vn -0.1458 0.9245 0.3521
vn -0.0788 0.9786 0.1902
vn -0.5451 0.1936 0.8157
vn -0.5129 0.3843 0.7676
vn -0.2117 0.9245 0.3169
vn -0.1144 0.9786 0.1712
vn -0.6937 0.1936 0.6937
vn -0.6528 0.3843 0.6528
vn -0.2695 0.9245 0.2695
vn -0.1456 0.9786 0.1456
vn -0.8157 0.1936 0.5451
vn -0.7676 0.3843 0.5129
vn -0.3169 0.9245 0.2117
vn -0.1712 0.9786 0.1144
vn -0.9064 0.1936 0.3754
vn -0.8529 0.3843 0.3533
vn -0.3521 0.9245 0.1458
vn -0.1902 0.9786 0.0788
vn -0.9622 0.1936 0.1914
vn -0.9055 0.3843 0.1801
vn -0.3738 0.9245 0.0744
vn -0.2019 0.9786 0.0402
vn -0.9811 0.1936 -0.0000
vn -0.9232 0.3843 -0.0000
vn -0.3811 0.9245 -0.0000
vn -0.2059 0.9786 -0.0000
vn -0.9622 0.1936 -0.1914
vn -0.9055 0.3843 -0.1801
vn -0.3738 0.9245 -0.0744
vn -0.9064 0.1936 -0.3754
vn -0.8529 0.3843 -0.3533
vn -0.3521 0.9245 -0.1458
vn -0.8157 0.1936 -0.5451
vn -0.7676 0.3843 -0.5129
vn -0.3169 0.9245 -0.2117
vn -0.6937 0.1936 -0.6937
vn -0.6528 0.3843 -0.6528
vn -0.2695 0.9245 -0.2695
vn -0.5451 0.1936 -0.8157
vn -0.5129 0.3843 -0.7676
vn -0.2117 0.9245 -0.3169
vn -0.3754 0.1936 -0.9064
vn -0.3533 0.3843 -0.8529
vn -0.1458 0.9245 -0.3521
vn -0.1914 0.1936 -0.9622
vn -0.1801 0.3843 -0.9055
vn -0.0744 0.9245 -0.3738
vn -0.0000 -1.0000 -0.0000
vn 0.0402 0.9786 -0.2019
vn -0.0000 0.9786 -0.2059
vn 0.0788 0.9786 -0.1902
vn 0.1144 0.9786 -0.1712
vn 0.1456 0.9786 -0.1456
vn 0.1712 0.9786 -0.1144
vn 0.1902 0.9786 -0.0788
vn 0.2019 0.9786 -0.0402
vn -0.2019 0.9786 -0.0402
vn -0.1902 0.9786 -0.0788
vn -0.1712 0.9786 -0.1144
vn -0.1456 0.9786 -0.1456
vn -0.1144 0.9786 -0.1712
vn -0.0788 0.9786 -0.1902
vn -0.0402 0.9786 -0.2019
vn 0.3533 -0.3843 -0.8530
vn -0.3533 -0.3843 0.8530
vn -0.0000 1.0000 -0.0000
vn 0.1799 -0.9809 0.0745
vn 0.1619 -0.9809 0.1082
vn 0.8150 -0.1983 0.5445
vn 0.9055 -0.1983 0.3751
vn 0.9055 0.1983 0.3751
vn 0.8150 0.1983 0.5445
vn -0.3751 -0.1983 0.9055
vn -0.1912 -0.1983 0.9613
vn -0.0380 -0.9809 0.1909
vn -0.0745 -0.9809 0.1799
vn -0.0743 0.9245 0.3738
vn -0.1912 0.1983 0.9613
vn -0.3751 0.1983 0.9055
vn 0.9613 -0.1983 0.1912
vn 0.1909 -0.9809 0.0380
vn 0.3738 0.9245 0.0743
vn 0.9613 0.1983 0.1912
vn -0.0000 -0.1983 0.9801
vn -0.0000 -0.9809 0.1947
vn -0.0000 0.1983 0.9801
vn -0.1377 -0.9809 0.1377
vn -0.1619 -0.9809 0.1082
vn -0.8150 -0.1983 0.5445
vn -0.6931 -0.1983 0.6931
vn -0.5445 0.1983 0.8150
vn -0.6931 0.1983 0.6931
vn -0.3751 -0.1983 -0.9055
vn -0.5445 -0.1983 -0.8150
vn -0.1082 -0.9809 -0.1619
vn -0.0745 -0.9809 -0.1799
vn -0.5445 0.1983 -0.8150
vn -0.3751 0.1983 -0.9055
vn -0.8150 0.1983 0.5445
vn -0.1912 -0.1983 -0.9613
vn -0.0380 -0.9809 -0.1909
vn -0.1912 0.1983 -0.9613
vn 0.0745 -0.9809 -0.1799
vn 0.1082 -0.9809 -0.1619
vn 0.5445 -0.1983 -0.8150
vn 0.3751 -0.1983 -0.9055
vn 0.9801 -0.1983 -0.0000
vn 0.9613 -0.1983 -0.1912
vn 0.1909 -0.9809 -0.0380
vn 0.1825 -0.9832 -0.0000
vn 0.3751 -0.1983 0.9055
vn 0.5445 -0.1983 0.8150
vn 0.1082 -0.9809 0.1619
vn 0.0745 -0.9809 0.1799
vn 0.5445 0.1983 0.8150
vn 0.3751 0.1983 0.9055
vn 0.3751 0.1983 -0.9055
vn 0.5445 0.1983 -0.8150
vn 0.9801 0.1983 -0.0000
vn -0.3738 0.9245 -0.0743
vn -0.9801 0.1983 -0.0000
vn -0.9613 0.1983 -0.1912
vn -0.6931 -0.1983 -0.6931
vn -0.1377 -0.9809 -0.1377
vn -0.6931 0.1983 -0.6931
vn -0.9055 -0.1983 -0.3751
vn -0.9613 -0.1983 -0.1912
vn -0.1909 -0.9809 -0.0380
vn -0.1799 -0.9809 -0.0745
vn -0.9055 0.1983 -0.3751
vn -0.8150 0.1983 -0.5445
vn -0.1619 -0.9809 -0.1082
vn -0.8150 -0.1983 -0.5445
vn -0.9801 -0.1983 -0.0000
vn -0.1825 -0.9832 -0.0000
vn 0.6931 -0.1983 0.6931
vn 0.1377 -0.9809 0.1377
vn 0.6931 0.1983 0.6931
vn -0.0000 0.1983 -0.9801
vn -0.1909 -0.9809 0.0380
vn -0.9613 -0.1983 0.1912
vn -0.3738 0.9245 0.0743
vn -0.9055 0.1983 0.3751
vn -0.9613 0.1983 0.1912
vn -0.1082 -0.9809 0.1619
vn -0.5445 -0.1983 0.8150
vn -0.9055 -0.1983 0.3751
vn -0.1799 -0.9809 0.0745
vn -0.0000 -0.9809 -0.1947
vn -0.0000 -0.1983 -0.9801
vn 0.8150 0.1983 -0.5445
vn 0.9055 0.1983 -0.3751
vn 0.9055 -0.1983 -0.3751
vn 0.8150 -0.1983 -0.5445
vn 0.1619 -0.9809 -0.1082
vn 0.1799 -0.9809 -0.0745
vn 0.6931 0.1983 -0.6931
vn 0.6931 -0.1983 -0.6931
vn 0.1377 -0.9809 -0.1377
vn 0.3738 0.9245 -0.0743
vn 0.9613 0.1983 -0.1912
vn 0.0743 0.9245 -0.3738
vn 0.1912 0.1983 -0.9613
vn 0.0380 -0.9809 -0.1909
vn 0.1912 -0.1983 -0.9613
vn 0.1912 0.1983 0.9613
vn 0.0380 -0.9809 0.1909
vn 0.1912 -0.1983 0.9613
vt 0.876295 0.117967
vt 0.801894 0.117967
vt 0.801894 0.091418
vt 0.876295 0.091418
vt 0.801894 0.065378
vt 0.876295 0.065378
vt 0.801894 0.040849
vt 0.876295 0.040849
vt 0.801894 0.018774
vt 0.876295 0.018774
vt 0.801894 0.000000
vt 0.876295 0.000000
vt 0.876295 0.590608
vt 0.801894 0.590608
vt 0.801894 0.568532
vt 0.876295 0.568532
vt 0.801894 0.544003
vt 0.876295 0.544003
vt 0.801894 0.517964
vt 0.876295 0.517964
vt 0.801894 0.491414
vt 0.876295 0.491414
vt 0.801894 0.465374
vt 0.876295 0.465374
vt 0.801894 0.440845
vt 0.876295 0.440845
vt 0.801894 0.418770
vt 0.876295 0.418770
vt 0.876295 0.762445
vt 0.801894 0.762445
vt 0.801894 0.740370
vt 0.876295 0.740370
vt 0.801894 0.715841
vt 0.876295 0.715841
vt 0.801894 0.689802
vt 0.876295 0.689802
vt 0.801894 0.663252
vt 0.876295 0.663252
vt 0.801894 0.637212
vt 0.876295 0.637212
vt 0.801894 0.612683
vt 0.876295 0.612683
vt 0.801894 0.590608
vt 0.876295 0.418770
vt 0.801894 0.418770
vt 0.801894 0.399996
vt 0.876295 0.399996
vt 0.801894 0.377921
vt 0.876295 0.377921
vt 0.801894 0.353392
vt 0.876295 0.353392
vt 0.801894 0.327352
vt 0.876295 0.327352
vt 0.801894 0.300802
vt 0.876295 0.300802
vt 0.801894 0.274763
vt 0.876295 0.274763
vt 0.801894 0.250234
vt 0.876295 0.250234
vt 0.801894 0.228159
vt 0.876295 0.228159
vt 0.801894 0.209385
vt 0.876295 0.209385
vt 0.876295 0.209385
vt 0.801894 0.209385
vt 0.801894 0.190611
vt 0.876295 0.190611
vt 0.801894 0.168536
vt 0.876295 0.168536
vt 0.801894 0.144007
vt 0.876295 0.144007
vt 0.009783 0.258319
vt 0.024732 0.294409
vt 0.022816 0.295433
vt 0.007704 0.258949
vt 0.967131 0.108620
vt 0.967131 0.148110
vt 0.964969 0.148198
vt 0.964969 0.108532
vt 0.002162 0.220005
vt 0.000000 0.220218
vt 0.967131 0.069889
vt 0.964969 0.069628
vt 0.002162 0.180942
vt 0.000000 0.180729
vt 0.967131 0.033405
vt 0.964969 0.032981
vt 0.009783 0.142628
vt 0.007704 0.141998
vt 0.967131 0.000571
vt 0.964969 -0.000000
vt 0.024732 0.106538
vt 0.022816 0.105514
vt 0.967131 0.540939
vt 0.967131 0.568862
vt 0.964969 0.569558
vt 0.964969 0.541510
vt 0.046435 0.074057
vt 0.044756 0.072679
vt 0.967131 0.508104
vt 0.964969 0.508528
vt 0.074057 0.046435
vt 0.072679 0.044756
vt 0.967131 0.471620
vt 0.964969 0.471881
vt 0.106538 0.024732
vt 0.105514 0.022816
vt 0.967131 0.432889
vt 0.964969 0.432977
vt 0.142628 0.009783
vt 0.141998 0.007704
vt 0.967131 0.393399
vt 0.964969 0.393311
vt 0.180942 0.002162
vt 0.180729 -0.000000
vt 0.967131 0.354668
vt 0.964969 0.354407
vt 0.220006 0.002162
vt 0.220219 0.000000
vt 0.967131 0.318184
vt 0.964969 0.317760
vt 0.258319 0.009783
vt 0.258950 0.007704
vt 0.967131 0.285350
vt 0.964969 0.284779
vt 0.294409 0.024732
vt 0.295433 0.022816
vt 0.967131 0.820931
vt 0.967131 0.853766
vt 0.964969 0.854337
vt 0.964969 0.821356
vt 0.326890 0.046435
vt 0.328268 0.044756
vt 0.967131 0.784447
vt 0.964969 0.784709
vt 0.354512 0.074057
vt 0.356192 0.072679
vt 0.967131 0.745716
vt 0.964969 0.745805
vt 0.376215 0.106538
vt 0.378131 0.105514
vt 0.967131 0.706227
vt 0.964969 0.706138
vt 0.391164 0.142628
vt 0.393243 0.141998
vt 0.967131 0.667496
vt 0.964969 0.667234
vt 0.398785 0.180942
vt 0.400947 0.180729
vt 0.967131 0.631012
vt 0.964969 0.630587
vt 0.398785 0.220006
vt 0.400947 0.220219
vt 0.967131 0.598177
vt 0.964969 0.597606
vt 0.391164 0.258319
vt 0.393243 0.258950
vt 0.967131 0.570253
vt 0.964969 0.569558
vt 0.376215 0.294409
vt 0.378131 0.295433
vt 0.983566 0.251373
vt 0.983566 0.284208
vt 0.981403 0.284779
vt 0.981403 0.251798
vt 0.354512 0.326890
vt 0.356192 0.328268
vt 0.983566 0.214890
vt 0.981403 0.215151
vt 0.326890 0.354512
vt 0.328268 0.356192
vt 0.983566 0.176159
vt 0.981403 0.176247
vt 0.294409 0.376215
vt 0.295433 0.378131
vt 0.983566 0.136669
vt 0.981403 0.136580
vt 0.258319 0.391164
vt 0.258949 0.393243
vt 0.983566 0.097938
vt 0.981403 0.097676
vt 0.220005 0.398785
vt 0.220218 0.400947
vt 0.983566 0.061454
vt 0.981403 0.061030
vt 0.180942 0.398785
vt 0.180729 0.400947
vt 0.983566 0.028619
vt 0.981403 0.028048
vt 0.142628 0.391164
vt 0.141998 0.393243
vt 0.983566 0.000696
vt 0.981403 -0.000000
vt 0.106538 0.376215
vt 0.105514 0.378131
vt 0.967131 0.256160
vt 0.967131 0.284083
vt 0.964969 0.284779
vt 0.964969 0.256731
vt 0.074057 0.354512
vt 0.072679 0.356192
vt 0.967131 0.223325
vt 0.964969 0.223749
vt 0.046435 0.326890
vt 0.044756 0.328268
vt 0.967131 0.186841
vt 0.964969 0.187103
vt 0.952859 0.108532
vt 0.952859 0.148198
vt 0.950696 0.148110
vt 0.950696 0.108620
vt 0.423763 0.295433
vt 0.408651 0.258950
vt 0.410730 0.258319
vt 0.425679 0.294409
vt 0.952859 0.069628
vt 0.950696 0.069889
vt 0.445703 0.328268
vt 0.447382 0.326890
vt 0.952859 0.032981
vt 0.950696 0.033405
vt 0.473626 0.356192
vt 0.475004 0.354512
vt 0.952859 -0.000000
vt 0.950696 0.000571
vt 0.506461 0.378131
vt 0.507485 0.376215
vt 0.952858 0.541510
vt 0.952858 0.569558
vt 0.950696 0.568862
vt 0.950696 0.540939
vt 0.542945 0.393243
vt 0.543575 0.391164
vt 0.952858 0.508528
vt 0.950696 0.508104
vt 0.581676 0.400947
vt 0.581889 0.398785
vt 0.952858 0.471881
vt 0.950696 0.471620
vt 0.621166 0.400947
vt 0.620953 0.398785
vt 0.952859 0.432977
vt 0.950696 0.432889
vt 0.659897 0.393243
vt 0.659266 0.391164
vt 0.952859 0.393311
vt 0.950696 0.393399
vt 0.696380 0.378131
vt 0.695356 0.376215
vt 0.952859 0.354407
vt 0.950696 0.354668
vt 0.729215 0.356192
vt 0.727837 0.354512
vt 0.952859 0.317760
vt 0.950696 0.318184
vt 0.757139 0.328268
vt 0.755459 0.326890
vt 0.952859 0.284779
vt 0.950696 0.285350
vt 0.779078 0.295433
vt 0.777162 0.294409
vt 0.952859 0.821356
vt 0.952859 0.854337
vt 0.950696 0.853766
vt 0.950696 0.820931
vt 0.794190 0.258950
vt 0.792111 0.258319
vt 0.952859 0.784709
vt 0.950696 0.784447
vt 0.801894 0.220219
vt 0.799732 0.220006
vt 0.952859 0.745805
vt 0.950696 0.745716
vt 0.801894 0.180729
vt 0.799732 0.180942
vt 0.952859 0.706138
vt 0.950696 0.706227
vt 0.794190 0.141998
vt 0.792111 0.142628
vt 0.952859 0.667234
vt 0.950696 0.667496
vt 0.779078 0.105514
vt 0.777162 0.106538
vt 0.952859 0.630587
vt 0.950696 0.631012
vt 0.757139 0.072679
vt 0.755459 0.074057
vt 0.952859 0.597606
vt 0.950696 0.598177
vt 0.729215 0.044756
vt 0.727837 0.046435
vt 0.952859 0.569558
vt 0.950697 0.570253
vt 0.696381 0.022816
vt 0.695356 0.024732
vt 0.969293 0.251798
vt 0.969293 0.284779
vt 0.967131 0.284208
vt 0.967131 0.251373
vt 0.659897 0.007704
vt 0.659266 0.009783
vt 0.969293 0.215151
vt 0.967131 0.214890
vt 0.621166 0.000000
vt 0.620953 0.002162
vt 0.969293 0.176247
vt 0.967131 0.176159
vt 0.581676 0.000000
vt 0.581889 0.002162
vt 0.969293 0.136580
vt 0.967131 0.136669
vt 0.542945 0.007704
vt 0.543575 0.009783
vt 0.969293 0.097676
vt 0.967131 0.097938
vt 0.506461 0.022816
vt 0.507485 0.024732
vt 0.969293 0.061030
vt 0.967131 0.061454
vt 0.473626 0.044756
vt 0.475004 0.046435
vt 0.969293 0.028048
vt 0.967131 0.028619
vt 0.445703 0.072679
vt 0.447382 0.074057
vt 0.969293 -0.000000
vt 0.967131 0.000696
vt 0.423763 0.105514
vt 0.425679 0.106538
vt 0.952859 0.256731
vt 0.952859 0.284779
vt 0.950696 0.284083
vt 0.950696 0.256160
vt 0.408651 0.141998
vt 0.410730 0.142628
vt 0.952859 0.223749
vt 0.950696 0.223325
vt 0.400947 0.180729
vt 0.403109 0.180942
vt 0.952859 0.187103
vt 0.950696 0.186841
vt 0.400947 0.220218
vt 0.403109 0.220006
vt 0.065691 0.213748
vt 0.070871 0.239788
vt 0.081031 0.264317
vt 0.095781 0.286392
vt 0.065691 0.187199
vt 0.070871 0.161159
vt 0.081031 0.136630
vt 0.095781 0.114555
vt 0.114555 0.095781
vt 0.136630 0.081031
vt 0.161159 0.070871
vt 0.187199 0.065691
vt 0.213749 0.065691
vt 0.239788 0.070871
vt 0.264317 0.081031
vt 0.286392 0.095781
vt 0.305166 0.114555
vt 0.319916 0.136630
vt 0.330077 0.161159
vt 0.335256 0.187199
vt 0.335256 0.213748
vt 0.330077 0.239788
vt 0.319916 0.264317
vt 0.305166 0.286392
vt 0.286392 0.305166
vt 0.264317 0.319916
vt 0.239788 0.330077
vt 0.213748 0.335256
vt 0.187199 0.335256
vt 0.161159 0.330077
vt 0.136630 0.319916
vt 0.114555 0.305166
vt 0.950696 0.091418
vt 0.950696 0.117967
vt 0.950696 0.065378
vt 0.950696 0.040849
vt 0.950696 0.018774
vt 0.950696 0.000000
vt 0.950696 0.568532
vt 0.950696 0.590608
vt 0.950696 0.544003
vt 0.950696 0.517964
vt 0.950696 0.491414
vt 0.950696 0.465374
vt 0.950696 0.440845
vt 0.950696 0.418770
vt 0.950696 0.740370
vt 0.950696 0.762445
vt 0.950696 0.715841
vt 0.950696 0.689802
vt 0.950696 0.663252
vt 0.950696 0.637212
vt 0.950696 0.612683
vt 0.950696 0.399996
vt 0.950696 0.418770
vt 0.950696 0.377921
vt 0.950696 0.353392
vt 0.950696 0.327352
vt 0.950696 0.300803
vt 0.950696 0.274763
vt 0.950696 0.250234
vt 0.950696 0.228159
vt 0.950696 0.209385
vt 0.950696 0.190611
vt 0.950696 0.168536
vt 0.950696 0.144007
vt 0.046435 0.727837
vt 0.044756 0.729215
vt 0.022816 0.696380
vt 0.024732 0.695356
vt 0.967131 0.393399
vt 0.969293 0.393311
vt 0.969293 0.432977
vt 0.967131 0.432889
vt 0.074057 0.755459
vt 0.072679 0.757139
vt 0.969293 0.354407
vt 0.106538 0.777162
vt 0.105514 0.779078
vt 0.969293 0.317760
vt 0.142628 0.792111
vt 0.141998 0.794190
vt 0.969293 0.284779
vt 0.180942 0.799732
vt 0.180729 0.801894
vt 0.967131 0.825718
vt 0.969293 0.826289
vt 0.969293 0.854337
vt 0.967131 0.853641
vt 0.220005 0.799732
vt 0.220218 0.801894
vt 0.967131 0.792883
vt 0.969293 0.793307
vt 0.258319 0.792111
vt 0.258949 0.794190
vt 0.967131 0.756399
vt 0.969293 0.756660
vt 0.294409 0.777162
vt 0.295433 0.779078
vt 0.967131 0.717668
vt 0.969293 0.717756
vt 0.326890 0.755459
vt 0.328268 0.757139
vt 0.967131 0.678178
vt 0.969293 0.678090
vt 0.354512 0.727837
vt 0.356192 0.729215
vt 0.967131 0.639447
vt 0.969293 0.639186
vt 0.376215 0.695356
vt 0.378131 0.696381
vt 0.967131 0.602963
vt 0.969293 0.602539
vt 0.391164 0.659266
vt 0.393243 0.659897
vt 0.967131 0.570129
vt 0.969293 0.569558
vt 0.398785 0.620953
vt 0.400947 0.621166
vt 0.983565 0.251373
vt 0.985727 0.251798
vt 0.985727 0.284779
vt 0.983565 0.284208
vt 0.398785 0.581889
vt 0.400947 0.581676
vt 0.983565 0.214890
vt 0.985727 0.215151
vt 0.391164 0.543575
vt 0.393243 0.542945
vt 0.983565 0.176159
vt 0.985727 0.176247
vt 0.376215 0.507485
vt 0.378131 0.506461
vt 0.983565 0.136669
vt 0.985727 0.136580
vt 0.354512 0.475004
vt 0.356192 0.473626
vt 0.983565 0.097938
vt 0.985727 0.097676
vt 0.326890 0.447382
vt 0.328268 0.445703
vt 0.983566 0.061454
vt 0.985727 0.061030
vt 0.294409 0.425679
vt 0.295433 0.423763
vt 0.983566 0.028619
vt 0.985728 0.028048
vt 0.258319 0.410730
vt 0.258950 0.408651
vt 0.983566 0.000696
vt 0.985728 0.000000
vt 0.220006 0.403109
vt 0.220219 0.400947
vt 0.983566 0.536152
vt 0.985728 0.536577
vt 0.985728 0.569558
vt 0.983566 0.568987
vt 0.180942 0.403109
vt 0.180729 0.400947
vt 0.983566 0.499669
vt 0.985728 0.499930
vt 0.142628 0.410730
vt 0.141998 0.408651
vt 0.983566 0.460937
vt 0.985728 0.461026
vt 0.106538 0.425679
vt 0.105514 0.423763
vt 0.983566 0.421448
vt 0.985728 0.421359
vt 0.074057 0.447382
vt 0.072679 0.445703
vt 0.983566 0.382717
vt 0.985728 0.382455
vt 0.046435 0.475004
vt 0.044756 0.473626
vt 0.983566 0.346233
vt 0.985728 0.345808
vt 0.024732 0.507485
vt 0.022816 0.506461
vt 0.983566 0.313398
vt 0.985728 0.312827
vt 0.009783 0.543575
vt 0.007704 0.542945
vt 0.983566 0.285475
vt 0.985728 0.284779
vt 0.002162 0.581889
vt 0.000000 0.581676
vt 0.967131 0.540939
vt 0.969293 0.541510
vt 0.969293 0.569558
vt 0.967131 0.568862
vt 0.002162 0.620953
vt 0.000000 0.621166
vt 0.967131 0.508104
vt 0.969293 0.508528
vt 0.009783 0.659266
vt 0.007704 0.659897
vt 0.967131 0.471620
vt 0.969293 0.471881
vt 0.981403 0.393311
vt 0.983565 0.393399
vt 0.983565 0.432889
vt 0.981403 0.432977
vt 0.400947 0.621166
vt 0.403109 0.620953
vt 0.410730 0.659266
vt 0.408651 0.659897
vt 0.981403 0.354407
vt 0.983565 0.354668
vt 0.400947 0.581676
vt 0.403109 0.581889
vt 0.981403 0.317760
vt 0.983565 0.318184
vt 0.408651 0.542945
vt 0.410730 0.543575
vt 0.981403 0.284779
vt 0.983565 0.285350
vt 0.423763 0.506461
vt 0.425679 0.507485
vt 0.981403 0.826289
vt 0.983565 0.825718
vt 0.983565 0.853641
vt 0.981403 0.854337
vt 0.445703 0.473626
vt 0.447382 0.475004
vt 0.981403 0.793307
vt 0.983565 0.792883
vt 0.473626 0.445703
vt 0.475004 0.447382
vt 0.981403 0.756660
vt 0.983565 0.756399
vt 0.506461 0.423763
vt 0.507485 0.425679
vt 0.981403 0.717756
vt 0.983566 0.717668
vt 0.542945 0.408651
vt 0.543575 0.410730
vt 0.981403 0.678090
vt 0.983566 0.678178
vt 0.581676 0.400947
vt 0.581889 0.403109
vt 0.981403 0.639186
vt 0.983566 0.639447
vt 0.621166 0.400947
vt 0.620953 0.403109
vt 0.981403 0.602539
vt 0.983566 0.602963
vt 0.659897 0.408651
vt 0.659266 0.410730
vt 0.981403 0.569558
vt 0.983566 0.570129
vt 0.696381 0.423763
vt 0.695356 0.425679
vt 0.997838 0.251798
vt 1.000000 0.251373
vt 1.000000 0.284208
vt 0.997838 0.284779
vt 0.729215 0.445703
vt 0.727837 0.447382
vt 0.997838 0.215151
vt 1.000000 0.214890
vt 0.757139 0.473626
vt 0.755459 0.475005
vt 0.997838 0.176247
vt 1.000000 0.176159
vt 0.779078 0.506461
vt 0.777162 0.507485
vt 0.997838 0.136580
vt 1.000000 0.136669
vt 0.794190 0.542945
vt 0.792111 0.543575
vt 0.997838 0.097676
vt 1.000000 0.097938
vt 0.801894 0.581676
vt 0.799732 0.581889
vt 0.997838 0.061030
vt 1.000000 0.061454
vt 0.801894 0.621166
vt 0.799732 0.620953
vt 0.997838 0.028048
vt 1.000000 0.028619
vt 0.794190 0.659897
vt 0.792111 0.659266
vt 0.997838 0.000000
vt 1.000000 0.000696
vt 0.779078 0.696381
vt 0.777162 0.695356
vt 0.997838 0.536577
vt 1.000000 0.536152
vt 1.000000 0.568987
vt 0.997838 0.569558
vt 0.757139 0.729215
vt 0.755459 0.727837
vt 0.997838 0.499930
vt 1.000000 0.499669
vt 0.729215 0.757139
vt 0.727837 0.755459
vt 0.997838 0.461026
vt 1.000000 0.460937
vt 0.696380 0.779078
vt 0.695356 0.777162
vt 0.997838 0.421359
vt 1.000000 0.421448
vt 0.659897 0.794190
vt 0.659266 0.792111
vt 0.997838 0.382455
vt 1.000000 0.382717
vt 0.621166 0.801894
vt 0.620953 0.799732
vt 0.997838 0.345809
vt 1.000000 0.346233
vt 0.581676 0.801894
vt 0.581889 0.799732
vt 0.997838 0.312827
vt 1.000000 0.313398
vt 0.542945 0.794190
vt 0.543575 0.792111
vt 0.997838 0.284779
vt 1.000000 0.285475
vt 0.506461 0.779078
vt 0.507485 0.777162
vt 0.981403 0.541510
vt 0.983565 0.540939
vt 0.983565 0.568862
vt 0.981403 0.569558
vt 0.473626 0.757139
vt 0.475004 0.755459
vt 0.981403 0.508528
vt 0.983565 0.508104
vt 0.445703 0.729215
vt 0.447382 0.727837
vt 0.981403 0.471881
vt 0.983565 0.471620
vt 0.423763 0.696381
vt 0.425679 0.695356
vt 0.114555 0.706113
vt 0.095781 0.687340
vt 0.081031 0.665264
vt 0.070871 0.640735
vt 0.136630 0.720863
vt 0.161159 0.731024
vt 0.187199 0.736203
vt 0.213748 0.736203
vt 0.239788 0.731024
vt 0.264317 0.720864
vt 0.286392 0.706113
vt 0.305166 0.687340
vt 0.319916 0.665264
vt 0.330077 0.640735
vt 0.335256 0.614696
vt 0.335256 0.588146
vt 0.330077 0.562106
vt 0.319916 0.537577
vt 0.305166 0.515502
vt 0.286392 0.496728
vt 0.264317 0.481978
vt 0.239788 0.471818
vt 0.213749 0.466638
vt 0.187199 0.466638
vt 0.161159 0.471818
vt 0.136630 0.481978
vt 0.114555 0.496728
vt 0.095781 0.515502
vt 0.081031 0.537577
vt 0.070871 0.562106
vt 0.065691 0.588146
vt 0.065691 0.614696
vt 0.592325 0.693773
vt 0.574483 0.690224
vt 0.576182 0.684621
vt 0.592899 0.687946
vt 0.187500 0.575696
vt 0.156250 0.575696
vt 0.156250 0.581309
vt 0.187500 0.581310
vt 0.529686 0.141603
vt 0.542550 0.128739
vt 0.546264 0.133265
vt 0.534212 0.145317
vt 0.156250 0.754171
vt 0.187500 0.754171
vt 0.187500 0.748558
vt 0.156250 0.748558
vt 0.937500 0.581310
vt 0.968750 0.581309
vt 0.968750 0.575696
vt 0.937500 0.575696
vt 0.514895 0.592899
vt 0.514895 0.609943
vt 0.509069 0.610516
vt 0.509069 0.592325
vt 0.529686 0.259345
vt 0.519579 0.244219
vt 0.524743 0.241459
vt 0.534212 0.255631
vt 0.937500 0.754171
vt 0.968750 0.754171
vt 0.968750 0.748558
vt 0.937500 0.748558
vt 0.218750 0.581310
vt 0.218750 0.575696
vt 0.609943 0.687946
vt 0.610517 0.693773
vt 0.557676 0.118632
vt 0.560436 0.123796
vt 0.218750 0.754171
vt 0.218750 0.748558
vt 1.000000 0.581310
vt 1.000000 0.575696
vt 0.518220 0.626659
vt 0.512618 0.628359
vt 0.512618 0.227412
vt 0.518220 0.225712
vt 1.000000 0.754171
vt 1.000000 0.748558
vt 0.519579 0.557676
vt 0.529686 0.542550
vt 0.534212 0.546264
vt 0.524743 0.560435
vt 0.875000 0.575696
vt 0.843750 0.575696
vt 0.843750 0.581309
vt 0.875000 0.581309
vt 0.557675 0.282315
vt 0.542550 0.272208
vt 0.546264 0.267682
vt 0.560435 0.277152
vt 0.875000 0.754171
vt 0.906250 0.754171
vt 0.906250 0.748558
vt 0.875000 0.748558
vt 0.562500 0.581309
vt 0.593750 0.581309
vt 0.593750 0.575696
vt 0.562500 0.575696
vt 0.668629 0.546264
vt 0.656578 0.534212
vt 0.660292 0.529686
vt 0.673155 0.542550
vt 0.693773 0.209569
vt 0.690223 0.227412
vt 0.684621 0.225712
vt 0.687946 0.208996
vt 0.562500 0.754171
vt 0.593750 0.754171
vt 0.593750 0.748558
vt 0.562500 0.748558
vt 0.574483 0.289277
vt 0.576182 0.283674
vt 0.843750 0.754171
vt 0.843750 0.748558
vt 0.531250 0.581309
vt 0.531250 0.575696
vt 0.678099 0.560436
vt 0.683262 0.557676
vt 0.693772 0.191378
vt 0.687946 0.191952
vt 0.531250 0.754171
vt 0.531250 0.748558
vt 0.693772 0.610516
vt 0.690223 0.628359
vt 0.684621 0.626659
vt 0.687946 0.609943
vt 0.437500 0.575696
vt 0.406250 0.575696
vt 0.406250 0.581309
vt 0.437500 0.581310
vt 0.250000 0.581310
vt 0.281250 0.581310
vt 0.281250 0.575696
vt 0.250000 0.575696
vt 0.626659 0.684621
vt 0.642406 0.678099
vt 0.645166 0.683262
vt 0.628359 0.690224
vt 0.062500 0.581309
vt 0.093750 0.581309
vt 0.093750 0.575696
vt 0.062500 0.575696
vt 0.534212 0.656578
vt 0.546264 0.668630
vt 0.542550 0.673155
vt 0.529686 0.660292
vt 0.509069 0.191378
vt 0.512618 0.173536
vt 0.518220 0.175235
vt 0.514895 0.191952
vt 0.062500 0.754171
vt 0.093750 0.754171
vt 0.093750 0.748558
vt 0.062500 0.748558
vt 0.660292 0.128739
vt 0.673155 0.141603
vt 0.668630 0.145317
vt 0.656578 0.133265
vt 0.406250 0.754171
vt 0.437500 0.754171
vt 0.437500 0.748558
vt 0.406250 0.748558
vt 0.574483 0.111671
vt 0.576182 0.117273
vt 0.250000 0.754171
vt 0.250000 0.748558
vt 0.645166 0.282315
vt 0.628359 0.289277
vt 0.626659 0.283674
vt 0.642406 0.277152
vt 0.718750 0.754171
vt 0.750000 0.754171
vt 0.750000 0.748558
vt 0.718750 0.748558
vt 0.625000 0.581309
vt 0.625000 0.575696
vt 0.642406 0.524743
vt 0.645166 0.519580
vt 0.683262 0.244219
vt 0.678099 0.241459
vt 0.625000 0.754171
vt 0.625000 0.748558
vt 0.687500 0.581310
vt 0.718750 0.581310
vt 0.718750 0.575696
vt 0.687500 0.575696
vt 0.609943 0.514895
vt 0.592899 0.514895
vt 0.592325 0.509069
vt 0.610517 0.509069
vt 0.660292 0.272208
vt 0.656577 0.267682
vt 0.687500 0.754171
vt 0.687500 0.748558
vt 0.673155 0.259345
vt 0.668630 0.255631
vt 0.656250 0.754171
vt 0.656250 0.748558
vt 0.628359 0.512618
vt 0.626659 0.518220
vt 0.656250 0.575696
vt 0.656250 0.581309
vt 0.750000 0.581310
vt 0.750000 0.575696
vt 0.576182 0.518220
vt 0.574483 0.512618
vt 0.125000 0.581309
vt 0.125000 0.575696
vt 0.560435 0.678099
vt 0.557676 0.683262
vt 0.519579 0.156729
vt 0.524743 0.159488
vt 0.125000 0.754171
vt 0.125000 0.748558
vt 0.690224 0.173536
vt 0.684621 0.175235
vt 0.500000 0.754171
vt 0.500000 0.748558
vt 0.557676 0.519579
vt 0.560436 0.524743
vt 0.781250 0.575696
vt 0.781250 0.581310
vt 0.610517 0.292826
vt 0.592325 0.292826
vt 0.592899 0.286999
vt 0.609943 0.286999
vt 0.781250 0.754171
vt 0.812500 0.754171
vt 0.812500 0.748558
vt 0.781250 0.748558
vt 0.512618 0.574483
vt 0.518220 0.576182
vt 0.906250 0.575696
vt 0.906250 0.581309
vt 0.812500 0.581310
vt 0.812500 0.575696
vt 0.546264 0.534212
vt 0.542550 0.529686
vt 0.690223 0.574483
vt 0.684621 0.576182
vt 0.500000 0.575696
vt 0.500000 0.581310
vt 0.610517 0.108122
vt 0.628359 0.111671
vt 0.626659 0.117273
vt 0.609943 0.113948
vt 0.312500 0.754171
vt 0.343750 0.754171
vt 0.343750 0.748558
vt 0.312500 0.748558
vt 0.312500 0.581310
vt 0.343750 0.581309
vt 0.343750 0.575696
vt 0.312500 0.575696
vt 0.656577 0.668630
vt 0.668629 0.656578
vt 0.673155 0.660292
vt 0.660292 0.673155
vt 0.645166 0.118632
vt 0.642406 0.123796
vt 0.375000 0.754171
vt 0.375000 0.748558
vt 0.375000 0.581309
vt 0.375000 0.575696
vt 0.678099 0.642406
vt 0.683262 0.645166
vt 0.592325 0.108122
vt 0.592899 0.113948
vt 0.281250 0.754171
vt 0.281250 0.748558
vt 0.683262 0.156729
vt 0.678099 0.159488
vt 0.468750 0.754171
vt 0.468750 0.748558
vt 0.693772 0.592325
vt 0.687946 0.592899
vt 0.468750 0.575696
vt 0.468750 0.581309
vt 0.509069 0.209569
vt 0.514895 0.208996
vt 0.000000 0.754171
vt 0.031250 0.754171
vt 0.031250 0.748558
vt 0.000000 0.748558
vt 0.519579 0.645166
vt 0.524743 0.642406
vt 0.031250 0.575696
vt 0.000000 0.575696
vt 0.000000 0.581309
vt 0.031250 0.581309
s 1
usemtl spool
f 33/1/1 1/2/1 2/3/2 34/4/2
f 34/4/2 2/3/2 3/5/3 35/6/3
f 35/6/3 3/5/3 4/7/4 36/8/4
f 36/8/4 4/7/4 5/9/5 37/10/5
f 37/10/5 5/9/5 6/11/6 38/12/6
f 38/13/6 6/14/6 7/15/7 39/16/7
f 39/16/7 7/15/7 8/17/8 40/18/8
f 40/18/8 8/17/8 9/19/9 41/20/9
f 41/20/9 9/19/9 10/21/10 42/22/10
f 42/22/10 10/21/10 11/23/11 43/24/11
f 43/24/11 11/23/11 12/25/12 44/26/12
f 44/26/12 12/25/12 13/27/13 45/28/13
f 45/29/13 13/30/13 14/31/14 46/32/14
f 46/32/14 14/31/14 15/33/15 47/34/15
f 47/34/15 15/33/15 16/35/16 48/36/16
f 48/36/16 16/35/16 17/37/17 49/38/17
f 49/38/17 17/37/17 18/39/18 50/40/18
f 50/40/18 18/39/18 19/41/19 51/42/19
f 51/42/19 19/41/19 20/43/20 52/13/20
f 52/44/20 20/45/20 21/46/21 53/47/21
f 53/47/21 21/46/21 22/48/22 54/49/22
f 54/49/22 22/48/22 23/50/23 55/51/23
f 55/51/23 23/50/23 24/52/24 56/53/24
f 56/53/24 24/52/24 25/54/25 57/55/25
f 57/55/25 25/54/25 26/56/26 58/57/26
f 58/57/26 26/56/26 27/58/27 59/59/27
f 59/59/27 27/58/27 28/60/28 60/61/28
f 60/61/28 28/60/28 29/62/29 61/63/29
f 61/64/29 29/65/29 30/66/30 62/67/30
f 62/67/30 30/66/30 31/68/31 63/69/31
f 63/69/31 31/68/31 32/70/32 64/71/32
f 64/71/32 32/70/32 1/2/1 33/1/1
f 66/72/33 68/73/34 70/74/35 67/75/36
f 67/76/37 70/77/38 69/78/39 65/79/40
f 72/80/41 66/72/33 67/75/36 73/81/42
f 73/82/43 67/76/37 65/79/40 71/83/44
f 75/84/45 72/80/41 73/81/42 76/85/46
f 76/86/47 73/82/43 71/83/44 74/87/48
f 78/88/49 75/84/45 76/85/46 79/89/50
f 79/90/51 76/86/47 74/87/48 77/91/52
f 81/92/53 78/88/49 79/89/50 82/93/54
f 82/94/55 79/95/51 77/96/52 80/97/56
f 84/98/57 81/92/53 82/93/54 85/99/58
f 85/100/59 82/94/55 80/97/56 83/101/60
f 87/102/61 84/98/57 85/99/58 88/103/62
f 88/104/63 85/100/59 83/101/60 86/105/64
f 90/106/65 87/102/61 88/103/62 91/107/66
f 91/108/67 88/104/63 86/105/64 89/109/68
f 93/110/69 90/106/65 91/107/66 94/111/70
f 94/112/71 91/108/67 89/109/68 92/113/72
f 96/114/73 93/110/69 94/111/70 97/115/74
f 97/116/75 94/112/71 92/113/72 95/117/76
f 99/118/77 96/114/73 97/115/74 100/119/78
f 100/120/79 97/116/75 95/117/76 98/121/80
f 102/122/81 99/118/77 100/119/78 103/123/82
f 103/124/83 100/120/79 98/121/80 101/125/84
f 105/126/85 102/122/81 103/123/82 106/127/86
f 106/128/87 103/129/83 101/130/84 104/131/88
f 108/132/89 105/126/85 106/127/86 109/133/90
f 109/134/91 106/128/87 104/131/88 107/135/92
f 111/136/93 108/132/89 109/133/90 112/137/94
f 112/138/95 109/134/91 107/135/92 110/139/96
f 114/140/97 111/136/93 112/137/94 115/141/98
f 115/142/99 112/138/95 110/139/96 113/143/100
f 117/144/101 114/140/97 115/141/98 118/145/102
f 118/146/103 115/142/99 113/143/100 116/147/104
f 120/148/105 117/144/101 118/145/102 121/149/106
f 121/150/107 118/146/103 116/147/104 119/151/108
f 123/152/109 120/148/105 121/149/106 124/153/110
f 124/154/111 121/150/107 119/151/108 122/155/112
f 126/156/113 123/152/109 124/153/110 127/157/114
f 127/158/115 124/154/111 122/155/112 125/159/116
f 129/160/117 126/156/113 127/157/114 130/161/118
f 130/162/119 127/163/115 125/164/116 128/165/120
f 132/166/121 129/160/117 130/161/118 133/167/122
f 133/168/123 130/162/119 128/165/120 131/169/124
f 135/170/125 132/166/121 133/167/122 136/171/126
f 136/172/127 133/168/123 131/169/124 134/173/128
f 138/174/129 135/170/125 136/171/126 139/175/130
f 139/176/131 136/172/127 134/173/128 137/177/132
f 141/178/133 138/174/129 139/175/130 142/179/134
f 142/180/135 139/176/131 137/177/132 140/181/136
f 144/182/137 141/178/133 142/179/134 145/183/138
f 145/184/139 142/180/135 140/181/136 143/185/140
f 147/186/141 144/182/137 145/183/138 148/187/142
f 148/188/143 145/184/139 143/185/140 146/189/144
f 150/190/145 147/186/141 148/187/142 151/191/146
f 151/192/147 148/188/143 146/189/144 149/193/148
f 153/194/149 150/190/145 151/191/146 154/195/150
f 154/196/151 151/197/147 149/198/148 152/199/152
f 156/200/153 153/194/149 154/195/150 157/201/154
f 157/202/155 154/196/151 152/199/152 155/203/156
f 159/204/157 156/200/153 157/201/154 160/205/158
f 160/206/159 157/202/155 155/203/156 158/207/160
f 68/73/34 159/204/157 160/205/158 70/74/35
f 70/77/38 160/206/159 158/207/160 69/78/39
f 162/208/161 164/209/162 166/210/163 163/211/164
f 163/212/165 166/213/166 165/214/166 161/215/165
f 168/216/167 162/208/161 163/211/164 169/217/168
f 169/218/169 163/212/165 161/215/165 167/219/169
f 171/220/170 168/216/167 169/217/168 172/221/171
f 172/222/172 169/218/169 167/219/169 170/223/172
f 174/224/173 171/220/170 172/221/171 175/225/174
f 175/226/175 172/222/172 170/223/172 173/227/175
f 177/228/176 174/229/173 175/230/174 178/231/177
f 178/232/178 175/226/175 173/227/175 176/233/178
f 180/234/179 177/228/176 178/231/177 181/235/180
f 181/236/181 178/232/178 176/233/178 179/237/181
f 183/238/182 180/234/179 181/235/180 184/239/183
f 184/240/184 181/236/181 179/237/181 182/241/184
f 186/242/185 183/238/182 184/239/183 187/243/186
f 187/244/187 184/240/184 182/241/184 185/245/188
f 189/246/189 186/242/185 187/243/186 190/247/190
f 190/248/191 187/244/187 185/245/188 188/249/192
f 192/250/193 189/246/189 190/247/190 193/251/194
f 193/252/195 190/248/191 188/249/192 191/253/196
f 195/254/197 192/250/193 193/251/194 196/255/198
f 196/256/199 193/252/195 191/253/196 194/257/200
f 198/258/201 195/254/197 196/255/198 199/259/202
f 199/260/203 196/256/199 194/257/200 197/261/204
f 201/262/205 198/263/201 199/264/202 202/265/206
f 202/266/207 199/260/203 197/261/204 200/267/208
f 204/268/209 201/262/205 202/265/206 205/269/210
f 205/270/211 202/266/207 200/267/208 203/271/212
f 207/272/213 204/268/209 205/269/210 208/273/214
f 208/274/215 205/270/211 203/271/212 206/275/216
f 210/276/217 207/272/213 208/273/214 211/277/218
f 211/278/219 208/274/215 206/275/216 209/279/220
f 213/280/221 210/276/217 211/277/218 214/281/222
f 214/282/223 211/278/219 209/279/220 212/283/224
f 216/284/225 213/280/221 214/281/222 217/285/226
f 217/286/227 214/282/223 212/283/224 215/287/228
f 219/288/229 216/284/225 217/285/226 220/289/230
f 220/290/231 217/286/227 215/287/228 218/291/232
f 222/292/233 219/288/229 220/289/230 223/293/234
f 223/294/235 220/290/231 218/291/232 221/295/236
f 225/296/237 222/297/233 223/298/234 226/299/238
f 226/300/239 223/294/235 221/295/236 224/301/240
f 228/302/241 225/296/237 226/299/238 229/303/242
f 229/304/243 226/300/239 224/301/240 227/305/244
f 231/306/245 228/302/241 229/303/242 232/307/246
f 232/308/247 229/304/243 227/305/244 230/309/248
f 234/310/249 231/306/245 232/307/246 235/311/250
f 235/312/251 232/308/247 230/309/248 233/313/252
f 237/314/253 234/310/249 235/311/250 238/315/254
f 238/316/255 235/312/251 233/313/252 236/317/255
f 240/318/256 237/314/253 238/315/254 241/319/257
f 241/320/258 238/316/255 236/317/255 239/321/258
f 243/322/259 240/318/256 241/319/257 244/323/260
f 244/324/261 241/320/258 239/321/258 242/325/261
f 246/326/262 243/322/259 244/323/260 247/327/263
f 247/328/264 244/324/261 242/325/261 245/329/264
f 249/330/265 246/331/262 247/332/263 250/333/266
f 250/334/267 247/328/264 245/329/264 248/335/267
f 252/336/268 249/330/265 250/333/266 253/337/269
f 253/338/270 250/334/267 248/335/267 251/339/270
f 255/340/271 252/336/268 253/337/269 256/341/272
f 256/342/273 253/338/270 251/339/270 254/343/273
f 164/209/162 255/340/271 256/341/272 166/210/163
f 166/213/166 256/342/273 254/343/273 165/214/166
f 65/79/40 69/78/39 164/209/162 162/208/161
f 3/344/274 2/345/274 66/72/33 72/80/41
f 2/345/274 1/346/274 68/73/34 66/72/33
f 71/83/44 65/79/40 162/208/161 168/216/167
f 69/78/39 158/207/160 255/340/271 164/209/162
f 1/346/274 32/347/274 159/204/157 68/73/34
f 4/348/274 3/344/274 72/80/41 75/84/45
f 74/87/48 71/83/44 168/216/167 171/220/170
f 5/349/274 4/348/274 75/84/45 78/88/49
f 77/91/52 74/87/48 171/220/170 174/224/173
f 6/350/274 5/349/274 78/88/49 81/92/53
f 80/97/56 77/96/52 174/229/173 177/228/176
f 7/351/274 6/350/274 81/92/53 84/98/57
f 83/101/60 80/97/56 177/228/176 180/234/179
f 8/352/274 7/351/274 84/98/57 87/102/61
f 86/105/64 83/101/60 180/234/179 183/238/182
f 9/353/274 8/352/274 87/102/61 90/106/65
f 89/109/68 86/105/64 183/238/182 186/242/185
f 10/354/274 9/353/274 90/106/65 93/110/69
f 92/113/72 89/109/68 186/242/185 189/246/189
f 11/355/274 10/354/274 93/110/69 96/114/73
f 95/117/76 92/113/72 189/246/189 192/250/193
f 12/356/274 11/355/274 96/114/73 99/118/77
f 98/121/80 95/117/76 192/250/193 195/254/197
f 13/357/274 12/356/274 99/118/77 102/122/81
f 101/125/84 98/121/80 195/254/197 198/258/201
f 14/358/274 13/357/274 102/122/81 105/126/85
f 104/131/88 101/130/84 198/263/201 201/262/205
f 15/359/274 14/358/274 105/126/85 108/132/89
f 107/135/92 104/131/88 201/262/205 204/268/209
f 16/360/274 15/359/274 108/132/89 111/136/93
f 110/139/96 107/135/92 204/268/209 207/272/213
f 17/361/274 16/360/274 111/136/93 114/140/97
f 113/143/100 110/139/96 207/272/213 210/276/217
f 18/362/274 17/361/274 114/140/97 117/144/101
f 116/147/104 113/143/100 210/276/217 213/280/221
f 19/363/274 18/362/274 117/144/101 120/148/105
f 119/151/108 116/147/104 213/280/221 216/284/225
f 20/364/274 19/363/274 120/148/105 123/152/109
f 122/155/112 119/151/108 216/284/225 219/288/229
f 21/365/274 20/364/274 123/152/109 126/156/113
f 125/159/116 122/155/112 219/288/229 222/292/233
f 22/366/274 21/365/274 126/156/113 129/160/117
f 128/165/120 125/164/116 222/297/233 225/296/237
f 23/367/274 22/366/274 129/160/117 132/166/121
f 131/169/124 128/165/120 225/296/237 228/302/241
f 24/368/274 23/367/274 132/166/121 135/170/125
f 134/173/128 131/169/124 228/302/241 231/306/245
f 25/369/274 24/368/274 135/170/125 138/174/129
f 137/177/132 134/173/128 231/306/245 234/310/249
f 26/370/274 25/369/274 138/174/129 141/178/133
f 140/181/136 137/177/132 234/310/249 237/314/253
f 27/371/274 26/370/274 141/178/133 144/182/137
f 143/185/140 140/181/136 237/314/253 240/318/256
f 146/189/144 143/185/140 240/318/256 243/322/259
f 28/372/274 27/371/274 144/182/137 147/186/141
f 29/373/274 28/372/274 147/186/141 150/190/145
f 149/193/148 146/189/144 243/322/259 246/326/262
f 30/374/274 29/373/274 150/190/145 153/194/149
f 152/199/152 149/198/148 246/331/262 249/330/265
f 31/375/274 30/374/274 153/194/149 156/200/153
f 155/203/156 152/199/152 249/330/265 252/336/268
f 32/347/274 31/375/274 156/200/153 159/204/157
f 158/207/160 155/203/156 252/336/268 255/340/271
f 33/1/1 34/4/2 258/376/2 257/377/1
f 34/4/2 35/6/3 259/378/3 258/376/2
f 35/6/3 36/8/4 260/379/4 259/378/3
f 36/8/4 37/10/5 261/380/5 260/379/4
f 37/10/5 38/12/6 262/381/6 261/380/5
f 38/13/6 39/16/7 263/382/7 262/383/6
f 39/16/7 40/18/8 264/384/8 263/382/7
f 40/18/8 41/20/9 265/385/9 264/384/8
f 41/20/9 42/22/10 266/386/10 265/385/9
f 42/22/10 43/24/11 267/387/11 266/386/10
f 43/24/11 44/26/12 268/388/12 267/387/11
f 44/26/12 45/28/13 269/389/13 268/388/12
f 45/29/13 46/32/14 270/390/14 269/391/13
f 46/32/14 47/34/15 271/392/15 270/390/14
f 47/34/15 48/36/16 272/393/16 271/392/15
f 48/36/16 49/38/17 273/394/17 272/393/16
f 49/38/17 50/40/18 274/395/18 273/394/17
f 50/40/18 51/42/19 275/396/19 274/395/18
f 51/42/19 52/13/20 276/383/20 275/396/19
f 52/44/20 53/47/21 277/397/21 276/398/20
f 53/47/21 54/49/22 278/399/22 277/397/21
f 54/49/22 55/51/23 279/400/23 278/399/22
f 55/51/23 56/53/24 280/401/24 279/400/23
f 56/53/24 57/55/25 281/402/25 280/401/24
f 57/55/25 58/57/26 282/403/26 281/402/25
f 58/57/26 59/59/27 283/404/27 282/403/26
f 59/59/27 60/61/28 284/405/28 283/404/27
f 60/61/28 61/63/29 285/406/29 284/405/28
f 61/64/29 62/67/30 286/407/30 285/406/29
f 62/67/30 63/69/31 287/408/31 286/407/30
f 63/69/31 64/71/32 288/409/32 287/408/31
f 64/71/32 33/1/1 257/377/1 288/409/32
f 290/410/275 291/411/165 294/412/166 292/413/276
f 291/414/164 289/415/161 293/416/162 294/417/163
f 296/418/277 297/419/169 291/411/165 290/410/275
f 297/116/168 295/420/167 289/415/161 291/414/164
f 299/421/278 300/422/172 297/419/169 296/418/277
f 300/120/171 298/423/170 295/420/167 297/116/168
f 302/424/279 303/425/175 300/422/172 299/421/278
f 303/124/174 301/426/173 298/423/170 300/120/171
f 305/427/280 306/428/178 303/425/175 302/424/279
f 306/429/177 304/430/176 301/431/173 303/432/174
f 308/433/281 309/434/181 306/428/178 305/427/280
f 309/435/180 307/436/179 304/430/176 306/429/177
f 311/437/282 312/438/184 309/434/181 308/433/281
f 312/439/183 310/440/182 307/436/179 309/435/180
f 314/441/188 315/442/187 312/438/184 311/437/282
f 315/443/186 313/444/185 310/440/182 312/439/183
f 317/445/192 318/446/191 315/442/187 314/441/188
f 318/447/190 316/448/189 313/444/185 315/443/186
f 320/449/196 321/450/195 318/446/191 317/445/192
f 321/451/194 319/452/193 316/448/189 318/447/190
f 323/453/200 324/454/199 321/450/195 320/449/196
f 324/455/198 322/456/197 319/452/193 321/451/194
f 326/457/204 327/458/203 324/454/199 323/453/200
f 327/459/202 325/460/201 322/456/197 324/455/198
f 329/461/208 330/462/207 327/458/203 326/457/204
f 330/463/206 328/464/205 325/465/201 327/466/202
f 332/467/212 333/468/211 330/462/207 329/461/208
f 333/469/210 331/470/209 328/464/205 330/463/206
f 335/471/216 336/472/215 333/468/211 332/467/212
f 336/473/214 334/474/213 331/470/209 333/469/210
f 338/475/220 339/476/219 336/472/215 335/471/216
f 339/477/218 337/478/217 334/474/213 336/473/214
f 341/479/224 342/480/223 339/476/219 338/475/220
f 342/481/222 340/482/221 337/478/217 339/477/218
f 344/483/228 345/484/227 342/480/223 341/479/224
f 345/485/226 343/486/225 340/482/221 342/481/222
f 347/487/232 348/488/231 345/484/227 344/483/228
f 348/489/230 346/490/229 343/486/225 345/485/226
f 350/491/236 351/492/235 348/488/231 347/487/232
f 351/493/234 349/494/233 346/490/229 348/489/230
f 353/495/240 354/496/239 351/492/235 350/491/236
f 354/497/238 352/498/237 349/499/233 351/500/234
f 356/501/244 357/502/243 354/496/239 353/495/240
f 357/503/242 355/504/241 352/498/237 354/497/238
f 359/505/248 360/506/247 357/502/243 356/501/244
f 360/507/246 358/508/245 355/504/241 357/503/242
f 362/509/252 363/510/251 360/506/247 359/505/248
f 363/511/250 361/512/249 358/508/245 360/507/246
f 365/513/283 366/514/255 363/510/251 362/509/252
f 366/515/254 364/516/253 361/512/249 363/511/250
f 368/517/284 369/518/258 366/514/255 365/513/283
f 369/519/257 367/520/256 364/516/253 366/515/254
f 371/521/285 372/522/261 369/518/258 368/517/284
f 372/523/260 370/524/259 367/520/256 369/519/257
f 374/525/286 375/526/264 372/522/261 371/521/285
f 375/527/263 373/528/262 370/524/259 372/523/260
f 377/529/287 378/530/267 375/526/264 374/525/286
f 378/531/266 376/532/265 373/533/262 375/534/263
f 380/535/288 381/536/270 378/530/267 377/529/287
f 381/537/269 379/538/268 376/532/265 378/531/266
f 383/539/289 384/540/273 381/536/270 380/535/288
f 384/541/272 382/542/271 379/538/268 381/537/269
f 292/413/276 294/412/166 384/540/273 383/539/289
f 294/417/163 293/416/162 382/542/271 384/541/272
f 386/543/40 387/544/37 390/545/38 388/546/39
f 387/547/36 385/548/33 389/549/34 390/550/35
f 392/551/44 393/552/290 387/544/37 386/543/40
f 393/553/42 391/554/41 385/548/33 387/547/36
f 395/555/48 396/556/47 393/552/290 392/551/44
f 396/557/46 394/558/45 391/554/41 393/553/42
f 398/559/52 399/560/51 396/556/47 395/555/48
f 399/561/50 397/562/49 394/558/45 396/557/46
f 401/563/56 402/564/55 399/565/51 398/566/52
f 402/567/54 400/568/53 397/562/49 399/561/50
f 404/569/60 405/570/59 402/564/55 401/563/56
f 405/571/58 403/572/57 400/568/53 402/567/54
f 407/573/64 408/574/63 405/570/59 404/569/60
f 408/575/62 406/576/61 403/572/57 405/571/58
f 410/577/68 411/578/67 408/574/63 407/573/64
f 411/579/66 409/580/65 406/576/61 408/575/62
f 413/581/72 414/582/71 411/578/67 410/577/68
f 414/583/70 412/584/69 409/580/65 411/579/66
f 416/585/76 417/586/75 414/582/71 413/581/72
f 417/587/74 415/588/73 412/584/69 414/583/70
f 419/589/80 420/590/79 417/586/75 416/585/76
f 420/591/78 418/592/77 415/588/73 417/587/74
f 422/593/84 423/594/83 420/590/79 419/589/80
f 423/595/82 421/596/81 418/592/77 420/591/78
f 425/597/88 426/598/87 423/599/83 422/600/84
f 426/601/86 424/602/85 421/596/81 423/595/82
f 428/603/92 429/604/91 426/598/87 425/597/88
f 429/605/90 427/606/89 424/602/85 426/601/86
f 431/607/96 432/608/95 429/604/91 428/603/92
f 432/609/94 430/610/93 427/606/89 429/605/90
f 434/611/100 435/612/99 432/608/95 431/607/96
f 435/613/98 433/614/97 430/610/93 432/609/94
f 437/615/104 438/616/103 435/612/99 434/611/100
f 438/617/102 436/618/101 433/614/97 435/613/98
f 440/619/108 441/620/291 438/616/103 437/615/104
f 441/621/106 439/622/105 436/618/101 438/617/102
f 443/623/112 444/624/111 441/620/291 440/619/108
f 444/625/110 442/626/109 439/622/105 441/621/106
f 446/627/116 447/628/115 444/624/111 443/623/112
f 447/629/114 445/630/113 442/626/109 444/625/110
f 449/631/120 450/632/119 447/633/115 446/634/116
f 450/635/118 448/636/117 445/630/113 447/629/114
f 452/637/124 453/638/123 450/632/119 449/631/120
f 453/639/122 451/640/121 448/636/117 450/635/118
f 455/641/128 456/642/127 453/638/123 452/637/124
f 456/643/126 454/644/125 451/640/121 453/639/122
f 458/645/132 459/646/131 456/642/127 455/641/128
f 459/647/130 457/648/129 454/644/125 456/643/126
f 461/649/136 462/650/135 459/646/131 458/645/132
f 462/651/134 460/652/133 457/648/129 459/647/130
f 464/653/140 465/654/139 462/650/135 461/649/136
f 465/655/138 463/656/137 460/652/133 462/651/134
f 467/657/144 468/658/143 465/654/139 464/653/140
f 468/659/142 466/660/141 463/656/137 465/655/138
f 470/661/148 471/662/147 468/658/143 467/657/144
f 471/663/146 469/664/145 466/660/141 468/659/142
f 473/665/152 474/666/151 471/667/147 470/668/148
f 474/669/150 472/670/149 469/664/145 471/663/146
f 476/671/156 477/672/155 474/666/151 473/665/152
f 477/673/154 475/674/153 472/670/149 474/669/150
f 479/675/160 480/676/159 477/672/155 476/671/156
f 480/677/158 478/678/157 475/674/153 477/673/154
f 388/546/39 390/545/38 480/676/159 479/675/160
f 390/550/35 389/549/34 478/678/157 480/677/158
f 289/415/161 386/543/40 388/546/39 293/416/162
f 259/679/292 296/418/277 290/410/275 258/680/292
f 258/680/292 290/410/275 292/413/276 257/681/292
f 295/420/167 392/551/44 386/543/40 289/415/161
f 293/416/162 388/546/39 479/675/160 382/542/271
f 257/681/292 292/413/276 383/539/289 288/682/292
f 260/683/292 299/421/278 296/418/277 259/679/292
f 298/423/170 395/555/48 392/551/44 295/420/167
f 261/684/292 302/424/279 299/421/278 260/683/292
f 301/426/173 398/559/52 395/555/48 298/423/170
f 262/685/292 305/427/280 302/424/279 261/684/292
f 304/430/176 401/563/56 398/566/52 301/431/173
f 263/686/292 308/433/281 305/427/280 262/685/292
f 307/436/179 404/569/60 401/563/56 304/430/176
f 264/687/292 311/437/282 308/433/281 263/686/292
f 310/440/182 407/573/64 404/569/60 307/436/179
f 265/688/292 314/441/188 311/437/282 264/687/292
f 313/444/185 410/577/68 407/573/64 310/440/182
f 266/689/292 317/445/192 314/441/188 265/688/292
f 316/448/189 413/581/72 410/577/68 313/444/185
f 267/690/292 320/449/196 317/445/192 266/689/292
f 319/452/193 416/585/76 413/581/72 316/448/189
f 268/691/292 323/453/200 320/449/196 267/690/292
f 322/456/197 419/589/80 416/585/76 319/452/193
f 269/692/292 326/457/204 323/453/200 268/691/292
f 325/460/201 422/593/84 419/589/80 322/456/197
f 270/693/292 329/461/208 326/457/204 269/692/292
f 328/464/205 425/597/88 422/600/84 325/465/201
f 271/694/292 332/467/212 329/461/208 270/693/292
f 331/470/209 428/603/92 425/597/88 328/464/205
f 272/695/292 335/471/216 332/467/212 271/694/292
f 334/474/213 431/607/96 428/603/92 331/470/209
f 273/696/292 338/475/220 335/471/216 272/695/292
f 337/478/217 434/611/100 431/607/96 334/474/213
f 274/697/292 341/479/224 338/475/220 273/696/292
f 340/482/221 437/615/104 434/611/100 337/478/217
f 275/698/292 344/483/228 341/479/224 274/697/292
f 343/486/225 440/619/108 437/615/104 340/482/221
f 276/699/292 347/487/232 344/483/228 275/698/292
f 346/490/229 443/623/112 440/619/108 343/486/225
f 277/700/292 350/491/236 347/487/232 276/699/292
f 349/494/233 446/627/116 443/623/112 346/490/229
f 278/701/292 353/495/240 350/491/236 277/700/292
f 352/498/237 449/631/120 446/634/116 349/499/233
f 279/702/292 356/501/244 353/495/240 278/701/292
f 355/504/241 452/637/124 449/631/120 352/498/237
f 280/703/292 359/505/248 356/501/244 279/702/292
f 358/508/245 455/641/128 452/637/124 355/504/241
f 281/704/292 362/509/252 359/505/248 280/703/292
f 361/512/249 458/645/132 455/641/128 358/508/245
f 282/705/292 365/513/283 362/509/252 281/704/292
f 364/516/253 461/649/136 458/645/132 361/512/249
f 283/706/292 368/517/284 365/513/283 282/705/292
f 367/520/256 464/653/140 461/649/136 364/516/253
f 370/524/259 467/657/144 464/653/140 367/520/256
f 284/707/292 371/521/285 368/517/284 283/706/292
f 285/708/292 374/525/286 371/521/285 284/707/292
f 373/528/262 470/661/148 467/657/144 370/524/259
f 286/709/292 377/529/287 374/525/286 285/708/292
f 376/532/265 473/665/152 470/668/148 373/533/262
f 287/710/292 380/535/288 377/529/287 286/709/292
f 379/538/268 476/671/156 473/665/152 376/532/265
f 288/682/292 383/539/289 380/535/288 287/710/292
f 382/542/271 479/675/160 476/671/156 379/538/268
f 482/711/293 487/712/294 489/713/78 483/714/74
f 483/715/75 489/716/79 488/717/295 481/718/296
f 491/719/199 484/720/195 486/721/195 492/722/199
f 492/723/198 486/724/194 485/725/297 490/726/298
f 494/727/299 499/728/300 501/729/103 495/730/107
f 495/731/106 501/732/102 500/733/301 493/734/302
f 497/735/227 502/736/303 504/737/303 498/738/227
f 498/739/226 504/740/222 503/741/304 496/742/305
f 481/718/296 505/743/306 507/744/71 483/715/75
f 483/714/74 507/745/70 506/746/307 482/711/293
f 484/720/195 508/747/308 510/748/308 486/721/195
f 486/724/194 510/749/190 509/750/309 485/725/297
f 499/728/300 607/751/310 609/752/99 501/729/103
f 501/732/102 609/753/98 608/754/311 500/733/301
f 502/736/303 610/755/219 612/756/219 504/737/303
f 504/740/222 612/757/218 611/758/312 503/741/304
f 512/759/313 529/760/314 531/761/118 513/762/114
f 513/763/115 531/764/119 530/765/315 511/766/316
f 515/767/235 622/768/231 624/769/231 516/770/235
f 516/771/234 624/772/230 623/773/317 514/774/318
f 524/775/319 517/776/320 519/777/151 525/778/155
f 525/779/154 519/780/150 518/781/321 523/782/322
f 527/783/270 520/784/267 522/785/267 528/786/270
f 528/787/269 522/788/266 521/789/323 526/790/324
f 533/791/239 515/767/235 516/770/235 534/792/239
f 534/793/238 516/771/234 514/774/318 532/794/325
f 536/795/326 524/775/319 525/778/155 537/796/159
f 537/797/158 525/779/154 523/782/322 535/798/327
f 539/799/273 527/783/270 528/786/270 540/800/273
f 540/801/272 528/787/269 526/790/324 538/802/328
f 542/803/329 559/804/330 561/805/46 543/806/42
f 543/807/43 561/808/47 560/809/331 541/810/332
f 551/811/333 646/812/334 648/813/63 552/814/67
f 552/815/66 648/816/62 647/817/335 550/818/336
f 554/819/337 595/820/338 597/821/87 555/822/91
f 555/823/90 597/824/86 596/825/339 553/826/340
f 557/827/211 598/828/207 600/829/207 558/830/211
f 558/831/210 600/832/206 599/833/341 556/834/342
f 563/835/172 544/836/169 546/837/169 564/838/172
f 564/839/171 546/840/168 545/841/343 562/842/344
f 508/747/308 547/843/187 549/844/187 510/748/308
f 510/749/190 549/845/186 548/846/345 509/750/309
f 550/818/336 506/746/307 507/745/70 552/815/66
f 552/814/67 507/744/71 505/743/306 551/811/333
f 569/847/346 586/848/251 588/849/251 570/850/346
f 570/851/254 588/852/250 587/853/347 568/854/348
f 517/776/320 571/855/349 573/856/147 519/777/151
f 519/780/150 573/857/146 572/858/350 518/781/321
f 520/784/267 574/859/264 576/860/264 522/785/267
f 522/788/266 576/861/263 575/862/351 521/789/323
f 578/863/352 565/864/353 567/865/135 579/866/139
f 579/867/138 567/868/134 566/869/354 577/870/355
f 581/871/258 569/847/346 570/850/346 582/872/258
f 582/873/257 570/851/254 568/854/348 580/874/356
f 574/859/264 664/875/261 666/876/261 576/860/264
f 576/861/263 666/877/260 665/878/357 575/862/351
f 577/870/355 661/879/358 663/880/142 579/867/138
f 579/866/139 663/881/143 662/882/359 578/863/352
f 565/864/353 583/883/360 585/884/131 567/865/135
f 567/868/134 585/885/130 584/886/361 566/869/354
f 595/820/338 589/887/362 591/888/83 597/821/87
f 597/824/86 591/889/82 590/890/363 596/825/339
f 598/828/207 592/891/203 594/892/203 600/829/207
f 600/832/206 594/893/202 593/894/364 599/833/341
f 605/895/166 539/799/273 540/800/273 606/896/166
f 606/897/163 540/801/272 538/802/328 604/898/365
f 589/887/362 488/717/295 489/716/79 591/888/83
f 591/889/82 489/713/78 487/712/294 590/890/363
f 592/891/203 491/719/199 492/722/199 594/892/203
f 594/893/202 492/723/198 490/726/298 593/894/364
f 614/899/366 584/886/361 585/885/130 615/900/126
f 615/901/127 585/884/131 583/883/360 613/902/367
f 617/903/368 628/904/243 630/905/243 618/906/368
f 618/907/246 630/908/242 629/909/369 616/910/370
f 620/911/371 512/759/313 513/762/114 621/912/110
f 621/913/111 513/763/115 511/766/316 619/914/372
f 619/914/372 494/727/299 495/730/107 621/913/111
f 621/912/110 495/731/106 493/734/302 620/911/371
f 622/768/231 497/735/227 498/738/227 624/769/231
f 624/772/230 498/739/226 496/742/305 623/773/317
f 586/848/251 617/903/368 618/906/368 588/849/251
f 588/852/250 618/907/246 616/910/370 587/853/347
f 626/915/373 530/765/315 531/764/119 627/916/123
f 627/917/122 531/761/118 529/760/314 625/918/374
f 628/904/243 533/791/239 534/792/239 630/905/243
f 630/908/242 534/793/238 532/794/325 629/909/369
f 535/798/327 601/919/375 603/920/35 537/797/158
f 537/796/159 603/921/38 602/922/376 536/795/326
f 625/918/374 614/899/366 615/900/126 627/917/122
f 627/916/123 615/901/127 613/902/367 626/915/373
f 632/923/181 637/924/178 639/925/178 633/926/181
f 633/927/180 639/928/177 638/929/377 631/930/378
f 635/931/379 640/932/380 642/933/55 636/934/59
f 636/935/58 642/936/54 641/937/381 634/938/382
f 637/924/178 649/939/175 651/940/175 639/925/178
f 639/928/177 651/941/174 650/942/383 638/929/377
f 640/932/380 652/943/384 654/944/51 642/933/55
f 642/936/54 654/945/50 653/946/385 641/937/381
f 644/947/386 632/923/181 633/926/181 645/948/386
f 645/949/183 633/927/180 631/930/378 643/950/387
f 646/812/334 635/931/379 636/934/59 648/813/63
f 648/816/62 636/935/58 634/938/382 647/817/335
f 649/939/175 563/835/172 564/838/172 651/940/175
f 651/941/174 564/839/171 562/842/344 650/942/383
f 652/943/384 560/809/331 561/808/47 654/944/51
f 654/945/50 561/805/46 559/804/330 653/946/385
f 643/950/387 548/846/345 549/845/186 645/949/183
f 645/948/386 549/844/187 547/843/187 644/947/386
f 659/951/388 605/895/166 606/896/166 660/952/388
f 660/953/164 606/897/163 604/898/365 658/954/389
f 601/919/375 655/955/390 657/956/36 603/920/35
f 603/921/38 657/957/37 656/958/391 602/922/376
f 541/810/332 656/958/391 657/957/37 543/807/43
f 543/806/42 657/956/36 655/955/390 542/803/329
f 544/836/169 659/951/388 660/952/388 546/837/169
f 546/840/168 660/953/164 658/954/389 545/841/343
f 664/875/261 581/871/258 582/872/258 666/876/261
f 666/877/260 582/873/257 580/874/356 665/878/357
f 610/755/219 670/959/215 672/960/215 612/756/219
f 612/961/218 672/962/214 671/963/392 611/964/312
f 668/965/393 608/754/311 609/753/98 669/966/94
f 669/967/95 609/968/99 607/969/310 667/970/394
f 670/959/215 557/827/211 558/830/211 672/960/215
f 672/962/214 558/831/210 556/834/342 671/963/392
f 553/826/340 668/965/393 669/966/94 555/823/90
f 555/822/91 669/967/95 667/970/394 554/819/337
f 661/879/358 572/858/350 573/857/146 663/880/142
f 663/881/143 573/856/147 571/855/349 662/882/359
f 488/717/295 490/726/298 485/725/297 481/718/296
f 385/548/33 391/554/41 394/558/45 397/562/49 400/568/53 403/572/57 406/576/61 409/580/65 584/886/361 614/899/366 625/918/374 529/760/314 512/759/313 620/911/371 493/734/302 500/733/301 608/754/311 668/965/393 553/826/340 596/825/339 590/890/363 487/712/294 482/711/293 506/746/307 550/818/336 457/648/129 460/652/133 463/656/137 466/660/141 469/664/145 472/670/149 475/674/153 478/678/157 389/549/34
f 481/718/296 485/725/297 509/750/309 505/743/306
f 161/215/292 165/214/292 254/343/292 251/339/292 248/335/292 245/329/292 242/325/292 239/321/292 236/317/292 233/313/252 547/843/292 508/747/292 484/720/292 491/719/292 592/891/292 598/828/292 557/827/292 670/959/292 610/755/292 502/736/292 497/735/292 622/768/292 515/767/292 533/791/292 628/904/292 617/903/292 586/848/292 185/245/188 182/241/292 179/237/292 176/233/292 173/227/292 170/223/292 167/219/292
f 589/887/362 593/894/364 490/726/298 488/717/295
f 494/727/299 496/742/305 503/741/304 499/728/300
f 619/914/372 623/773/317 496/742/305 494/727/299
f 499/728/300 503/741/304 611/758/312 607/751/310
f 505/743/306 509/750/309 548/846/345 551/811/333
f 530/765/315 532/794/325 514/774/318 511/766/316
f 511/766/316 514/774/318 623/773/317 619/914/372
f 524/775/319 526/790/324 521/789/323 517/776/320
f 457/648/129 550/818/336 647/817/335 634/938/382 641/937/381 653/946/385 559/804/330 542/803/329 655/955/390 601/919/375 535/798/327 523/782/322 518/781/321 572/858/350 661/879/358 577/870/355 566/869/354 584/886/361 409/580/65 412/584/69 415/588/73 418/592/77 421/596/81 424/602/85 427/606/89 430/610/93 433/614/97 436/618/101 439/622/105 442/626/109 445/630/113 448/636/117 451/640/121 454/644/125
f 517/776/320 521/789/323 575/862/351 571/855/349
f 185/245/188 586/848/292 569/847/292 581/871/292 664/875/292 574/859/292 520/784/292 527/783/292 539/799/292 605/895/292 659/951/292 544/836/292 563/835/292 649/939/292 637/924/292 632/923/292 644/947/292 547/843/292 233/313/252 230/309/248 227/305/244 224/301/240 221/295/236 218/291/232 215/287/228 212/283/224 209/279/220 206/275/216 203/271/212 200/267/208 197/261/204 194/257/200 191/253/196 188/249/192
f 536/795/326 538/802/328 526/790/324 524/775/319
f 626/915/373 629/909/369 532/794/325 530/765/315
f 602/922/376 604/898/365 538/802/328 536/795/326
f 541/810/332 545/841/343 658/954/389 656/958/391
f 560/809/331 562/842/344 545/841/343 541/810/332
f 551/811/333 548/846/345 643/950/387 646/812/334
f 554/819/337 556/834/342 599/833/341 595/820/338
f 667/970/394 671/963/392 556/834/342 554/819/337
f 652/943/384 650/942/383 562/842/344 560/809/331
f 578/863/352 580/874/356 568/854/348 565/864/353
f 565/864/353 568/854/348 587/853/347 583/883/360
f 571/855/349 575/862/351 665/878/357 662/882/359
f 662/882/359 665/878/357 580/874/356 578/863/352
f 583/883/360 587/853/347 616/910/370 613/902/367
f 595/820/338 599/833/341 593/894/364 589/887/362
f 656/958/391 658/954/389 604/898/365 602/922/376
f 607/969/310 611/964/312 671/963/392 667/970/394
f 613/902/367 616/910/370 629/909/369 626/915/373
f 646/812/334 643/950/387 631/930/378 635/931/379
f 635/931/379 631/930/378 638/929/377 640/932/380
f 640/932/380 638/929/377 650/942/383 652/943/384
